<?xml version="1.0" encoding="utf-8"?>
<!-- Uploaded to: SVG Repo, www.svgrepo.com, Generator: SVG Repo Mixer Tools -->
<svg width="800px" height="800px" viewBox="0 0 1024 1024" class="icon"  version="1.1" xmlns="http://www.w3.org/2000/svg"><path d="M512 512m-512 0a512 512 0 1 0 1024 0 512 512 0 1 0-1024 0Z" fill="#8DD9FF" /><path d="M991.862 333.244C927.472 160.476 772.49 31.918 584.658 5.224 465.418 47.486 379.86 160.942 379.86 294.666c0 169.74 137.6 307.34 307.34 307.34 156.644 0 285.648-117.274 304.662-268.762z" fill="#FFFFF4" /><path d="M687.2 294.666m-79.2 0a79.2 79.2 0 1 0 158.4 0 79.2 79.2 0 1 0-158.4 0Z" fill="#FFFFFF" /><path d="M111.604 193.082L238 291.46l90.596 14.002a105.534 105.534 0 0 0 6.016-35.238c0-39.51-21.718-73.898-53.83-92.036 0.58-4.482 0.982-9.018 0.982-13.66 0-35.034-17.15-65.954-43.398-85.186a514.538 514.538 0 0 0-126.762 113.74z" fill="#FFFFFF" /><path d="M512 1024c282.77 0 512-229.23 512-512H0c0 282.77 229.23 512 512 512z" fill="#52C883" /><path d="M512 512H0c0 37.526 4.15 74.066 11.812 109.294L512 512z" fill="#FF4F70" /><path d="M334.614 323.072c-0.602 0-1.158 0.162-1.758 0.178-8.096-40.288-43.65-70.642-86.322-70.642-2.03 0-3.928 0.462-5.924 0.596-14.354-41.338-53.544-71.06-99.77-71.06-7.818 0-15.334 1.118-22.668 2.728C54.002 262.04 12.14 358.362 2.312 464h332.3c38.916 0 70.464-31.548 70.464-70.464 0.002-38.916-31.546-70.464-70.462-70.464z" fill="#FFFFFF" /><path d="M687.2 294.666m-167.77 0a167.77 167.77 0 1 0 335.54 0 167.77 167.77 0 1 0-335.54 0Z" fill="#FFFFF4" /><path d="M911.018 191.326c-33.246 10.91-59.636 36.898-71.196 69.87-2.14-0.122-4.26-0.326-6.43-0.326-49.288 0-91.076 31.692-106.378 75.766-2.118-0.178-4.152-0.636-6.318-0.636-41.494 0-75.13 33.636-75.13 75.13-20.748 0-37.566 16.818-37.566 37.566 0 20.746 16.818 37.566 37.566 37.566h377.784c-5.518-111.426-46.726-213.408-112.332-294.936z" fill="#FFFFFF" /><path d="M512 512v512c69.424 0 135.588-13.884 195.958-38.92L512 512z" fill="#FF4F70" /><path d="M316.044 985.08C376.414 1010.116 442.576 1024 512 1024V512l-195.956 473.08z" fill="#FFEFA1" /><path d="M149.962 874.038a512.714 512.714 0 0 0 166.082 111.042L512 512 149.962 874.038z" fill="#FFC56E" /><path d="M874.038 874.038L512 512l195.958 473.08a512.726 512.726 0 0 0 166.08-111.042zM38.92 707.956a512.714 512.714 0 0 0 111.042 166.082L512 512 38.92 707.956z" fill="#B26483" /><path d="M6.502 593.35a508.25 508.25 0 0 0 32.416 114.606L512 512 6.502 593.35zM874.04 874.038a512.708 512.708 0 0 0 111.04-166.082L512 512l362.04 362.038z" fill="#6597FF" /><path d="M512 512h512c0 37.526-4.15 74.066-11.812 109.294L512 512z" fill="#FFC56E" /><path d="M512 512l473.08 195.956 0.002-0.004a508.304 508.304 0 0 0 32.416-114.6L512 512z" fill="#44BEFF" /><path d="M512 673.936c216.278 0 404.918-33.328 505.898-82.828 4-25.786 6.102-52.2 6.102-79.108H0c0 26.908 2.102 53.322 6.102 79.108 100.98 49.5 289.62 82.828 505.898 82.828z" fill="#FFFFFF" /><path d="M1022.914 544c0.692-10.582 1.086-21.244 1.086-32H0c0 10.756 0.394 21.418 1.086 32h1021.828z" fill="#FFFFFF" /></svg>