<?xml version="1.0" encoding="utf-8"?>
<!-- Uploaded to: SVG Repo, www.svgrepo.com, Generator: SVG Repo Mixer Tools -->
<svg width="800px" height="800px" viewBox="0 0 1024 1024" class="icon"  version="1.1" xmlns="http://www.w3.org/2000/svg"><path d="M512 512m-512 0a512 512 0 1 0 1024 0 512 512 0 1 0-1024 0Z" fill="#FFF9BB" /><path d="M763.978 137.772c-3.396 0-6.604 0.668-9.68 1.638-9.742-14.006-25.904-23.214-44.258-23.214-18.354 0-34.516 9.208-44.258 23.214-3.076-0.97-6.284-1.638-9.68-1.638-17.874 0-32.364 14.49-32.364 32.364h172.604c0-17.874-14.49-32.364-32.364-32.364z" fill="#FFEB97" /><path d="M606.604 285.388c-2.736 0-5.322 0.538-7.802 1.32-7.852-11.286-20.876-18.708-35.668-18.708-14.792 0-27.816 7.42-35.668 18.708-2.478-0.782-5.064-1.32-7.802-1.32-14.404 0-26.082 11.676-26.082 26.082h139.098c0.006-14.406-11.672-26.082-26.076-26.082z" fill="#FFF1A9" /><path d="M310.112 176.358c0-31.926 25.882-57.806 57.806-57.806 4.818 0 9.426 0.762 13.9 1.872 15.084-16.29 36.47-26.648 60.422-26.648 45.608 0 82.58 36.972 82.58 82.58H310.112z" fill="#FFEB97" /><path d="M430.886 205.452c0-24.304 19.35-44.008 43.22-44.008 3.602 0 7.046 0.58 10.392 1.426 11.278-12.402 27.268-20.286 45.176-20.286 34.098 0 61.742 28.148 61.742 62.868h-160.53z" fill="#FFEB97" /><path d="M401.97 278.1c0-12.152 9.676-22.004 21.61-22.004 1.802 0 3.524 0.29 5.196 0.712 5.638-6.2 13.634-10.144 22.588-10.144 17.05 0 30.87 14.074 30.87 31.434h-80.264z" fill="#FFF1A9" /><path d="M1024 512c0-42.186-5.206-83.14-14.828-122.36l-5.824-3.562c-188.682 0-362.682 125.922-584.682 125.922-180.874 0 311.418 20.66 604.77 22.298 0.318-7.4 0.564-14.82 0.564-22.298z" fill="#FFEA96" /><path d="M1.918 512c0-42.186 5.206-83.14 14.828-122.36l5.824-3.562c188.682 0 200.774 125.922 422.774 125.922 180.876 0-149.51 20.66-442.862 22.298-0.318-7.4-0.564-14.82-0.564-22.298z" fill="#FFEB97" /><path d="M336.158 528.234a6.828 6.828 0 0 1-6.832-6.826V447.88c0-3.77 3.056-6.826 6.832-6.826s6.832 3.056 6.832 6.826v73.528a6.828 6.828 0 0 1-6.832 6.826z" fill="#828240" /><path d="M384.596 428.81c0 37.174-21.686 55.834-48.438 55.834s-48.438-18.66-48.438-55.834 29.672-182.144 48.438-182.144 48.438 144.97 48.438 182.144z" fill="#69BE5D" /><path d="M336.156 246.666c-3.716 0-7.864 5.748-12.12 15.156 15.31 23.186 35.116 137.744 35.116 169.564 0 31.088-13.824 48.59-32.178 52.434 2.978 0.516 6.036 0.822 9.182 0.822 26.752 0 48.44-18.66 48.44-55.834s-29.674-182.142-48.44-182.142z" fill="#9DC85C" /><path d="M512 1024c282.77 0 512-229.23 512-512H0c0 282.77 229.23 512 512 512z" fill="#D6EB76" /><path d="M86.676 582.792c-130.694 18.528 268.22 93.612 268.22 93.612s585.224 55.024 602.438 55.024c2.844 0 8.756 0.926 16.34 2.182 24.826-51.626 41.216-108.062 47.46-167.522C770.666 616 492 525.334 86.676 582.792z" fill="#CCE16B" /><path d="M512 1024c232.782 0 429.15-155.402 491.348-368.082-399.766-1.736-633.532-111.224-997.324-65.244C43.876 836.092 255.986 1024 512 1024z" fill="#D0D75B" /><path d="M29.65 683.85c35.196 98.772 99.864 183.488 183.418 243.7l677.774-71.136a512.456 512.456 0 0 0 90.6-139.984c-303.586-7.382-730.304-58.944-951.792-32.58z" fill="#D8C34A" /><path d="M512 1024c204.218 0 380.386-119.618 462.548-292.572-307.756 0-609.064 0.244-872.532 87.264C195.398 943.334 344.27 1024 512 1024z" fill="#D0B459" /><path d="M720.004 555a9.948 9.948 0 0 1-9.952-9.944v-107.11a9.946 9.946 0 0 1 9.952-9.944 9.946 9.946 0 0 1 9.952 9.944v107.11a9.948 9.948 0 0 1-9.952 9.944z" fill="#828240" /><path d="M790.562 410.166c0 54.152-31.592 81.334-70.562 81.334s-70.562-27.182-70.562-81.334S692.662 144.832 720 144.832s70.562 211.182 70.562 265.334z" fill="#69BE5D" /><path d="M720 144.832c-5.414 0-11.456 8.374-17.656 22.08 22.302 33.776 51.156 200.656 51.156 247.008 0 45.286-20.138 70.782-46.876 76.382 4.338 0.75 8.794 1.198 13.376 1.198 38.97 0 70.562-27.182 70.562-81.334S747.338 144.832 720 144.832z" fill="#9DC85C" /><path d="M224.006 534.9a8.768 8.768 0 0 1-8.772-8.766v-94.42c0-4.84 3.926-8.766 8.772-8.766s8.772 3.926 8.772 8.766v94.42a8.766 8.766 0 0 1-8.772 8.766z" fill="#828240" /><path d="M286.204 407.228c0 47.736-27.848 71.698-62.202 71.698S161.8 454.964 161.8 407.228 199.904 173.332 224.002 173.332s62.202 186.16 62.202 233.896z" fill="#69BE5D" /><path d="M224.004 173.332c-4.772 0-10.098 7.38-15.564 19.464 19.66 29.774 45.094 176.88 45.094 217.742 0 39.92-17.752 62.394-41.32 67.332 3.824 0.662 7.752 1.056 11.792 1.056 34.354 0 62.202-23.96 62.202-71.698S248.102 173.332 224.004 173.332z" fill="#9DC85C" /><path d="M920.406 203.274c-0.118 0-0.23-0.022-0.348-0.022-20.12 0-37.838 10.094-48.518 25.448-3.372-1.064-6.89-1.796-10.612-1.796-19.594 0-35.478 15.884-35.478 35.478h133.552a512.344 512.344 0 0 0-38.596-59.108z" fill="#FFF1A9" /><path d="M354.316 913.866m-13.334 0a13.334 13.334 0 1 0 26.668 0 13.334 13.334 0 1 0-26.668 0Z" fill="#D8C34A" /><path d="M395.008 851.334m-13.334 0a13.334 13.334 0 1 0 26.668 0 13.334 13.334 0 1 0-26.668 0Z" fill="#D8C34A" /><path d="M589.334 841.978m-13.334 0a13.334 13.334 0 1 0 26.668 0 13.334 13.334 0 1 0-26.668 0Z" fill="#D8C34A" /><path d="M649.438 791.426m-13.334 0a13.334 13.334 0 1 0 26.668 0 13.334 13.334 0 1 0-26.668 0Z" fill="#D8C34A" /><path d="M532.212 940.884m-13.334 0a13.334 13.334 0 1 0 26.668 0 13.334 13.334 0 1 0-26.668 0Z" fill="#D0D75B" /><path d="M465.334 828.644m-13.334 0a13.334 13.334 0 1 0 26.668 0 13.334 13.334 0 1 0-26.668 0Z" fill="#D0D75B" /><path d="M201.006 607.566m-7.434 0a7.434 7.434 0 1 0 14.868 0 7.434 7.434 0 1 0-14.868 0Z" fill="#D6EB76" /><path d="M102.016 634.942m-7.434 0a7.434 7.434 0 1 0 14.868 0 7.434 7.434 0 1 0-14.868 0Z" fill="#CCE16B" /><path d="M293.638 648.276m-7.434 0a7.434 7.434 0 1 0 14.868 0 7.434 7.434 0 1 0-14.868 0Z" fill="#CCE16B" /><path d="M161.802 642.376m-7.434 0a7.434 7.434 0 1 0 14.868 0 7.434 7.434 0 1 0-14.868 0Z" fill="#CCE16B" /><path d="M395.008 655.708m-7.434 0a7.434 7.434 0 1 0 14.868 0 7.434 7.434 0 1 0-14.868 0Z" fill="#D6EB76" /><path d="M354.316 622.434m-7.434 0a7.434 7.434 0 1 0 14.868 0 7.434 7.434 0 1 0-14.868 0Z" fill="#D6EB76" /><path d="M526.312 642.376m-7.434 0a7.434 7.434 0 1 0 14.868 0 7.434 7.434 0 1 0-14.868 0Z" fill="#D6EB76" /><path d="M478.666 655.708m-7.434 0a7.434 7.434 0 1 0 14.868 0 7.434 7.434 0 1 0-14.868 0Z" fill="#CCE16B" /><path d="M583.434 655.708m-7.434 0a7.434 7.434 0 1 0 14.868 0 7.434 7.434 0 1 0-14.868 0Z" fill="#CCE16B" /><path d="M710.052 676.406m-7.434 0a7.434 7.434 0 1 0 14.868 0 7.434 7.434 0 1 0-14.868 0Z" fill="#D6EB76" /><path d="M809.484 673m-7.434 0a7.434 7.434 0 1 0 14.868 0 7.434 7.434 0 1 0-14.868 0Z" fill="#CCE16B" /><path d="M870 683.838m-7.434 0a7.434 7.434 0 1 0 14.868 0 7.434 7.434 0 1 0-14.868 0Z" fill="#D6EB76" /><path d="M677.334 900.532m-13.334 0a13.334 13.334 0 1 0 26.668 0 13.334 13.334 0 1 0-26.668 0Z" fill="#D8C34A" /><path d="M802.052 838m-13.334 0a13.334 13.334 0 1 0 26.668 0 13.334 13.334 0 1 0-26.668 0Z" fill="#D8C34A" /><path d="M746.454 793.334m-13.334 0a13.334 13.334 0 1 0 26.668 0 13.334 13.334 0 1 0-26.668 0Z" fill="#D0D75B" /><path d="M842.052 778.094m-13.334 0a13.334 13.334 0 1 0 26.668 0 13.334 13.334 0 1 0-26.668 0Z" fill="#D0D75B" /><path d="M262.748 841.978m-13.334 0a13.334 13.334 0 1 0 26.668 0 13.334 13.334 0 1 0-26.668 0Z" fill="#D0D75B" /></svg>