<?xml version="1.0" encoding="utf-8"?>
<!-- Uploaded to: SVG Repo, www.svgrepo.com, Generator: SVG Repo Mixer Tools -->
<svg width="800px" height="800px" viewBox="0 0 1024 1024" class="icon"  version="1.1" xmlns="http://www.w3.org/2000/svg"><path d="M512.00006 0C229.68806 0 0.00006 229.68 0.00006 512s229.688 512 512 512 512-229.68 512-512S794.31206 0 512.00006 0z" fill="#FFDA9C" /><path d="M650.66606 496c-26.666 0-51.334-25.282-87.334-25.282S496.67006 496 471.67006 496 432.00006 512 432.00006 512h199.334l19.332-16z" fill="#E0B587" /><path d="M576.00006 496c-25 0-92-32-128-32s-87 32-112 32-32 16-32 16h272v-16z" fill="#CA9F7C" /><path d="M832.00006 336c-36-9-95.99-13.292-144 32-53 50-92.666 144-176 144h288l48-144-16-32" fill="#A07766" /><path d="M832.00006 336a198.686 198.686 0 0 0-21.212-4.07C785.79406 335.614 759.47006 345.858 736.00006 368c-53 50-92.666 144-176 144h240l48-144-16-32z" fill="#795552" /><path d="M88.32406 224.862a510.42 510.42 0 0 0-63.652 130.292L192.00006 416l169.178 54.718c-133.988-80.404-104.582-217.092-272.854-245.856z" fill="#A07766" /><path d="M82.72206 233.478a509.64 509.64 0 0 0-62.146 135.16L150.82206 416 320.00006 470.718c-123.614-74.178-108.28-196.194-237.278-237.24z" fill="#795552" /><path d="M512.00006 1024c282.312 0 512-229.68 512-512H0.00006c0 282.32 229.688 512 512 512z" fill="#E9B668" /><path d="M512.00006 640c200.562 0 386.67-70.512 509.914-83.096C1023.20806 542.092 1024.00006 527.14 1024.00006 512H0.00006c0 15.14 0.792 30.092 2.086 44.904C125.33006 569.488 311.43806 640 512.00006 640z" fill="#FFDA9C" /><path d="M760.55606 959.402L512.00006 512 263.44406 959.402C337.10206 1000.488 421.83806 1024 512.00006 1024s174.898-23.512 248.556-64.598z" fill="#674447" /><path d="M581.58006 637.242L512.00006 512l-69.58 125.242C465.37406 638.96 488.57606 640 512.00006 640s46.626-1.04 69.58-2.758zM247.00006 800c-8.844 0-16-7.164-16-16v-160c0-8.836 7.156-16 16-16 8.844 0 16 7.164 16 16v160c0 8.836-7.156 16-16 16z" fill="#8C665B" /><path d="M263.00006 752h-32c-26.468 0-48-21.532-48-48v-32c0-8.836 7.156-16 16-16 8.844 0 16 7.164 16 16v32c0 8.82 7.172 16 16 16h32c8.828 0 16-7.18 16-16v-48c0-8.836 7.156-16 16-16 8.844 0 16 7.164 16 16v48c0 26.468-21.532 48-48 48z" fill="#8C665B" /><path d="M650.66606 608a5.916 5.916 0 0 1-5.916-5.916v-59.166a5.914 5.914 0 1 1 11.832 0v59.166a5.912 5.912 0 0 1-5.916 5.916z" fill="#A07766" /><path d="M656.58406 590.25h-11.834c-9.788 0-17.75-7.962-17.75-17.75v-11.834a5.914 5.914 0 1 1 11.832 0v11.834a5.92 5.92 0 0 0 5.916 5.916h11.834a5.922 5.922 0 0 0 5.916-5.916v-17.75a5.914 5.914 0 1 1 11.832 0v17.75c0.004 9.788-7.958 17.75-17.746 17.75z" fill="#A07766" /><path d="M832.00006 704c-8.844 0-16 7.164-16 16v32c0 8.82-7.172 16-16 16v-112c0-8.836-7.156-16-16-16s-16 7.164-16 16v80c-8.828 0-16-7.18-16-16v-16c0-8.836-7.156-16-16-16s-16 7.164-16 16v16c0 26.468 21.532 48 48 48v32c0 8.836 7.156 16 16 16s16-7.164 16-16c26.468 0 48-21.532 48-48v-32c0-8.836-7.156-16-16-16z" fill="#8C665B" /><path d="M410.98606 192.43c-3.044 0-5.922 0.6-8.678 1.468-8.734-12.556-23.224-20.812-39.678-20.812-16.454 0-30.944 8.256-39.678 20.812-2.758-0.87-5.634-1.468-8.678-1.468-16.024 0-29.014 12.99-29.014 29.014H440.00006c0-16.024-12.99-29.014-29.014-29.014zM597.67806 137.504c-2.174 0-4.23 0.428-6.198 1.05-6.238-8.968-16.588-14.866-28.342-14.866s-22.102 5.896-28.342 14.866c-1.97-0.622-4.024-1.05-6.198-1.05-11.446 0-20.724 9.278-20.724 20.724h110.528c0-11.446-9.278-20.724-20.724-20.724z" fill="#EDC08E" /><path d="M252.55606 197.266c0-16.534 13.404-29.938 29.938-29.938 2.496 0 4.882 0.394 7.198 0.97 7.812-8.436 18.888-13.8 31.292-13.8 23.62 0 42.768 19.148 42.768 42.768h-111.196zM618.40206 224.706c0-21.3 17.268-38.568 38.568-38.568 3.214 0 6.288 0.508 9.274 1.25 10.064-10.868 24.334-17.78 40.314-17.78 30.43 0 55.098 24.668 55.098 55.098h-143.254z" fill="#EDC08E" /><path d="M713.31606 205.402c0-14.376 11.654-26.03 26.03-26.03 2.17 0 4.244 0.344 6.26 0.844 6.792-7.336 16.422-12 27.208-12 20.538 0 37.186 16.648 37.186 37.186h-96.684z" fill="#EDC08E" /><path d="M64.00006 320H37.49406A509.06 509.06 0 0 0 0.00006 512h480c-129 0-270-192-416-192zM608.00006 512h416c0-99.542-28.654-192.474-78.002-271.168C761.38006 312.36 802.77606 512 608.00006 512z" fill="#8C665B" /><path d="M558.33406 1021.658L512.00006 512l15.5 511.496c10.36-0.312 20.636-0.914 30.834-1.838zM496.50006 1023.496L512.00006 512l-46.334 509.658c10.198 0.924 20.474 1.526 30.834 1.838z" fill="#E9B668" /><path d="M512.00006 512L263.44406 959.402c8.528 4.756 17.238 9.22 26.054 13.496L512.00006 512zM512.00006 512l248.556 447.402c-8.528 4.756-17.238 9.22-26.054 13.496L512.00006 512z" fill="#FFDA9C" /><path d="M34.63006 327.25C12.35606 384.606 0.00006 446.87 0.00006 512h400c-114.024 0-237.428-149.92-365.37-184.75z" fill="#674447" /><path d="M371.41006 566.296a6.468 6.468 0 0 0-6.47 6.47v12.94a6.476 6.476 0 0 1-6.47 6.47v-45.288a6.47 6.47 0 1 0-12.94 0v32.348a6.476 6.476 0 0 1-6.47-6.47v-6.47a6.47 6.47 0 1 0-12.94 0v6.47c0 10.702 8.706 19.41 19.41 19.41v12.94a6.47 6.47 0 1 0 12.94 0c10.702 0 19.41-8.706 19.41-19.41v-12.94a6.47 6.47 0 0 0-6.47-6.47z" fill="#A07766" /><path d="M924.36406 597.818a9.452 9.452 0 0 0-9.454 9.454v18.91a9.464 9.464 0 0 1-9.454 9.454v-66.182c0-5.222-4.228-9.454-9.454-9.454s-9.454 4.234-9.454 9.454v47.272a9.464 9.464 0 0 1-9.454-9.454v-9.454a9.45 9.45 0 0 0-9.454-9.454 9.452 9.452 0 0 0-9.454 9.454v9.454c0 15.64 12.724 28.364 28.364 28.364v18.91c0 5.222 4.228 9.454 9.454 9.454s9.454-4.234 9.454-9.454c15.64 0 28.364-12.724 28.364-28.364v-18.91a9.458 9.458 0 0 0-9.458-9.454z" fill="#8C665B" /><path d="M140.36406 597.818a9.452 9.452 0 0 0-9.454 9.454v18.91a9.464 9.464 0 0 1-9.454 9.454v-66.182c0-5.222-4.228-9.454-9.454-9.454s-9.454 4.234-9.454 9.454v47.272a9.464 9.464 0 0 1-9.454-9.454v-9.454a9.45 9.45 0 0 0-9.454-9.454 9.452 9.452 0 0 0-9.454 9.454v9.454c0 15.64 12.724 28.364 28.364 28.364v18.91c0 5.222 4.228 9.454 9.454 9.454s9.454-4.234 9.454-9.454c15.64 0 28.364-12.724 28.364-28.364v-18.91a9.458 9.458 0 0 0-9.458-9.454z" fill="#8C665B" /><path d="M656.00006 512h368c0-92.098-24.566-178.514-67.306-253.262C814.34006 340.864 836.37406 512 656.00006 512z" fill="#674447" /></svg>