<?xml version="1.0" encoding="utf-8"?>
<!-- Uploaded to: SVG Repo, www.svgrepo.com, Generator: SVG Repo Mixer Tools -->
<svg width="800px" height="800px" viewBox="0 0 1024 1024" class="icon"  version="1.1" xmlns="http://www.w3.org/2000/svg"><path d="M512 512m-512 0a512 512 0 1 0 1024 0 512 512 0 1 0-1024 0Z" fill="#8DD9FF" /><path d="M1022.564 548.47c0.85-12.06 1.436-24.194 1.436-36.47 0-18.33-1.006-36.42-2.884-54.25-19.296 3.268-114.644 28.296-136.838 28.948-23.724 0.698-58.276-22.03-75.61-16.03-17.334 6-134.798 23.744-140.666 23.672-5.87-0.072-69-25.338-82-25.338s-117 30-147 24.714-77-30.152-90.778-30.152S170 516 112.31 482.57 35 466 1.188 486l-0.57 1.578A517.726 517.726 0 0 0 0 512c0 36.704 3.94 72.474 11.28 106.99l776.828 33.018 234.456-103.538z" fill="#E5D7A8" /><path d="M512 0C370.544 0 242.492 57.368 149.828 150.102 208.748 292.102 348.684 392 512 392s303.252-99.898 362.172-241.898C781.508 57.368 653.456 0 512 0z" fill="#FFFFF4" /><path d="M700.796 460.8c-39.694 0-150.838 90.582-224.952 103.63 51.412 71.052 124.132 115.45 204.824 115.45 81.774 0 155.382-45.568 206.9-118.298-42.61-20.172-141.65-100.782-186.772-100.782z" fill="#FFC868" /><path d="M884.276 559.882c-44.162-22.428-139.436-99.082-183.48-99.082-1.4 0-3.084 0.358-4.658 0.576-17.468 5.13-32.274 36.582-15.47 72.43 16.16 34.474 44.072 88.214 0 146.01l0.04 0.064c29.192-0.006 77.742 22.792 115.13 27.32 39.202-39.796 69.866-90.212 88.438-147.318z" fill="#FFDC87" /><path d="M892.772 740.334c43.446-69.022 69.876-143.126 94.086-221.6a91.544 91.544 0 0 1 4.164-10.862c-32.92-19.276-63.794-33.852-84.93-33.852-32.64 0-104.962 50.262-176.274 87.814 3.398 53.022 14.868 103.822 33.192 151.236 36.96 17.826 76.88 27.652 118.58 27.652 3.75 0 7.458-0.232 11.182-0.388z" fill="#F9BE58" /><path d="M906.09 474.02c-1.704 0-3.754 0.434-5.67 0.7-21.264 6.244-39.288 44.534-18.834 88.174 19.672 41.968 53.654 107.39 0 177.75l0.05 0.078c20.712-0.004 49.454 9.414 78.82 18.37 38.058-68.924 60.592-147.558 63.144-231.244-44.35-28.266-89.46-53.828-117.51-53.828z" fill="#FFD267" /><path d="M1.188 545.204c3.398 53.022 14.868 103.822 33.192 151.236 36.96 17.826 76.88 27.652 118.58 27.652 99.55 0 189.16-55.474 251.876-144.012-51.874-24.558-172.444-122.69-227.374-122.69-32.64 0-104.964 50.262-176.274 87.814z" fill="#FFC868" /><path d="M400.826 578.01c-53.76-27.304-169.746-120.62-223.366-120.62-1.704 0-3.754 0.436-5.67 0.7-21.264 6.244-39.288 44.534-18.834 88.174 19.672 41.968 53.652 107.39 0 177.75l0.05 0.078c35.538-0.006 94.642 27.746 140.158 33.26 47.724-48.448 85.054-109.824 107.662-179.342z" fill="#FFDC87" /><path d="M476.864 474.02c-48.322 0-183.628 110.272-273.852 126.156 62.588 86.498 151.116 140.546 249.35 140.546 99.55 0 189.16-55.474 251.876-144.014-51.874-24.556-172.444-122.688-227.374-122.688z" fill="#F9BE58" /><path d="M700.23 594.638c-53.76-27.304-169.746-120.62-223.366-120.62-1.704 0-3.754 0.436-5.67 0.7-21.264 6.244-39.288 44.534-18.834 88.174 19.672 41.968 53.652 107.39 0 177.75l0.05 0.078c35.538-0.006 94.642 27.746 140.158 33.26 47.722-48.446 85.054-109.822 107.662-179.342z" fill="#FFD267" /><path d="M937.76 694.354c0.07-2.116 0.236-4.226 0.24-6.354 0.014-8.654 1.8-16.782 4.444-24.58-76.42-43.214-183.832-111.42-239.45-111.42-62.602 0-237.888 125.692-354.772 143.798C429.302 794.394 543.992 856 671.25 856c103.66 0 198.958-40.912 274.572-109.35-8.406-15.714-11.03-34.664-8.062-52.296z" fill="#F9BE58" /><path d="M992.362 689.488C922.716 658.366 772.458 552 702.994 552c-2.208 0-4.864 0.496-7.344 0.798-27.548 7.118-50.898 50.762-24.398 100.504 25.486 47.836 69.506 122.408 0 202.606l0.064 0.088c46.04-0.008 122.606 31.626 181.572 37.912 61.824-55.22 110.186-125.18 139.474-204.42z" fill="#FFD267" /><path d="M252.436 584c-40.856 0-132.524 59.984-221.706 103.048 27.162 74.66 71.28 141.118 127.582 194.954 20.916 3.912 42.324 6 64.14 6 121.816 0 231.468-63.232 308.212-164.152C467.192 695.856 319.654 584 252.436 584z" fill="#F9BE58" /><path d="M530.666 723.848C467.192 695.856 319.654 584 252.436 584c-2.086 0-4.594 0.496-6.938 0.798-26.02 7.118-48.076 50.762-23.046 100.504 24.072 47.836 65.652 122.408 0 202.606l0.06 0.088c121.794-0.02 231.424-63.246 308.154-164.148z" fill="#FFD267" /><path d="M548.536 720c-72.052 0-273.804 125.692-408.336 143.798C233.522 962.394 365.526 1024 512 1024c148.438 0 282.052-63.232 375.568-164.152C810.222 831.856 630.442 720 548.536 720z" fill="#ECAB4E" /><path d="M887.568 859.848C810.222 831.856 630.442 720 548.536 720c-2.542 0-5.598 0.496-8.454 0.798-31.708 7.118-58.584 50.762-28.082 100.504 29.334 47.836 80 122.408 0 202.606l0.074 0.088c148.406-0.02 281.994-63.246 375.494-164.148z" fill="#FFC353" /><path d="M124.898 290.898c0-12.568 25.442-22.756 56.828-22.756 4.736 0 9.266 0.3 13.664 0.738 14.828-6.412 35.852-10.49 59.398-10.49 44.836 0 81.182 14.554 81.182 32.508H124.898z" fill="#FFFFFF" /><path d="M499.718 290.898c0-9.858 19.956-17.848 44.574-17.848 3.716 0 7.268 0.236 10.718 0.578 11.63-5.03 28.122-8.228 46.59-8.228 35.168 0 63.676 11.416 63.676 25.498h-165.558zM465.48 262.074c0-12.568-24.914-22.756-55.646-22.756-4.638 0-9.074 0.3-13.38 0.738-14.52-6.412-35.108-10.49-58.164-10.49-43.902 0-79.494 14.554-79.494 32.508H465.48z" fill="#FFFFFF" /><path d="M811.316 243.566c0-10.824-21.46-19.6-47.93-19.6-3.996 0-7.816 0.258-11.526 0.636-12.506-5.524-30.24-9.036-50.1-9.036-37.816 0-68.472 12.536-68.472 28h178.028zM896.148 272c0-7.964-15.788-14.422-35.264-14.422-2.94 0-5.75 0.19-8.48 0.468-9.202-4.064-22.248-6.648-36.86-6.648-27.824 0-50.378 9.224-50.378 20.602h130.982z" fill="#FFFFFF" /><path d="M512 0a513.746 513.746 0 0 0-107.392 11.374C410.292 65.672 456.196 108 512 108s101.708-42.328 107.392-96.626A513.746 513.746 0 0 0 512 0z" fill="#FFFFFF" /><path d="M512 0c-74.982 0-146.126 16.252-210.302 45.212 20.782 97.1 107 169.938 210.302 169.938s189.52-72.838 210.302-169.938C658.126 16.252 586.982 0 512 0z" fill="#FFFFF4" /></svg>