<?xml version="1.0" encoding="utf-8"?>
<!-- Uploaded to: SVG Repo, www.svgrepo.com, Generator: SVG Repo Mixer Tools -->
<svg width="800px" height="800px" viewBox="0 0 1024 1024" class="icon"  version="1.1" xmlns="http://www.w3.org/2000/svg"><path d="M512 512m-512 0a512 512 0 1 0 1024 0 512 512 0 1 0-1024 0Z" fill="#9DA6ED" /><path d="M512 500.398m-317.268 0a317.268 317.268 0 1 0 634.536 0 317.268 317.268 0 1 0-634.536 0Z" fill="#FFC8A9" /><path d="M512 500.398m-168.62 0a168.62 168.62 0 1 0 337.24 0 168.62 168.62 0 1 0-337.24 0Z" fill="#FFD7A8" /><path d="M1016.484 599.02c-10.938-17.65-56.006-87.02-88.706-87.02-41.208 0-96.78 112-133.204 112-29.138 0-65.56-64-83.252-64-16.65 0-88.456 96-116.552 96H361.666c-49.952 0-117.986-107.53-133.204-128-13.876-18.666-49.952-16-49.952-16S84.16 656 28.66 656h-7.984C82.902 868.636 279.248 1024 512 1024c253.088 0 463.146-183.684 504.484-424.98z" fill="#A17988" /><path d="M733.884 576.188C720 573 717.5 601 702 603c-21.776 2.81-28 48-36 63s-30 29-51 29-44.396 33.146-69.5 47.5c0 0 234.5 71.5 313.5 71.5 35.75 0 63.24-11.302 84.462-26.506 35.988-56.282 61.302-120.052 73.024-188.474-7.196-11.61-29.17-45.52-52.668-67.422-13.832-2.008-26.538-3.238-29.818-1.598-8 4-17 8-23 25.73s-36 30.27-52 43.27-15 44-29.732 47-17.268-10-34.692-22c-19.58 0-42.426-28.852-60.692-47.812zM353.334 696c-23.12 6.574-34.834-2.5-42.666-20-14.478-32.344-89.184-110.922-105.334-110-23.334 1.334-29-11.666-41.334-1.456-9.336 7.73-84.268 62.508-106.624 69.928-10.626 3.528-32.246 6.634-40.64 7.652 13.656 52.11 35.39 100.914 63.662 145.148 14.734 2.642 32.816 4.094 55.604 3.392C222.666 788 423 746 423 746c-19.882-21.11-34.5-60-69.666-50z" fill="#926E79" /><path d="M195.704 672c-21.202 0-72.796 64-118.734 64H51.686C134.768 906.478 309.592 1024 512 1024c215.102 0 399.052-132.718 474.824-320.686C955.854 696.56 942.02 640 925.074 640c-14.842 0-99.652 64-118.736 64-29.684 0-35.338-48-67.848-48s-31.804 80-67.848 80c-27.564 0-22.616-16-50.884-16-11.262 0-16.964 16-33.92 16h-101.78c-24.03 0-51.592-32-67.848-32-17.492 0-43.82 32-84.81 32-87.638 0-101.772-64-135.696-64z" fill="#86646A" /><path d="M512 1024c210.68 0 391.568-127.288 470.142-309.12C959.5 710 943.5 698.5 934.5 680c-6.078-12.492-22.066-7.73-25.5-4.28-21.5 21.6-58.73 92.212-79.732 92.212-10.768 0-66.838-74.97-75.268-75.934-17.5-2-27 33-66 47-16.33 5.862-23 26.868-42 28.934-19 2.068-49-6.932-68 8.068s-101.92 63.592-122.658 58.304c-18.842-4.804-14.166-32.396-16.342-43.462-4-20.342-13-47.342-28-37.842-10.982 6.956-41.334 0.438-58.334 3s-68 54.666-96.666 44c-12.748-4.744-38-75-50-76s-16.542 2.152-25 6c-20.856 9.49-75.714 29.27-109.946 42.15C160.164 922.862 324.232 1024 512 1024z" fill="#745154" /><path d="M512 500.398m-75.064 0a75.064 75.064 0 1 0 150.128 0 75.064 75.064 0 1 0-150.128 0Z" fill="#FFFFFF" /><path d="M305.528 333.462h126.238c0-44.182-35.818-80-80-80-23.204 0-43.922 10.034-58.534 25.814-4.334-1.076-8.798-1.814-13.466-1.814-19.058 0-35.84 9.564-45.956 24.108-10.518-5.122-22.264-8.108-34.756-8.108-27.222 0-51.192 13.658-65.642 34.43-4.562-1.438-9.322-2.43-14.358-2.43-26.51 0-48 21.49-48 48h256c0-16.718-8.566-31.404-21.526-40zM891.268 320c-23.204 0-43.922 10.034-58.534 25.814-4.334-1.076-8.798-1.814-13.466-1.814-21.442 0-39.846 12.186-49.256 29.884-6.488-6.186-15.226-10.04-24.898-10.04-10.486 0-19.848 4.536-26.452 11.666-1.958-0.486-3.976-0.82-6.086-0.82-13.976 0-25.308 11.33-25.308 25.308h284c0-44.18-35.818-79.998-80-79.998z" fill="#FFFFFF" /><path d="M544.5 300.384c0-18.14 14.706-32.846 32.846-32.846 2.738 0 5.356 0.434 7.898 1.064 8.57-9.256 20.724-15.142 34.332-15.142 25.914 0 46.924 21.008 46.924 46.924h-122z" fill="#FFFFFF" /><path d="M512 1024c129.814 0 248.078-48.566 338.27-128.214C732.376 893.462 648.188 800 602.176 800c-75.476 0-174.34 109.334-216.422 112-42.082 2.666-103.702-65.334-144.28-48a2862.74 2862.74 0 0 0-69.138 30.616C262.7 974.982 381.532 1024 512 1024z" fill="#674447" /><path d="M427.5 114.666m-12 0a12 12 0 1 0 24 0 12 12 0 1 0-24 0Z" fill="#FFFFFF" /><path d="M526.598 78.666m-12 0a12 12 0 1 0 24 0 12 12 0 1 0-24 0Z" fill="#FFFFFF" /><path d="M629.064 144m-12 0a12 12 0 1 0 24 0 12 12 0 1 0-24 0Z" fill="#FFFFFF" /><path d="M750.666 216m-12 0a12 12 0 1 0 24 0 12 12 0 1 0-24 0Z" fill="#FFFFFF" /><path d="M524 204m-12 0a12 12 0 1 0 24 0 12 12 0 1 0-24 0Z" fill="#FFFFFF" /><path d="M738.666 132m-12 0a12 12 0 1 0 24 0 12 12 0 1 0-24 0Z" fill="#FFFFFF" /><path d="M323.38 102.666m-12 0a12 12 0 1 0 24 0 12 12 0 1 0-24 0Z" fill="#FFFFFF" /><path d="M439.5 228m-12 0a12 12 0 1 0 24 0 12 12 0 1 0-24 0Z" fill="#FFFFFF" /><path d="M231.868 192m-12 0a12 12 0 1 0 24 0 12 12 0 1 0-24 0Z" fill="#FFFFFF" /></svg>