<?xml version="1.0" encoding="utf-8"?>
<!-- Uploaded to: SVG Repo, www.svgrepo.com, Generator: SVG Repo Mixer Tools -->
<svg width="800px" height="800px" viewBox="0 0 1024 1024" class="icon"  version="1.1" xmlns="http://www.w3.org/2000/svg"><path d="M512 512m-512 0a512 512 0 1 0 1024 0 512 512 0 1 0-1024 0Z" fill="#BAFFEF" /><path d="M785.036 162.3c-4.18 0-8.128 0.822-11.914 2.016-11.992-17.238-31.882-28.57-54.472-28.57s-42.48 11.334-54.472 28.57c-3.786-1.194-7.736-2.016-11.914-2.016-21.998 0-39.832 17.834-39.832 39.832h212.436c0-21.998-17.834-39.832-39.832-39.832z" fill="#FFFFFF" /><path d="M608.712 613.23m-350.388 0a350.388 350.388 0 1 0 700.776 0 350.388 350.388 0 1 0-700.776 0Z" fill="#FFFFF4" /><path d="M608.712 613.23m-220.972 0a220.972 220.972 0 1 0 441.944 0 220.972 220.972 0 1 0-441.944 0Z" fill="#FFFFF4" /><path d="M608.712 613.23m-101.23 0a101.23 101.23 0 1 0 202.46 0 101.23 101.23 0 1 0-202.46 0Z" fill="#FFFFFF" /><path d="M1.188 478.784C0.484 489.776 0 500.83 0 512c0 74.42 16.01 145.06 44.562 208.862 138.072 15.456 324.892 13.36 368.342 8.982 51.612-5.2 192-27.91 214.71-38.232 22.71-10.322 10.094-80.516 10.094-80.516-195.9 0-292.758-191.522-636.52-132.312z" fill="#53DC92" /><path d="M637.706 611.096c-195.898 0-292.756-191.522-636.518-132.314-0.116 1.802-0.092 3.642-0.194 5.448 303.666-53.512 393.656 149.67 571.732 149.67 0 0 6.68 44.44 0.798 71 25.924-5.064 46.55-9.86 54.09-13.288 22.708-10.322 10.092-80.516 10.092-80.516z" fill="#74FF9E" /><path d="M1022.824 545.046c-331.828 0.316-457.566 132.114-725.534 132.114v111.484l457.822 174.04c150.974-81.61 256.186-236.882 267.712-417.638z" fill="#52C883" /><path d="M297.29 677.162v36.56c21.324 8.8 20.864 12.242 60.656 12.242 118.52 0 338.736-134.824 435.696-157.32-180.254 37.986-300.262 108.518-496.352 108.518z" fill="#6BEE97" /><path d="M14.344 632.268C68.464 856.984 270.67 1024 512 1024c18.9 0 37.538-1.1 55.908-3.096 26.096-71.562 61.77-211.614 61.77-211.614-132.13 0-275.612-181.678-613.162-181.678l-2.172 4.656z" fill="#34BE69" /><path d="M619.228 808.852c-129.36-9.054-274.034-181.238-602.712-181.238l-2.172 4.654c1.224 5.082 2.608 10.098 3.982 15.12 235.136 1.812 350.77 161.506 600.93 161.506l-0.028-0.042z" fill="#74FF9E" /><path d="M441.432 373.378c0-32.744-26.544-59.288-59.288-59.288-4.942 0-9.668 0.782-14.256 1.92-15.47-16.706-37.406-27.33-61.972-27.33-46.778 0-84.698 37.92-84.698 84.698h220.214zM832.812 373.378c0-18.27-14.81-33.08-33.08-33.08-2.758 0-5.394 0.436-7.954 1.072-8.632-9.322-20.87-15.25-34.578-15.25-26.1 0-47.258 21.158-47.258 47.258h122.87z" fill="#FFFFFF" /><path d="M512 1024c212.496 0 394.73-129.464 472.198-313.806h-9.746c-292.354 0-498.484 229.902-741.224 231.168C313.458 993.56 409.148 1024 512 1024z" fill="#43AB5F" /><path d="M605.236 358.08c-5.752 0-11.188 1.132-16.398 2.776-16.504-23.724-43.882-39.324-74.972-39.324s-58.468 15.598-74.972 39.324c-5.21-1.642-10.646-2.776-16.398-2.776-30.278 0-54.822 24.544-54.822 54.822H660.06c-0.002-30.276-24.548-54.822-54.824-54.822zM991.506 332.336c-6.202-3.108-13.104-5.022-20.514-5.022-4.834 0-9.402 0.95-13.78 2.332-13.866-19.936-36.87-33.042-62.994-33.042-26.124 0-49.13 13.106-62.996 33.042-4.378-1.382-8.946-2.332-13.778-2.332-25.442 0-46.064 20.622-46.064 46.064h233.474c-3.91-13.922-8.32-27.626-13.348-41.042z" fill="#FFFFFF" /><path d="M104.49 202.132h222.052c0-48.004-38.914-86.918-86.918-86.918-7.244 0-14.172 1.148-20.9 2.818-4.814-5.198-10.166-9.852-15.786-14.174a514.808 514.808 0 0 0-98.448 98.274zM406.51 202.132c0-31.926 25.882-57.806 57.806-57.806 4.818 0 9.426 0.762 13.9 1.872 15.084-16.29 36.47-26.648 60.422-26.648 45.608 0 82.58 36.972 82.58 82.58H406.51z" fill="#FFFFFF" /><path d="M495.484 231.226c0-31.926 25.882-57.806 57.806-57.806 4.818 0 9.426 0.762 13.9 1.872 15.084-16.29 36.47-26.648 60.422-26.648 45.608 0 82.58 36.972 82.58 82.58H495.484z" fill="#FFFFFF" /><path d="M145.104 481.444a5.544 5.544 0 0 1-5.548-5.544v-59.716a5.544 5.544 0 0 1 5.548-5.544 5.544 5.544 0 0 1 5.548 5.544v59.716a5.546 5.546 0 0 1-5.548 5.544z" fill="#53DC92" /><path d="M179.226 411.918c0 18.846-15.278 34.124-34.124 34.124s-34.124-15.278-34.124-34.124c0-18.846 15.278-76.778 34.124-76.778s34.124 57.932 34.124 76.778z" fill="#53DC92" /><path d="M824.87 588.928a8.924 8.924 0 0 1-8.928-8.92v-96.084a8.922 8.922 0 0 1 8.928-8.92 8.924 8.924 0 0 1 8.928 8.92v96.084a8.924 8.924 0 0 1-8.928 8.92z" fill="#52C883" /><path d="M879.772 477.062c0 30.322-24.582 54.904-54.904 54.904-30.322 0-54.904-24.582-54.904-54.904 0-30.322 24.582-123.536 54.904-123.536 30.322 0 54.904 93.212 54.904 123.536zM932.622 578.58a5.59 5.59 0 0 1-5.594-5.588v-60.198c0-3.086 2.502-5.588 5.594-5.588s5.594 2.502 5.594 5.588v60.198a5.592 5.592 0 0 1-5.594 5.588z" fill="#52C883" /><path d="M967.018 508.494c0 18.998-15.4 34.398-34.398 34.398s-34.398-15.4-34.398-34.398c0-18.998 15.4-77.396 34.398-77.396s34.398 58.398 34.398 77.396z" fill="#52C883" /><path d="M375.244 696.092a5.726 5.726 0 0 1-5.728-5.724v-61.652a5.726 5.726 0 0 1 11.456 0v61.652a5.726 5.726 0 0 1-5.728 5.724z" fill="#6BEE97" /><path d="M410.472 624.314c0 19.456-15.772 35.23-35.23 35.23-19.456 0-35.23-15.772-35.23-35.23 0-19.456 15.772-79.266 35.23-79.266 19.456-0.002 35.23 59.808 35.23 79.266z" fill="#6BEE97" /><path d="M210.548 485.862a3.444 3.444 0 0 1-3.446-3.442v-37.084c0-1.902 1.542-3.442 3.446-3.442 1.904 0 3.446 1.542 3.446 3.442v37.084c0 1.902-1.542 3.442-3.446 3.442z" fill="#74FF9E" /><path d="M231.738 442.688c0 11.704-9.488 21.19-21.19 21.19s-21.19-9.488-21.19-21.19c0-11.704 9.488-47.678 21.19-47.678s21.19 35.976 21.19 47.678z" fill="#74FF9E" /></svg>