<?xml version="1.0" encoding="utf-8"?>
<!-- Uploaded to: SVG Repo, www.svgrepo.com, Generator: SVG Repo Mixer Tools -->
<svg width="800px" height="800px" viewBox="0 0 1024 1024" class="icon"  version="1.1" xmlns="http://www.w3.org/2000/svg"><path d="M512 512m-512 0a512 512 0 1 0 1024 0 512 512 0 1 0-1024 0Z" fill="#FFF9BB" /><path d="M1018.566 586.316C958.666 573.334 892.012 466.692 848 488c-45.442 22-85.236 57.454-106.364 57.454-35.558 0-294.97-136.454-336.304-140.454-32.444-3.14-197.576 115-229.116 115-21.36 0-74.884-18.666-92.216-18.666-18.162 0-46.666 28-83.446 32.572 2.496 59.242 15.098 115.838 36.062 168.206 94.986 18.798 258.678 49.272 300.756 47.858C396 748 660 802 820 768a8088.58 8088.58 0 0 0 153.614-34.256c22.026-45.768 37.374-95.338 44.952-147.428z" fill="#FFEA96" /><path d="M875.96 658.05c-1.464 0-2.846 0.288-4.172 0.706-4.2-6.036-11.166-10.006-19.078-10.006-3.684 0-7.128 0.932-10.218 2.462-5.014-4.602-11.658-7.448-19.004-7.448-9.608 0-18.068 4.82-23.168 12.152-1.61-0.508-3.29-0.858-5.068-0.858-0.358 0-0.692 0.084-1.046 0.106-4.16-3.94-9.714-6.414-15.896-6.414-7.912 0-14.878 3.968-19.078 10.006-1.326-0.418-2.71-0.706-4.172-0.706a13.95 13.95 0 0 0-13.95 13.95h148.8a13.948 13.948 0 0 0-13.95-13.95z" fill="#D6EB76" /><path d="M130.584 603h244V672h-244z" fill="#D6C8A9" /><path d="M130.584 623.334h128.72v30.952h-128.72z" fill="#63A0B5" /><path d="M720 672s-48-168.422-48-320h-176c0 151.578-48 320-48 320" fill="#FFFCE5" /><path d="M448 672h91.784C548.62 616.614 560 399.79 560 352h-64c0 151.58-48 320-48 320z" fill="#E9DCB3" /><path d="M584 512c-13.234 0-24-10.766-24-24s10.766-24 24-24 24 10.766 24 24-10.766 24-24 24zM494.198 405h179.604a901.29 901.29 0 0 1-1.244-24H495.44a892.93 892.93 0 0 1-1.242 24z" fill="#FF8562" /><path d="M25.64 672C92.844 876.382 285.126 1024 512 1024s419.156-147.618 486.36-352H25.64z" fill="#D8C34A" /><path d="M496 672s-48-168.422-48-320h-176c0 151.578-48 320-48 320" fill="#FFFFFF" /><path d="M224 672h91.784C324.62 616.614 336 399.79 336 352h-64c0 151.58-48 320-48 320z" fill="#E9DCB3" /><path d="M360 512c-13.234 0-24-10.766-24-24s10.766-24 24-24 24 10.766 24 24-10.766 24-24 24zM270.198 405h179.604a901.29 901.29 0 0 1-1.244-24H271.44a892.93 892.93 0 0 1-1.242 24z" fill="#FF8562" /><path d="M524 603h244V672H524z" fill="#D6C8A9" /><path d="M541.334 623.334H768v30.952H541.334z" fill="#63A0B5" /><path d="M798.448 650.742c-2.23 0-4.338 0.438-6.358 1.076-6.4-9.2-17.016-15.248-29.07-15.248s-22.67 6.048-29.07 15.248c-2.02-0.638-4.128-1.076-6.358-1.076-11.74 0-21.258 9.518-21.258 21.258h113.372c0-11.74-9.518-21.258-21.258-21.258z" fill="#69BE5D" /><path d="M968.686 659.31c-1.332 0-2.59 0.262-3.796 0.642-3.82-5.492-10.158-9.102-17.354-9.102s-13.534 3.61-17.354 9.102c-1.206-0.38-2.464-0.642-3.796-0.642a12.69 12.69 0 0 0-12.69 12.69h67.682a12.694 12.694 0 0 0-12.692-12.69zM110.892 657.392c-1.532 0-2.982 0.302-4.37 0.74-4.398-6.322-11.692-10.478-19.978-10.478s-15.58 4.156-19.978 10.478c-1.388-0.438-2.836-0.74-4.37-0.74A14.608 14.608 0 0 0 47.588 672H125.5a14.608 14.608 0 0 0-14.608-14.608z" fill="#D6EB76" /><path d="M316.114 650.742c-2.23 0-4.338 0.44-6.358 1.076-6.4-9.2-17.014-15.248-29.07-15.248-5.616 0-10.862 1.42-15.572 3.752-7.642-7.014-17.766-11.35-28.958-11.35-14.64 0-27.534 7.346-35.304 18.518-2.454-0.774-5.014-1.306-7.722-1.306-0.546 0-1.056 0.126-1.592 0.16-6.338-6.004-14.802-9.772-24.222-9.772-12.056 0-22.67 6.048-29.07 15.248-2.02-0.636-4.128-1.076-6.358-1.076-11.74 0-21.258 9.518-21.258 21.258H337.372c0-11.742-9.518-21.26-21.258-21.26z" fill="#69BE5D" /><path d="M149.754 873.67C242.396 966.524 370.458 1024 512 1024c122.354 0 234.42-43.206 322.458-114.824-177.912-21.124-442.688-49.132-684.704-35.506z" fill="#D0B459" /><path d="M926.94 811.704c30.516-42.202 54.814-89.2 71.42-139.704H25.64c18.796 57.164 47.668 109.646 84.054 155.94 444.972-69.274 634.494-47.032 817.246-16.236z" fill="#D0D75B" /><path d="M50.422 733.21C336 686 712 702.848 970.898 738.44c10.584-21.38 19.916-43.492 27.462-66.44H25.64a497.61 497.61 0 0 0 24.782 61.21z" fill="#D6EB76" /><path d="M482.666 973.704m-13.334 0a13.334 13.334 0 1 0 26.668 0 13.334 13.334 0 1 0-26.668 0Z" fill="#D8C34A" /><path d="M310.096 927.9m-13.334 0a13.334 13.334 0 1 0 26.668 0 13.334 13.334 0 1 0-26.668 0Z" fill="#D8C34A" /><path d="M366.774 834.666m-13.334 0a13.334 13.334 0 1 0 26.668 0 13.334 13.334 0 1 0-26.668 0Z" fill="#D0D75B" /><path d="M184.774 768m-8.558 0a8.558 8.558 0 1 0 17.116 0 8.558 8.558 0 1 0-17.116 0Z" fill="#D6EB76" /><path d="M264.774 746.998m-8.558 0a8.558 8.558 0 1 0 17.116 0 8.558 8.558 0 1 0-17.116 0Z" fill="#D8C34A" /><path d="M388.666 768m-8.558 0a8.558 8.558 0 1 0 17.116 0 8.558 8.558 0 1 0-17.116 0Z" fill="#D6EB76" /><path d="M500.664 734.666m-8.558 0a8.558 8.558 0 1 0 17.116 0 8.558 8.558 0 1 0-17.116 0Z" fill="#D8C34A" /><path d="M613.892 759.442m-8.558 0a8.558 8.558 0 1 0 17.116 0 8.558 8.558 0 1 0-17.116 0Z" fill="#D8C34A" /><path d="M728.558 743.226m-8.558 0a8.558 8.558 0 1 0 17.116 0 8.558 8.558 0 1 0-17.116 0Z" fill="#D6EB76" /><path d="M848 768m-8.558 0a8.558 8.558 0 1 0 17.116 0 8.558 8.558 0 1 0-17.116 0Z" fill="#D8C34A" /><path d="M482.666 827.94m-13.334 0a13.334 13.334 0 1 0 26.668 0 13.334 13.334 0 1 0-26.668 0Z" fill="#D0B459" /><path d="M749.686 870.074m-13.334 0a13.334 13.334 0 1 0 26.668 0 13.334 13.334 0 1 0-26.668 0Z" fill="#D0D75B" /><path d="M592 848m-13.334 0a13.334 13.334 0 1 0 26.668 0 13.334 13.334 0 1 0-26.668 0Z" fill="#D0D75B" /><path d="M673.802 834.666m-13.334 0a13.334 13.334 0 1 0 26.668 0 13.334 13.334 0 1 0-26.668 0Z" fill="#D0B459" /><path d="M405.334 920.37m-13.334 0a13.334 13.334 0 1 0 26.668 0 13.334 13.334 0 1 0-26.668 0Z" fill="#D0D75B" /><path d="M597.334 947.038m-13.334 0a13.334 13.334 0 1 0 26.668 0 13.334 13.334 0 1 0-26.668 0Z" fill="#D0D75B" /><path d="M805.574 264.096c-4.39 0-8.538 0.864-12.516 2.118-12.596-18.106-33.49-30.012-57.22-30.012-23.728 0-44.624 11.904-57.22 30.012-3.976-1.254-8.126-2.118-12.516-2.118-23.108 0-41.84 18.732-41.84 41.84h223.15c0.002-23.108-18.73-41.84-41.838-41.84z" fill="#FFEB97" /><path d="M857.844 388.998c-2.4 0-4.67 0.472-6.844 1.158-6.888-9.902-18.316-16.414-31.294-16.414s-24.404 6.51-31.294 16.414c-2.174-0.686-4.444-1.158-6.844-1.158-12.638 0-22.882 10.244-22.882 22.882h122.042c-0.002-12.638-10.246-22.882-22.884-22.882z" fill="#FFF1A9" /><path d="M472.398 225.84c-2.916 0-5.674 0.574-8.316 1.408-8.37-12.03-22.252-19.94-38.018-19.94s-29.648 7.91-38.018 19.94c-2.642-0.834-5.398-1.408-8.316-1.408-15.354 0-27.8 12.446-27.8 27.8h148.266c0.002-15.352-12.444-27.8-27.798-27.8z" fill="#FFEB97" /><path d="M646 174.772c0-18.17-14.73-32.9-32.9-32.9-2.742 0-5.364 0.434-7.912 1.066-8.584-9.27-20.758-15.166-34.388-15.166-25.958 0-47 21.042-47 47H646zM221.628 373.346c0-16.504-13.38-29.884-29.884-29.884-2.492 0-4.872 0.394-7.186 0.968-7.798-8.422-18.854-13.776-31.236-13.776-23.578 0-42.692 19.114-42.692 42.692h110.998z" fill="#FFF1A9" /><path d="M685.81 279.856c0-13.862-11.238-25.098-25.098-25.098-2.092 0-4.092 0.33-6.036 0.814-6.55-7.072-15.836-11.57-26.234-11.57-19.802 0-35.856 16.054-35.856 35.856h93.224z" fill="#FFEB97" /><path d="M555.5 146.772c0-18.17-14.73-32.9-32.9-32.9-2.742 0-5.364 0.434-7.912 1.066-8.584-9.27-20.758-15.166-34.388-15.166-25.958 0-47 21.042-47 47h122.2z" fill="#FFF1A9" /><path d="M380.108 235.342c0-21.676-17.572-39.25-39.25-39.25-3.272 0-6.4 0.518-9.438 1.272-10.242-11.06-24.762-18.092-41.026-18.092-30.966 0-56.07 25.104-56.07 56.07h145.784z" fill="#FFEB97" /></svg>