<?xml version="1.0" encoding="utf-8"?>
<!-- Uploaded to: SVG Repo, www.svgrepo.com, Generator: SVG Repo Mixer Tools -->
<svg width="800px" height="800px" viewBox="0 0 1024 1024" class="icon"  version="1.1" xmlns="http://www.w3.org/2000/svg"><path d="M512 512m-512 0a512 512 0 1 0 1024 0 512 512 0 1 0-1024 0Z" fill="#FFF9BB" /><path d="M550 660.024c-36 0-220-148.024-294-148.024S24 616.438 24 616.438l331.11 153.742 207.558-24.236-12.668-85.92z" fill="#FFEA96" /><path d="M576 448h-192v32h16v128c0 8.844 7.156 16 16 16s16-7.156 16-16v-128h32v128c0 8.844 7.156 16 16 16s16-7.156 16-16v-128h32v128c0 8.844 7.156 16 16 16s16-7.156 16-16v-128h16v-32zM193.328 448v32H208v128c0 8.844 7.156 16 16 16s16-7.156 16-16v-128h32v128c0 8.844 7.156 16 16 16s16-7.156 16-16v-128h14.672v-32H193.328z" fill="#B8AB90" /><path d="M194.14 675.146h371.194v-62.656a2 2 0 0 0-2-2H196.14a2 2 0 0 0-2 2v62.656z" fill="#B09B81" /><path d="M998.36 672a509.266 509.266 0 0 0 23.26-111.124c-37.592 6.798-55.03 53.406-95.454 31.124-25.046-13.806-106.678 80-174.166 80h246.36z" fill="#FFEA96" /><path d="M804.696 675.976c-63.312 6.658-123.612-0.53-186.696 2.524-17.41 0.842-31.79-3.098-43.292-10.126H174V742h795.4c9.948-19.742 18.366-40.342 25.738-61.438-64.438-3.94-125.814-11.384-190.442-4.586z" fill="#D0D75B" /><path d="M999.446 668.762H550v19.566h442.302c2.398-6.514 5.008-12.926 7.144-19.566z" fill="#D6EB76" /><path d="M817.538 669.946c0-8.56-6.832-41.946-11.154-41.946-0.388 0-0.8 0.35-1.222 0.846-0.082 0.098-0.164 0.186-0.246 0.3-0.42 0.574-0.85 1.324-1.288 2.284-0.012 0.026-0.022 0.036-0.034 0.06l0.002 0.008c-3.97 8.768-8.366 31.58-8.366 38.448 0 7.682 4.094 11.736 9.372 12.528-0.118 0.03-0.212 0.116-0.332 0.142 0.176 0.03 0.364 0.026 0.542 0.048v9.386h3.148v-9.536c5.378-0.71 9.578-4.782 9.578-12.568z" fill="#D0D75B" /><path d="M167.474 720.656H592V658a2 2 0 0 0-2-2H169.474a2 2 0 0 0-2 2v62.656z" fill="#938C82" /><path d="M768.806 736.994v-58.212c0-2.986-2.422-5.41-5.414-5.41s-5.414 2.422-5.414 5.41v58.212h10.828z" fill="#828240" /><path d="M801.772 660.94c0 29.456-17.184 44.242-38.384 44.242s-38.384-14.786-38.384-44.242c0-29.456 23.512-144.33 38.384-144.33s38.384 114.874 38.384 144.33z" fill="#69BE5D" /><path d="M763.39 516.61c-2.946 0-6.232 4.554-9.604 12.01 12.132 18.372 27.826 109.148 27.826 134.362 0 24.634-10.954 38.502-25.498 41.548 2.36 0.408 4.784 0.652 7.276 0.652 21.198 0 38.384-14.786 38.384-44.242s-23.514-144.33-38.384-144.33z" fill="#9DC85C" /><path d="M880.704 663.904c0-10.902-8.7-53.414-14.204-53.414-0.494 0-1.02 0.444-1.556 1.076-0.104 0.124-0.208 0.236-0.314 0.382-0.536 0.732-1.082 1.686-1.64 2.908-0.014 0.032-0.028 0.044-0.044 0.078l0.004 0.01c-5.054 11.166-10.654 40.214-10.654 48.96 0 9.782 5.214 14.944 11.934 15.952-0.15 0.038-0.27 0.148-0.422 0.18 0.224 0.038 0.462 0.032 0.69 0.062v11.952h4.008v-12.144c6.85-0.904 12.198-6.09 12.198-16.002zM957.704 663.904c0-10.902-8.7-53.414-14.204-53.414-0.494 0-1.02 0.444-1.556 1.076-0.104 0.124-0.208 0.236-0.314 0.382-0.536 0.732-1.082 1.686-1.64 2.908-0.014 0.032-0.028 0.044-0.044 0.078l0.004 0.01c-5.054 11.166-10.654 40.214-10.654 48.96 0 9.782 5.214 14.944 11.934 15.952-0.15 0.038-0.27 0.148-0.422 0.18 0.224 0.038 0.462 0.032 0.69 0.062v11.952h4.008v-12.144c6.85-0.904 12.198-6.09 12.198-16.002zM910.154 669.946c0-8.56-6.832-41.946-11.156-41.946-0.388 0-0.8 0.35-1.222 0.846-0.082 0.098-0.162 0.186-0.246 0.3-0.42 0.574-0.85 1.324-1.288 2.284-0.012 0.026-0.022 0.036-0.034 0.06l0.004 0.01c-3.972 8.766-8.368 31.578-8.368 38.446 0 7.682 4.094 11.736 9.372 12.528-0.118 0.03-0.212 0.116-0.332 0.142 0.176 0.03 0.364 0.026 0.542 0.048v9.386h3.148v-9.536c5.382-0.71 9.58-4.782 9.58-12.568z" fill="#D0D75B" /><path d="M965.81 669.946c0-8.56-6.832-41.946-11.154-41.946-0.388 0-0.8 0.35-1.222 0.846-0.082 0.098-0.162 0.186-0.246 0.3-0.42 0.574-0.85 1.324-1.288 2.284-0.012 0.026-0.022 0.036-0.034 0.06l0.002 0.008c-3.97 8.768-8.366 31.58-8.366 38.448 0 7.682 4.094 11.736 9.372 12.528-0.118 0.03-0.212 0.116-0.332 0.142 0.176 0.03 0.364 0.026 0.542 0.048v9.386h3.148v-9.536c5.378-0.71 9.578-4.782 9.578-12.568z" fill="#D0D75B" /><path d="M512 1024c202.432 0 377.382-117.506 460.476-288.008-81.846-0.334-754.876-11.87-965.436-139.632C47.28 838.97 257.98 1024 512 1024z" fill="#D0B459" /><path d="M553.624 261c0-30.928 25.072-56 56-56 4.668 0 9.13 0.738 13.466 1.814 14.612-15.78 35.332-25.814 58.534-25.814 44.182 0 80 35.818 80 80h-208z" fill="#FFEB97" /><path d="M670.9 286.92c0-20.042 16.248-36.288 36.288-36.288 3.024 0 5.916 0.478 8.726 1.176 9.468-10.226 22.894-16.728 37.93-16.728 28.63 0 51.84 23.21 51.84 51.84H670.9z" fill="#FFEB97" /><path d="M702.39 377c0-17.606 14.272-31.876 31.876-31.876 2.658 0 5.198 0.42 7.666 1.032 8.318-8.982 20.112-14.694 33.32-14.694 25.15 0 45.538 20.388 45.538 45.538h-118.4z" fill="#FFF1A9" /><path d="M938 482.666c0-20.312-16.466-36.78-36.78-36.78-3.066 0-5.996 0.484-8.844 1.192-9.598-10.364-23.204-16.954-38.444-16.954-29.018 0-52.542 23.524-52.542 52.542H938zM209.02 236.306c0-18.564 14.824-33.612 33.11-33.612 2.76 0 5.398 0.444 7.962 1.09 8.64-9.472 20.89-15.494 34.608-15.494 26.122 0 47.3 21.498 47.3 48.018h-122.98zM464 323.462c-5.036 0-9.796 0.992-14.358 2.43-14.45-20.772-38.42-34.43-65.642-34.43s-51.192 13.658-65.642 34.43c-4.562-1.438-9.322-2.43-14.358-2.43-26.51 0-48 21.49-48 48h256c0-26.51-21.49-48-48-48z" fill="#FFEB97" /><path d="M407.982 157.71h145.642c0-15.082-12.226-27.308-27.308-27.308-2.866 0-5.572 0.564-8.168 1.382-8.22-11.818-21.858-19.588-37.344-19.588-2.342 0-4.54 0.502-6.786 0.846-7-10.232-18.752-16.96-32.086-16.96-11.274 0-21.342 4.876-28.442 12.542-2.106-0.522-4.276-0.882-6.542-0.882-15.028 0-27.21 12.182-27.21 27.21h40.492c-7.376 4.892-12.248 13.25-12.248 22.758z" fill="#FFF1A9" /><path d="M691.882 732.382v-81.95c0-4.206-3.41-7.616-7.622-7.616s-7.622 3.41-7.622 7.616v81.95h15.244z" fill="#828240" /><path d="M738.292 625.316c0 41.47-24.192 62.284-54.036 62.284s-54.036-20.816-54.036-62.284c0-41.47 33.1-203.188 54.036-203.188s54.036 161.718 54.036 203.188z" fill="#69BE5D" /><path d="M684.258 422.126c-4.146 0-8.772 6.412-13.52 16.908 17.078 25.866 39.174 153.658 39.174 189.156 0 34.68-15.422 54.204-35.896 58.492a59.82 59.82 0 0 0 10.244 0.918c29.844 0 54.036-20.816 54.036-62.284s-33.104-203.19-54.038-203.19z" fill="#9DC85C" /><path d="M972.476 735.992c-81.846-0.334-754.876-11.87-965.436-139.632a509.68 509.68 0 0 0 10.044 46.66c260.47 166.188 628.77 197.704 868.666 218.466 34.74-37.144 64.204-79.28 86.726-125.494z" fill="#D8C34A" /><path d="M355.11 854.666m-13.334 0a13.334 13.334 0 1 0 26.668 0 13.334 13.334 0 1 0-26.668 0Z" fill="#D8C34A" /><path d="M476.424 958.666m-13.334 0a13.334 13.334 0 1 0 26.668 0 13.334 13.334 0 1 0-26.668 0Z" fill="#D8C34A" /><path d="M576 906.666m-13.334 0a13.334 13.334 0 1 0 26.668 0 13.334 13.334 0 1 0-26.668 0Z" fill="#D8C34A" /><path d="M291.11 901.334m-13.334 0a13.334 13.334 0 1 0 26.668 0 13.334 13.334 0 1 0-26.668 0Z" fill="#D0D75B" /><path d="M466.666 874.818m-13.334 0a13.334 13.334 0 1 0 26.668 0 13.334 13.334 0 1 0-26.668 0Z" fill="#D0D75B" /><path d="M643.554 950.666m-13.334 0a13.334 13.334 0 1 0 26.668 0 13.334 13.334 0 1 0-26.668 0Z" fill="#D0D75B" /><path d="M562.666 770.18m-8.95 0a8.95 8.95 0 1 0 17.9 0 8.95 8.95 0 1 0-17.9 0Z" fill="#D0B459" /><path d="M639.172 796.846m-8.95 0a8.95 8.95 0 1 0 17.9 0 8.95 8.95 0 1 0-17.9 0Z" fill="#D0D75B" /><path d="M725.006 792.464m-8.95 0a8.95 8.95 0 1 0 17.9 0 8.95 8.95 0 1 0-17.9 0Z" fill="#D0D75B" /><path d="M801.772 819.13m-8.95 0a8.95 8.95 0 1 0 17.9 0 8.95 8.95 0 1 0-17.9 0Z" fill="#D0B459" /><path d="M462.284 779.13m-8.95 0a8.95 8.95 0 1 0 17.9 0 8.95 8.95 0 1 0-17.9 0Z" fill="#D0D75B" /><path d="M318.672 736.994m-8.95 0a8.95 8.95 0 1 0 17.9 0 8.95 8.95 0 1 0-17.9 0Z" fill="#D0B459" /><path d="M193.328 796.846m-13.334 0a13.334 13.334 0 1 0 26.668 0 13.334 13.334 0 1 0-26.668 0Z" fill="#D0D75B" /></svg>