<?xml version="1.0" encoding="utf-8"?>
<!-- Uploaded to: SVG Repo, www.svgrepo.com, Generator: SVG Repo Mixer Tools -->
<svg width="800px" height="800px" viewBox="0 0 1024 1024" class="icon"  version="1.1" xmlns="http://www.w3.org/2000/svg"><path d="M512 512m-512 0a512 512 0 1 0 1024 0 512 512 0 1 0-1024 0Z" fill="#9AF4EF" /><path d="M8.234 420.956C2.926 450.518 0 480.91 0 512s2.926 61.482 8.234 91.044c112.3 42.29 300.58 70.04 513.992 70.04 200.17 0 378.166-24.428 492.166-62.352C1020.638 578.776 1024 545.786 1024 512s-3.362-66.776-9.606-98.732c-114-37.924-291.996-62.354-492.166-62.354-213.414 0-401.692 27.752-513.994 70.042z" fill="#4CD3CB" /><path d="M903.182 181.814c-23.76 5.878-44.136 20.31-57.722 39.84-5.666-1.786-11.58-3.018-17.834-3.018-32.93 0-59.626 26.694-59.626 59.626h199.486a512.668 512.668 0 0 0-64.304-96.448z" fill="#FFFFFF" /><path d="M878.698 869.152c80.778-82.924 133.6-193.104 143.47-315.472l-19.158-28.738h20.664c0.106-4.316 0.326-8.602 0.326-12.942 0-12.288-0.586-24.432-1.438-36.502L968 393.656l-87.524 131.286h52.514l-70.02 105.03h52.514l-70.02 105.03h52.514l-70.02 105.03h52.514l-18.976 28.464c5.748 0.148 11.46 0.462 17.202 0.656zM118.02 735h52.514l-70.02-105.03h52.514l-70.02-105.03h52.514L48 393.656 2.468 461.952A518.006 518.006 0 0 0 0 512c0 4.34 0.22 8.626 0.328 12.942h12.664l-11.978 17.966C8.74 672.552 64.64 789.206 151.142 875.164l7.916 0.166-23.534-35.3h52.514L118.02 735zM324.342 778.422l-18.976 28.464c48.688 1.26 97.368 4.392 144.878 5.298 24.084 0.46 48.352 1.02 72.68 1.536l-23.534-35.3h52.514l-70.02-105.03H534.4l-70.02-105.03h52.514l-70.02-105.03h52.514l-87.524-131.286-87.524 131.286h52.514l-70.02 105.03h52.514l-70.02 105.03h52.514l-70.02 105.03 52.52 0.002z" fill="#00BDB3" /><path d="M519.008 778.422l-18.976 28.464c48.688 1.26 97.368 4.392 144.878 5.298 24.084 0.46 48.352 1.02 72.68 1.536l-23.534-35.3h52.514l-70.02-105.03h52.514l-70.02-105.03h52.514l-70.02-105.03h52.514l-87.524-131.286-87.524 131.286h52.514l-70.02 105.03h52.514l-70.02 105.03h52.514l-70.02 105.03 52.522 0.002z" fill="#00BDB3" /><path d="M867.742 464l-268.218-36.714L304 445.644l-85.334-16.094-118.994 61.736L170.534 735h531.998L867.742 528z" fill="#00BDB3" /><path d="M696.476 806.376l-18.976 28.464c48.688 1.26 97.368 4.392 144.878 5.298 24.084 0.46 48.352 1.02 72.68 1.536l-23.534-35.3h52.514l-70.02-105.03h52.514l-70.02-105.03h52.514l-70.02-105.03h52.514L784 360l-87.524 131.286h52.514l-70.02 105.03h52.514l-70.02 105.03h52.514l-70.02 105.03h52.518zM131.142 806.376l-18.976 28.464c48.688 1.26 97.368 4.392 144.878 5.298 24.084 0.46 48.352 1.02 72.68 1.536l-23.534-35.3h52.514l-70.02-105.03H341.2l-70.02-105.03h52.514l-70.02-105.03h52.514L218.666 360l-87.524 131.286h52.514l-70.02 105.03h52.514l-70.02 105.03h52.514l-70.02 105.03h52.518z" fill="#00BDB3" /><path d="M976.58 727.186l-17.228-25.84h28.334a508.9 508.9 0 0 0 8.634-23.318l-54.474-81.712h52.514l-70.02-105.03h52.514L889.332 360l-87.524 131.286h52.514l-70.02 105.03h52.514l-70.02 105.03h52.514l-70.02 105.03h52.514l-70.02 105.03h52.514l-36.776 55.166c100.394-52.126 181.302-136.46 229.058-239.386zM47.436 727.186l17.228-25.84H36.328a508.9 508.9 0 0 1-8.634-23.318l54.474-81.712H29.652l70.02-105.03H47.158L134.682 360l87.524 131.286H169.692l70.02 105.03H187.196l70.02 105.03h-52.514l70.02 105.03h-52.514l70.02 105.03h-52.514l36.776 55.166c-100.392-52.126-181.298-136.46-229.054-239.386z" fill="#00A07D" /><path d="M832.738 910.966l-23.71-35.564 52.514 0.002-70.02-105.03h52.514l-70.02-105.03h52.514l-70.02-105.03h52.514l-70.02-105.03h52.514L704 324l-87.524 131.286h52.514l-70.02 105.03h52.514l-70.02 105.03h52.514l-70.02 105.03h52.514l-70.02 105.03h52.514l-70.02 105.03h52.514l-27.826 41.738c105.244-8.482 201.468-48.714 279.104-111.208zM191.126 910.966l23.71-35.564-52.514 0.002 70.02-105.03H179.828l70.02-105.03H197.332l70.02-105.03h-52.514l70.02-105.03h-52.514L319.866 324l87.524 131.286h-52.514l70.02 105.03H372.38l70.02 105.03h-52.514l70.02 105.03h-52.514l70.02 105.03h-52.514l70.02 105.03H442.4l27.826 41.738c-105.24-8.482-201.464-48.714-279.1-111.208z" fill="#36B294" /><path d="M447.906 212.324c0-29.152 23.632-52.784 52.784-52.784 4.4 0 8.606 0.696 12.692 1.71 13.774-14.874 33.302-24.332 55.172-24.332 41.646 0 75.406 33.76 75.406 75.406h-196.054z" fill="#FFFFFF" /><path d="M574.532 296.704c0-19.032 15.43-34.462 34.462-34.462 2.872 0 5.618 0.454 8.286 1.116 8.992-9.71 21.742-15.886 36.022-15.886 27.19 0 49.23 22.042 49.23 49.23h-128zM715 156.262c0-19.548-15.846-35.394-35.394-35.394-2.95 0-5.772 0.466-8.512 1.146-9.236-9.974-22.332-16.316-36.996-16.316-27.926 0-50.564 22.638-50.564 50.564H715z" fill="#FFFFFF" /><path d="M474.226 199.474c-5.036 0-9.796 0.992-14.358 2.43-14.45-20.772-38.42-34.43-65.642-34.43s-51.192 13.658-65.642 34.43c-4.562-1.438-9.322-2.43-14.358-2.43-26.51 0-48 21.49-48 48h256c0-26.51-21.49-48-48-48z" fill="#FFFFFF" /><path d="M398.496 112.796c-2.776 0-5.398 0.546-7.912 1.34-7.964-11.448-21.174-18.974-36.176-18.974s-28.212 7.526-36.176 18.974c-2.514-0.792-5.138-1.34-7.912-1.34-14.61 0-26.454 11.844-26.454 26.454h141.084c0-14.61-11.844-26.454-26.454-26.454z" fill="#FFFFFF" /><path d="M617.028 847.402l52.514 0.002-70.02-105.03h52.514l-70.02-105.03h52.514l-70.02-105.03h52.514l-70.02-105.03h52.514L512 296l-87.524 131.286h52.514l-70.02 105.03h52.514l-70.02 105.03h52.514l-70.02 105.03h52.514l-70.02 105.03h52.514l-70.02 105.03h52.514l-31.878 47.816C406.318 1015.648 458.178 1024 512 1024s105.682-8.352 154.412-23.75l-31.878-47.82h52.514l-70.02-105.028z" fill="#00A07D" /><path d="M208 278.262c0-26.51-21.49-48-48-48-5.036 0-9.796 0.992-14.358 2.43-9.916-14.254-24.376-25.02-41.23-30.46-18.108 23.79-34.12 49.234-47.898 76.03H208z" fill="#FFFFFF" /></svg>