<?xml version="1.0" encoding="utf-8"?>
<!-- Uploaded to: SVG Repo, www.svgrepo.com, Generator: SVG Repo Mixer Tools -->
<svg width="800px" height="800px" viewBox="0 0 1024 1024" class="icon"  version="1.1" xmlns="http://www.w3.org/2000/svg"><path d="M512 512m-512 0a512 512 0 1 0 1024 0 512 512 0 1 0-1024 0Z" fill="#8282DF" /><path d="M512 288.03c-230.702 0-417.72 187.02-417.72 417.722 0 45.086 7.23 88.462 20.446 129.142C208.606 950.258 351.668 1024 512 1024s303.394-73.742 397.274-189.108a417.168 417.168 0 0 0 20.448-129.142c-0.002-230.7-187.02-417.72-417.722-417.72z" fill="#9DA6ED" /><path d="M512 705.75m-193.75 0a193.75 193.75 0 1 0 387.5 0 193.75 193.75 0 1 0-387.5 0Z" fill="#9DA6ED" /><path d="M61.528 268.636l7.676 33.104 229.334 81.184 14.336-24.872-4.186-17.486a103.738 103.738 0 0 0 5.914-34.64c0-38.84-21.348-72.646-52.916-90.474 0.57-4.406 0.964-8.866 0.964-13.428 0-42.824-26.05-79.332-63.046-95.234-56.55 43.6-103.804 98.666-138.076 161.846z" fill="#6464CB" /><path d="M314.602 357.878c-0.592 0-1.138 0.16-1.728 0.174-7.958-39.604-42.91-69.442-84.858-69.442-1.996 0-3.862 0.454-5.824 0.586-14.11-40.636-52.636-69.854-98.078-69.854-13.064 0-25.444 2.656-36.962 7.058C34.838 303.93 3.346 396.594 0.276 496.416h314.328c38.256 0 69.268-31.014 69.268-69.268 0-38.258-31.012-69.27-69.27-69.27zM939.608 231.108c-40.228 4.372-73.554 31.528-86.516 68.506-1.968-0.112-3.918-0.3-5.916-0.3-45.332 0-83.766 29.148-97.842 69.686-1.948-0.164-3.82-0.584-5.81-0.584-38.164 0-69.102 30.938-69.102 69.102-19.082 0-34.55 15.468-34.55 34.55 0 19.082 15.468 34.55 34.55 34.55h349.302c-1.134-101.718-31.902-196.278-84.116-275.51z" fill="#5A5AB7" /><path d="M398.3 13.214a90.196 90.196 0 0 0-10.16 41.604c0 50.072 40.592 90.666 90.666 90.666 0.852 0 1.642-0.226 2.486-0.25 8 31.358 36.194 54.65 70.046 54.65 0 40.058 32.474 72.532 72.532 72.532 27.694 0 51.472-15.7 63.692-38.516 17.834 12.78 39.626 20.382 63.24 20.382 60.088 0 108.798-48.71 108.798-108.798 0-3.248-0.536-6.35-0.814-9.526C767.558 51.844 645.74 0.416 511.872 0.416c-39.052 0-77.026 4.516-113.572 12.798z" fill="#6464CB" /><path d="M37.36 704C113.33 891.604 297.152 1024 512 1024s398.672-132.396 474.64-320H37.36z" fill="#5F5FAD" /><path d="M512 757.334c-155.93 0-301.374 14.82-424.546 40.38C179.402 934.134 335.104 1024 512 1024c176.894 0 332.598-89.864 424.546-226.286-123.172-25.56-268.616-40.38-424.546-40.38z" fill="#6464CB" /><path d="M512 969.044c145.412 0 263.292-117.882 263.292-263.292H248.708c0 145.41 117.88 263.292 263.292 263.292z" fill="#9DA6ED" /><path d="M512 768c-8.844 0-16-7.164-16-16V272c0-8.836 7.156-16 16-16s16 7.164 16 16v480c0 8.836-7.156 16-16 16zM448 632c-4.422 0-8-3.578-8-8V384c0-4.422 3.578-8 8-8s8 3.578 8 8v240c0 4.422-3.578 8-8 8zM384 632c-4.422 0-8-3.578-8-8v-188.868c0-4.422 3.578-8 8-8s8 3.578 8 8V624c0 4.422-3.578 8-8 8zM320 632c-4.422 0-8-3.578-8-8v-139.828c0-4.422 3.578-8 8-8s8 3.578 8 8V624c0 4.422-3.578 8-8 8zM256 632c-4.422 0-8-3.578-8-8v-96c0-4.422 3.578-8 8-8s8 3.578 8 8v96c0 4.422-3.578 8-8 8zM192 632c-4.422 0-8-3.578-8-8v-59.164c0-4.422 3.578-8 8-8s8 3.578 8 8V624c0 4.422-3.578 8-8 8zM576 632c-4.422 0-8-3.578-8-8V384c0-4.422 3.578-8 8-8s8 3.578 8 8v240c0 4.422-3.578 8-8 8zM640 632c-4.422 0-8-3.578-8-8v-188.868c0-4.422 3.578-8 8-8s8 3.578 8 8V624c0 4.422-3.578 8-8 8zM704 632c-4.422 0-8-3.578-8-8v-139.828c0-4.422 3.578-8 8-8s8 3.578 8 8V624c0 4.422-3.578 8-8 8zM768 632c-4.422 0-8-3.578-8-8v-96c0-4.422 3.578-8 8-8s8 3.578 8 8v96c0 4.422-3.578 8-8 8zM832 632c-4.422 0-8-3.578-8-8v-59.164c0-4.422 3.578-8 8-8s8 3.578 8 8V624c0 4.422-3.578 8-8 8z" fill="#5A5A84" /><path d="M992 632c-99.156 0-382.344-176.562-486.532-323.368a8.006 8.006 0 0 1 1.906-11.156 7.998 7.998 0 0 1 11.156 1.89C627.734 453.242 905 616 992 616c4.422 0 8 3.578 8 8s-3.578 8-8 8z" fill="#5A5A84" /><path d="M32 632c-4.422 0-8-3.578-8-8s3.578-8 8-8c87 0 364.266-162.758 473.468-316.632a8.006 8.006 0 1 1 13.062 9.266C414.344 455.438 131.156 632 32 632z" fill="#5A5A84" /><path d="M16.13 640h991.738c2.708-10.524 4.966-21.224 7.012-32H9.12c2.044 10.776 4.302 21.476 7.01 32z" fill="#6574A7" /><path d="M22.378 662H1001.62c3.218-10.514 6.012-21.208 8.558-32H13.822c2.546 10.792 5.34 21.486 8.556 32zM452 735.95h120V768h-120z" fill="#5A5A84" /><path d="M328 178.454m-10 0a10 10 0 1 0 20 0 10 10 0 1 0-20 0Z" fill="#FFFFFF" /><path d="M448 231.108m-10 0a10 10 0 1 0 20 0 10 10 0 1 0-20 0Z" fill="#FFFFFF" /><path d="M648 357.878m-10 0a10 10 0 1 0 20 0 10 10 0 1 0-20 0Z" fill="#FFFFFF" /><path d="M742 312m-10 0a10 10 0 1 0 20 0 10 10 0 1 0-20 0Z" fill="#FFFFFF" /><path d="M474 403m-10 0a10 10 0 1 0 20 0 10 10 0 1 0-20 0Z" fill="#FFFFFF" /><path d="M333.418 116.79m-10 0a10 10 0 1 0 20 0 10 10 0 1 0-20 0Z" fill="#9DA6ED" /><path d="M402 184m-10 0a10 10 0 1 0 20 0 10 10 0 1 0-20 0Z" fill="#9DA6ED" /><path d="M402 339.498m-10 0a10 10 0 1 0 20 0 10 10 0 1 0-20 0Z" fill="#9DA6ED" /><path d="M358 262.416m-10 0a10 10 0 1 0 20 0 10 10 0 1 0-20 0Z" fill="#9DA6ED" /><path d="M686 292m-10 0a10 10 0 1 0 20 0 10 10 0 1 0-20 0Z" fill="#9DA6ED" /><path d="M807 272.416m-10 0a10 10 0 1 0 20 0 10 10 0 1 0-20 0Z" fill="#9DA6ED" /><path d="M603 332m-10 0a10 10 0 1 0 20 0 10 10 0 1 0-20 0Z" fill="#9DA6ED" /></svg>