<?xml version="1.0" encoding="iso-8859-1"?>
<!-- Uploaded to: SVG Repo, www.svgrepo.com, Generator: SVG Repo Mixer Tools -->
<svg height="800px" width="800px" version="1.1" id="Layer_1" xmlns="http://www.w3.org/2000/svg" xmlns:xlink="http://www.w3.org/1999/xlink" 
	 viewBox="0 0 511.989 511.989" xml:space="preserve">
<path style="fill:#F6BB42;" d="M508.239,183.495c-2.656-2.234-6.172-3.047-9.531-2.156c-0.609,0.141-9.641,2.102-17.375-1.289
	c-3.797-1.664-8.062-1.109-11.172,1.625c-0.125,0.109-13.577,11.148-35.358,13.219c-12.718,1.203-25.874-0.836-39.108-6.055
	c-17.062-6.719-34.344-18.766-51.358-35.789c-2.172-2.164-5.141-3.289-8.203-3.101c-3.047,0.18-5.859,1.664-7.75,4.07
	l-45.046,57.593c-3.266,4.18-2.969,10.125,0.703,13.953c22.422,23.359,34.546,44.155,36.062,61.819
	c1.016,11.766-2.952,22.203-11.765,31.016l0,0c-9.609,9.609-21.531,13.921-21.609,13.952c-2.609,0.906-4.75,2.781-6,5.234
	c-2.219,4.359-5.312,8.547-9.227,12.453c-7.969,7.984-16.593,12.078-16.656,12.094c-4.672,2.156-7.156,7.358-5.875,12.343
	c1.281,5,5.953,8.359,11.093,7.984c83.429-5.953,148.662-31.905,193.896-77.154c51.983-51.983,57.765-110.216,57.983-112.669
	C512.255,189.16,510.911,185.738,508.239,183.495z"/>
<path style="opacity:0.2;fill:#FFFFFF;enable-background:new    ;" d="M498.708,181.339c-0.172,0.039-1.047,0.234-2.391,0.406
	c-2.234,14.555-12.781,63.819-57.452,108.482c-44.358,44.358-107.951,70.187-189.067,76.779c-1.141,2.25-1.484,4.891-0.828,7.469
	c1.281,5,5.953,8.359,11.093,7.984c83.429-5.953,148.662-31.905,193.896-77.154c51.983-51.983,57.765-110.216,57.983-112.669
	c0.312-3.477-1.031-6.898-3.703-9.141C505.583,181.261,502.067,180.449,498.708,181.339z"/>
<path style="fill:#F6BB42;" d="M319.336,0.045c-2.452,0.219-60.679,5.992-112.662,57.976
	c-45.25,45.242-71.202,110.475-77.155,193.896c-0.375,5.14,3,9.812,7.984,11.092c5,1.281,10.188-1.187,12.344-5.874
	c0.031-0.086,4.109-8.664,12.093-16.656c3.922-3.914,8.109-7.016,12.453-9.219c2.453-1.25,4.328-3.367,5.234-5.977
	c0.047-0.117,4.359-12.039,13.953-21.632c8.812-8.82,19.265-12.781,31.031-11.773c17.656,1.508,38.452,13.641,61.804,36.062
	c3.828,3.672,9.781,3.977,13.953,0.703l57.592-45.054c0.344-0.266,0.672-0.555,0.969-0.859c1.828-1.828,2.938-4.281,3.109-6.891
	c0.188-3.047-0.953-6.031-3.109-8.188c-17.03-17.03-29.062-34.312-35.796-51.366c-5.218-13.234-7.249-26.397-6.046-39.108
	c2.062-21.789,13.108-35.226,13.171-35.312c2.734-3.109,3.328-7.429,1.672-11.218c-3.391-7.742-1.438-16.758-1.297-17.375
	c0.906-3.359,0.094-6.867-2.156-9.531C326.242,1.069,322.82-0.267,319.336,0.045z"/>
<path style="opacity:0.2;fill:#FFFFFF;enable-background:new    ;" d="M144.972,262.188c6.594-81.115,32.421-144.715,76.78-189.082
	c44.671-44.663,93.929-55.218,108.49-57.444c0.172-1.336,0.359-2.211,0.391-2.391c0.906-3.359,0.094-6.867-2.156-9.531
	c-2.234-2.672-5.656-4.008-9.141-3.695c-2.452,0.219-60.679,5.992-112.662,57.976c-45.25,45.242-71.202,110.475-77.155,193.896
	c-0.375,5.14,3,9.812,7.984,11.092C140.097,263.673,142.722,263.321,144.972,262.188z"/>
<path style="fill:#965353;" d="M327.836,138.879L9.365,457.365c-12.484,12.469-12.484,32.765,0,45.249
	c6.046,6.047,14.078,9.375,22.625,9.375s16.578-3.328,22.625-9.375l318.471-318.478l0,0c6.047-6.047,9.375-14.078,9.375-22.625
	s-3.328-16.585-9.375-22.632C360.616,126.403,340.305,126.403,327.836,138.879z"/>
<path style="fill:#FFCE54;" d="M327.836,138.879L259.97,206.76l45.242,45.257l67.873-67.882l0,0l0,0
	c6.047-6.047,9.375-14.078,9.375-22.625s-3.328-16.585-9.375-22.632C360.616,126.403,340.305,126.403,327.836,138.879z"/>
<g>
	<polygon style="fill:#7F4545;" points="85.317,381.397 63.989,402.725 63.989,493.239 85.317,471.912 	"/>
	<polygon style="fill:#7F4545;" points="135.535,421.694 135.535,331.196 114.191,352.523 114.207,443.038 	"/>
	<polygon style="fill:#7F4545;" points="164.409,392.819 185.737,371.491 185.737,280.977 164.409,302.321 	"/>
</g>
</svg>