<?xml version="1.0" encoding="iso-8859-1"?>
<!-- Uploaded to: SVG Repo, www.svgrepo.com, Generator: SVG Repo Mixer Tools -->
<svg height="800px" width="800px" version="1.1" id="Layer_1" xmlns="http://www.w3.org/2000/svg" xmlns:xlink="http://www.w3.org/1999/xlink" 
	 viewBox="0 0 512 512" xml:space="preserve">
<path style="fill:#E6C275;" d="M367.798,455.754c0,26.509-55.118,47.997-123.108,47.997s-123.108-21.49-123.108-47.997V366.88
	h246.216v88.874H367.798z"/>
<path style="fill:#FFD782;" d="M367.798,366.879c0,26.509-55.118,47.997-123.108,47.997s-123.108-21.49-123.108-47.997v-88.874
	h246.216v88.874H367.798z"/>
<path style="fill:#E6C275;" d="M367.798,278.006c0,26.508-55.118,47.997-123.108,47.997s-123.108-21.49-123.108-47.997v-88.874
	h246.216v88.874H367.798z"/>
<ellipse style="fill:#FFD782;" cx="244.693" cy="189.127" rx="123.111" ry="47.997"/>
<polygon style="fill:#A5EB78;" points="390.42,62.673 308.546,8.249 308.546,41.526 125.684,41.526 125.684,83.821 308.546,83.821 
	308.546,117.097 "/>
<path d="M394.987,55.803L313.113,1.38c-2.535-1.684-5.789-1.837-8.464-0.4c-2.68,1.436-4.352,4.23-4.352,7.27v25.027H125.684
	c-4.557,0-8.249,3.693-8.249,8.249v42.296c0,4.556,3.692,8.249,8.249,8.249h174.613v25.026c0,3.04,1.673,5.834,4.352,7.27
	c1.22,0.654,2.559,0.979,3.897,0.979c1.596,0,3.188-0.463,4.567-1.379l81.874-54.424c2.3-1.529,3.682-4.108,3.682-6.87
	C398.669,59.911,397.287,57.332,394.987,55.803z M316.796,101.708V83.822c0-4.556-3.692-8.249-8.249-8.249H133.933V49.775h174.613
	c4.557,0,8.249-3.693,8.249-8.249V23.638l58.723,39.035L316.796,101.708z"/>
<path d="M244.689,132.885c-74.886,0-131.358,24.181-131.358,56.246v88.874v88.875v88.874c0,32.066,56.472,56.247,131.358,56.247
	c20.323,0,39.758-1.828,57.77-5.433c4.468-0.894,7.364-5.241,6.471-9.708c-0.894-4.466-5.242-7.366-9.708-6.47
	c-16.71,3.345-35.567,5.112-54.533,5.112c-31.883,0-61.735-4.792-84.055-13.495c-19.289-7.52-30.805-17.335-30.805-26.254v-60.737
	c0.055,0.042,0.113,0.084,0.168,0.125c12.519,9.598,27.629,15.257,42.729,19.337c14.704,3.974,29.839,6.298,45.005,7.56
	c30.653,2.55,62.292,1.183,92.292-5.893c17.362-4.096,35.055-10.001,49.354-21.004c0.055-0.042,0.114-0.083,0.168-0.125v60.737
	c0,8.557-10.78,18.077-28.835,25.466c-4.216,1.726-6.235,6.543-4.511,10.759c1.726,4.217,6.542,6.234,10.759,4.511
	c25.204-10.315,39.084-24.782,39.084-40.736v-88.874v-88.875v-88.874C376.046,157.066,319.574,132.885,244.689,132.885z
	 M197,241.748c15.176,2.409,31.223,3.631,47.69,3.631c31.043,0,62.951-3.389,91.866-15.307c8.132-3.352,16-7.464,23.006-12.813
	c-0.331,20.225-0.015,40.495-0.015,60.747c0,8.118-9.421,16.936-25.845,24.194c-17.591,7.773-41.484,12.984-67.742,14.819
	c-1.751,0.122-3.512,0.23-5.283,0.321c-4.549,0.236-8.046,4.116-7.81,8.666c0.135,2.617,1.639,5.01,3.814,6.431
	c2.65,1.731,5.531,1.355,8.53,1.165c17.477-1.104,34.962-3.547,51.882-8.135c9.327-2.529,18.521-5.717,27.207-9.976
	c5.272-2.585,10.406-5.551,15.049-9.162c0.065-0.049,0.133-0.098,0.198-0.147v60.699c0,8.919-11.516,18.733-30.805,26.253
	c-22.32,8.702-52.171,13.495-84.054,13.495s-61.735-4.792-84.055-13.495c-19.289-7.52-30.805-17.334-30.805-26.253v-60.705
	c0.062,0.047,0.128,0.095,0.19,0.142c0.504,0.387,1.016,0.771,1.541,1.152c0.051,0.037,0.1,0.075,0.152,0.112
	c10.327,7.478,22.373,12.404,34.495,16.13c11.586,3.561,23.515,5.993,35.516,7.653c7.886,1.091,33.879,8.973,34.625-5.363
	c0.24-4.549-3.256-8.432-7.805-8.67c-28.291-1.485-54.186-6.867-72.915-15.153c-16.394-7.254-25.797-16.064-25.797-24.172
	c0-9.801-0.829-60.057,0.001-60.567c-0.004-0.023-0.015-0.043-0.032-0.059c8.549,8.026,21.991,12.667,32.915,16.266
	c4.33,1.428,8.991-0.927,10.417-5.254c0.267-0.812,0.401-1.634,0.415-2.446c0.058-3.516-2.154-6.812-5.669-7.97
	c-16.134-5.314-28.067-12.199-33.95-19.254c-14.361-17.221,14.071-30.918,26.708-35.844c22.32-8.702,52.172-13.495,84.055-13.495
	s61.734,4.792,84.054,13.495c19.289,7.52,30.805,17.334,30.805,26.253c0,8.919-11.516,18.733-30.805,26.254
	c-22.32,8.702-52.171,13.495-84.054,13.495c-15.602,0-30.776-1.153-45.103-3.427c-4.507-0.719-8.727,2.355-9.44,6.853
	c-0.089,0.562-0.119,1.121-0.095,1.669C190.221,237.808,193.062,241.122,197,241.748z"/>
</svg>