<?xml version="1.0" encoding="iso-8859-1"?>
<!-- Uploaded to: SVG Repo, www.svgrepo.com, Generator: SVG Repo Mixer Tools -->
<svg height="800px" width="800px" version="1.1" id="Layer_1" xmlns="http://www.w3.org/2000/svg" xmlns:xlink="http://www.w3.org/1999/xlink" 
	 viewBox="0 0 512 512" xml:space="preserve">
<circle style="fill:#BCC987;" cx="256" cy="256" r="245.801"/>
<g>
	<path style="fill:#FFE6B8;" d="M256,411.538c-14.082,0-25.498-11.416-25.498-25.498V208.574c0-14.082,11.416-25.498,25.498-25.498
		c14.082,0,25.498,11.416,25.498,25.498V386.04C281.498,400.122,270.082,411.538,256,411.538z"/>
	<path style="fill:#FFE6B8;" d="M256,151.458c-6.711,0-13.28-2.723-18.033-7.466c-4.742-4.753-7.465-11.321-7.465-18.032
		s2.723-13.29,7.465-18.033c4.753-4.742,11.322-7.465,18.033-7.465c6.711,0,13.279,2.723,18.032,7.465
		c4.743,4.743,7.466,11.322,7.466,18.033s-2.723,13.279-7.466,18.032C269.279,148.735,262.711,151.458,256,151.458z"/>
</g>
<g>
	<path style="fill:#4D3D36;" d="M256,512c-68.381,0-132.667-26.628-181.019-74.981C26.628,388.667,0,324.381,0,256
		S26.628,123.333,74.981,74.981C123.333,26.628,187.619,0,256,0s132.667,26.628,181.019,74.981C485.372,123.333,512,187.619,512,256
		s-26.628,132.667-74.981,181.019C388.667,485.372,324.381,512,256,512z M256,20.398C126.089,20.398,20.398,126.089,20.398,256
		S126.089,491.602,256,491.602S491.602,385.911,491.602,256S385.911,20.398,256,20.398z"/>
	<path style="fill:#4D3D36;" d="M430.023,383.95c-1.97,0-3.961-0.57-5.715-1.758c-4.662-3.162-5.88-9.503-2.719-14.166
		c12.984-19.151,22.453-40.188,28.142-62.528c1.388-5.46,6.936-8.759,12.4-7.367c5.46,1.389,8.757,6.943,7.367,12.4
		c-6.272,24.634-16.711,47.83-31.024,68.94C436.502,382.382,433.291,383.95,430.023,383.95z"/>
	<path style="fill:#4D3D36;" d="M465.914,275.378c-0.149,0-0.298-0.003-0.448-0.01c-5.628-0.243-9.993-5.002-9.749-10.63
		c0.124-2.883,0.188-5.824,0.188-8.739c0-5.632,4.567-10.199,10.199-10.199c5.632,0,10.199,4.567,10.199,10.199
		c0,3.208-0.069,6.444-0.207,9.62C475.859,271.097,471.344,275.378,465.914,275.378z"/>
	<path style="fill:#4D3D36;" d="M256,421.737c-19.683,0-35.697-16.014-35.697-35.697V208.574c0-19.683,16.014-35.697,35.697-35.697
		c19.683,0,35.697,16.014,35.697,35.697V386.04C291.697,405.723,275.683,421.737,256,421.737z M256,193.275
		c-8.436,0-15.299,6.863-15.299,15.299V386.04c0,8.436,6.863,15.299,15.299,15.299c8.436,0,15.299-6.863,15.299-15.299V208.574
		C271.299,200.138,264.436,193.275,256,193.275z"/>
	<path style="fill:#4D3D36;" d="M256,161.657c-9.386,0-18.585-3.807-25.237-10.446c-6.654-6.668-10.46-15.867-10.46-25.251
		c0-9.4,3.809-18.6,10.451-25.244c6.662-6.647,15.861-10.453,25.246-10.453c9.384,0,18.583,3.806,25.235,10.444
		c6.653,6.652,10.462,15.853,10.462,25.253c0,9.385-3.807,18.584-10.446,25.236C274.584,157.85,265.385,161.657,256,161.657z
		 M256,110.661c-4.025,0-7.972,1.636-10.829,4.486c-2.836,2.837-4.469,6.781-4.469,10.813c0,4.024,1.636,7.971,4.486,10.829
		c2.841,2.834,6.788,4.47,10.813,4.47c4.024,0,7.97-1.636,10.827-4.486c2.835-2.843,4.471-6.789,4.471-10.813
		c0-4.031-1.633-7.974-4.479-10.82C263.971,112.297,260.024,110.661,256,110.661z"/>
</g>
</svg>