<?xml version="1.0" encoding="iso-8859-1"?>
<!-- Uploaded to: SVG Repo, www.svgrepo.com, Generator: SVG Repo Mixer Tools -->
<svg version="1.1" id="Layer_1" xmlns="http://www.w3.org/2000/svg" xmlns:xlink="http://www.w3.org/1999/xlink" 
	 viewBox="0 0 512 512" xml:space="preserve">
<polygon style="fill:#702600;" points="296.73,380.343 275.832,339.133 117.018,318.235 137.916,422.267 275.832,422.267 "/>
<polygon style="fill:#983300;" points="0,339.133 0,422.267 137.916,422.267 137.916,318.235 "/>
<polygon style="fill:#541D00;" points="296.73,295.345 275.832,256 117.018,235.102 137.916,339.133 275.832,339.133 "/>
<g>
	<polygon style="fill:#702600;" points="0,256 0,339.133 137.916,339.133 137.916,235.102 	"/>
	<polygon style="fill:#702600;" points="393.916,172.867 196.958,151.969 149.309,157.163 117.018,207.817 137.916,256 393.916,256 
			"/>
</g>
<path style="fill:#541D00;" d="M393.916,89.733H256c-32.326,0-96.761,4.162-118.084,25.206c-13.668,13.49,5.26,57.928,5.26,57.928
	h250.74V89.733z"/>
<path style="fill:#983300;" d="M149.309,157.163L5.26,172.867C1.842,183.911,0,195.649,0,207.817V256h137.916v-48.183
	C137.916,189.687,142.007,172.514,149.309,157.163z"/>
<g>
	<path style="fill:#702600;" d="M256,89.733H118.084l0,0c-53.047,0-97.924,34.981-112.824,83.133h137.916
		C158.076,124.714,202.952,89.733,256,89.733z"/>
	<polygon style="fill:#702600;" points="512,256 370.553,243.483 393.916,422.267 512,422.267 	"/>
</g>
<g>
	<polygon style="fill:#983300;" points="275.832,235.102 275.832,422.267 393.916,422.267 393.916,245.551 	"/>
	<path style="fill:#983300;" d="M512,207.817c0-19.361-4.659-37.633-12.918-53.758c-1.739-3.395-3.636-6.694-5.684-9.888
		c-1.536-2.396-3.157-4.732-4.856-7.005c-4.534-6.063-9.636-11.674-15.227-16.756c-2.633-2.393-5.378-4.664-8.22-6.814
		c-0.38-0.287-0.763-0.573-1.146-0.856c-1.317-0.972-2.651-1.922-4.008-2.839c-1.08-0.729-2.178-1.436-3.283-2.131
		c-2.532-1.591-5.129-3.089-7.787-4.488c-0.822-0.433-1.65-0.857-2.484-1.271c-15.807-7.853-33.62-12.278-52.469-12.278
		l-20.898,91.035l20.898,75.233H512V207.817z"/>
</g>
<polygon style="fill:#FFAD00;" points="185.885,216.655 137.916,216.655 117.018,256 137.916,295.345 185.885,295.345 "/>
<rect x="89.945" y="216.66" style="fill:#FFCE2A;" width="47.968" height="78.691"/>
<rect x="122.243" y="241.633" style="fill:#FDEB95;" width="31.347" height="28.745"/>
<path style="fill:#D5681E;" d="M393.916,127.957V89.733c-65.216,0-118.084,52.868-118.084,118.084V256h118.084v-96.696
	c26.75,0,48.513,21.763,48.513,48.513h31.347C473.776,163.783,437.951,127.957,393.916,127.957z"/>
</svg>