<?xml version="1.0" encoding="iso-8859-1"?>
<!-- Uploaded to: SVG Repo, www.svgrepo.com, Generator: SVG Repo Mixer Tools -->
<svg height="800px" width="800px" version="1.1" id="Layer_1" xmlns="http://www.w3.org/2000/svg" xmlns:xlink="http://www.w3.org/1999/xlink" 
	 viewBox="0 0 512 512" xml:space="preserve">
<g>
	<circle style="fill:#FFF082;" cx="256" cy="256" r="88.276"/>
	<path style="fill:#FFF082;" d="M123.586,264.828H61.793c-4.879,0-8.828-3.953-8.828-8.828s3.948-8.828,8.828-8.828h61.793
		c4.879,0,8.828,3.953,8.828,8.828S128.466,264.828,123.586,264.828z"/>
</g>
<g>
	<path style="fill:#FFF8C1;" d="M378.336,214.159c-3.457,0-6.75-2.056-8.156-5.452c-1.863-4.504,0.276-9.668,4.776-11.534
		l32.621-13.513c4.474-1.854,9.673,0.271,11.534,4.776c1.862,4.504-0.276,9.668-4.776,11.534l-32.621,13.513
		C380.612,213.94,379.466,214.159,378.336,214.159z"/>
	<path style="fill:#FFF8C1;" d="M443.577,187.134c-3.457,0-6.75-2.056-8.156-5.452c-1.863-4.504,0.276-9.668,4.776-11.534
		l16.31-6.754c4.491-1.858,9.673,0.271,11.534,4.776c1.862,4.504-0.276,9.668-4.776,11.534l-16.31,6.754
		C445.854,186.914,444.707,187.134,443.577,187.134z"/>
	<path style="fill:#FFF8C1;" d="M101.043,329.017c-3.457,0-6.75-2.056-8.156-5.452c-1.863-4.504,0.276-9.668,4.776-11.534
		l32.621-13.513c4.483-1.845,9.673,0.271,11.534,4.776c1.862,4.504-0.276,9.668-4.776,11.534l-32.621,13.513
		C103.319,328.798,102.173,329.017,101.043,329.017z"/>
	<path style="fill:#FFF8C1;" d="M52.113,349.284c-3.457,0-6.75-2.056-8.156-5.452c-1.863-4.504,0.276-9.668,4.776-11.534
		l16.31-6.754c4.483-1.845,9.673,0.271,11.534,4.776c1.862,4.504-0.276,9.668-4.776,11.534l-16.31,6.754
		C54.388,349.065,53.241,349.284,52.113,349.284z"/>
</g>
<g>
	<path style="fill:#FFF082;" d="M349.63,171.198c-2.259,0-4.518-0.862-6.241-2.586c-3.448-3.448-3.448-9.035,0-12.483l62.422-62.422
		c3.448-3.448,9.035-3.448,12.483,0c3.448,3.448,3.448,9.035,0,12.483l-62.422,62.422
		C354.146,170.336,351.887,171.198,349.63,171.198z"/>
	<path style="fill:#FFF082;" d="M99.948,420.879c-2.259,0-4.518-0.862-6.241-2.586c-3.448-3.448-3.448-9.035,0-12.483l62.422-62.422
		c3.448-3.448,9.035-3.448,12.483,0c3.448,3.448,3.448,9.035,0,12.483l-62.422,62.422
		C104.466,420.018,102.207,420.879,99.948,420.879z"/>
	<path style="fill:#FFF082;" d="M26.483,264.828H8.828C3.948,264.828,0,260.875,0,256s3.948-8.828,8.828-8.828h17.655
		c4.879,0,8.828,3.953,8.828,8.828S31.362,264.828,26.483,264.828z"/>
	<path style="fill:#FFF082;" d="M450.207,264.828h-61.793c-4.879,0-8.828-3.953-8.828-8.828s3.948-8.828,8.828-8.828h61.793
		c4.879,0,8.828,3.953,8.828,8.828S455.086,264.828,450.207,264.828z"/>
	<path style="fill:#FFF082;" d="M503.172,264.828h-17.655c-4.879,0-8.828-3.953-8.828-8.828s3.948-8.828,8.828-8.828h17.655
		c4.879,0,8.828,3.953,8.828,8.828S508.052,264.828,503.172,264.828z"/>
	<path style="fill:#FFF082;" d="M256,132.414c-4.879,0-8.828-3.953-8.828-8.828V61.793c0-4.875,3.948-8.828,8.828-8.828
		c4.879,0,8.828,3.953,8.828,8.828v61.793C264.828,128.461,260.879,132.414,256,132.414z"/>
	<path style="fill:#FFF082;" d="M256,35.31c-4.879,0-8.828-3.953-8.828-8.828V8.828C247.172,3.953,251.121,0,256,0
		c4.879,0,8.828,3.953,8.828,8.828v17.655C264.828,31.358,260.879,35.31,256,35.31z"/>
	<path style="fill:#FFF082;" d="M256,459.034c-4.879,0-8.828-3.953-8.828-8.828v-61.793c0-4.875,3.948-8.828,8.828-8.828
		c4.879,0,8.828,3.953,8.828,8.828v61.793C264.828,455.082,260.879,459.034,256,459.034z"/>
	<path style="fill:#FFF082;" d="M256,512c-4.879,0-8.828-3.953-8.828-8.828v-17.655c0-4.875,3.948-8.828,8.828-8.828
		c4.879,0,8.828,3.953,8.828,8.828v17.655C264.828,508.047,260.879,512,256,512z"/>
	<path style="fill:#FFF082;" d="M162.37,171.198c-2.259,0-4.518-0.862-6.241-2.586l-62.422-62.422
		c-3.448-3.448-3.448-9.035,0-12.483c3.448-3.448,9.035-3.448,12.483,0l62.422,62.422c3.448,3.448,3.448,9.035,0,12.483
		C166.888,170.336,164.629,171.198,162.37,171.198z"/>
	<path style="fill:#FFF082;" d="M412.052,420.879c-2.259,0-4.518-0.862-6.241-2.586l-62.422-62.422
		c-3.448-3.448-3.448-9.035,0-12.483s9.035-3.448,12.483,0l62.422,62.422c3.448,3.448,3.448,9.035,0,12.483
		C416.569,420.018,414.311,420.879,412.052,420.879z"/>
</g>
<g>
	<path style="fill:#FFF8C1;" d="M410.957,329.017c-1.129,0-2.276-0.22-3.38-0.676l-32.621-13.513
		c-4.5-1.866-6.638-7.03-4.776-11.534c1.863-4.509,7.052-6.625,11.534-4.776l32.621,13.513c4.5,1.866,6.638,7.03,4.776,11.534
		C417.707,326.962,414.414,329.017,410.957,329.017z"/>
	<path style="fill:#FFF8C1;" d="M459.887,349.284c-1.129,0-2.276-0.22-3.38-0.676l-16.31-6.754c-4.5-1.866-6.638-7.03-4.776-11.534
		c1.863-4.509,7.052-6.625,11.534-4.776l16.31,6.754c4.5,1.866,6.638,7.03,4.776,11.534
		C466.638,347.229,463.345,349.284,459.887,349.284z"/>
	<path style="fill:#FFF8C1;" d="M133.664,214.159c-1.129,0-2.276-0.22-3.38-0.676L97.663,199.97c-4.5-1.866-6.638-7.03-4.776-11.534
		c1.863-4.504,7.052-6.634,11.534-4.776l32.621,13.513c4.5,1.866,6.638,7.03,4.776,11.534
		C140.414,212.104,137.121,214.159,133.664,214.159z"/>
	<path style="fill:#FFF8C1;" d="M68.423,187.134c-1.129,0-2.276-0.22-3.38-0.676l-16.31-6.754c-4.5-1.866-6.638-7.03-4.776-11.534
		c1.863-4.504,7.06-6.638,11.534-4.776l16.31,6.754c4.5,1.866,6.638,7.03,4.776,11.534C75.172,185.078,71.88,187.134,68.423,187.134
		z"/>
	<path style="fill:#FFF8C1;" d="M320.181,419.789c-3.457,0-6.75-2.056-8.156-5.452l-13.508-32.621
		c-1.863-4.504,0.276-9.668,4.776-11.534c4.483-1.845,9.673,0.271,11.534,4.776l13.508,32.621c1.863,4.504-0.276,9.668-4.776,11.534
		C322.457,419.569,321.311,419.789,320.181,419.789z"/>
	<path style="fill:#FFF8C1;" d="M340.457,468.724c-3.457,0-6.75-2.051-8.156-5.452l-6.759-16.314
		c-1.863-4.504,0.276-9.668,4.776-11.534c4.491-1.849,9.673,0.263,11.534,4.776l6.759,16.314c1.863,4.504-0.276,9.668-4.776,11.534
		C342.733,468.504,341.587,468.724,340.457,468.724z"/>
	<path style="fill:#FFF8C1;" d="M205.327,142.496c-3.457,0-6.75-2.056-8.156-5.452l-13.508-32.621
		c-1.863-4.504,0.276-9.668,4.776-11.534c4.491-1.845,9.673,0.271,11.534,4.776l13.508,32.621c1.863,4.504-0.276,9.668-4.776,11.534
		C207.604,142.276,206.457,142.496,205.327,142.496z"/>
	<path style="fill:#FFF8C1;" d="M178.302,77.255c-3.457,0-6.75-2.051-8.156-5.452l-6.759-16.314
		c-1.863-4.504,0.276-9.668,4.776-11.534c4.483-1.854,9.673,0.267,11.534,4.776l6.759,16.314c1.863,4.504-0.276,9.668-4.776,11.534
		C180.577,77.035,179.431,77.255,178.302,77.255z"/>
	<path style="fill:#FFF8C1;" d="M191.819,419.789c-1.129,0-2.276-0.22-3.38-0.676c-4.5-1.866-6.638-7.03-4.776-11.534l13.508-32.621
		c1.863-4.509,7.043-6.625,11.534-4.776c4.5,1.866,6.638,7.03,4.776,11.534l-13.508,32.621
		C198.569,417.732,195.276,419.789,191.819,419.789z"/>
	<path style="fill:#FFF8C1;" d="M171.543,468.724c-1.129,0-2.276-0.22-3.38-0.676c-4.5-1.866-6.638-7.03-4.776-11.534l6.759-16.314
		c1.863-4.509,7.06-6.63,11.534-4.776c4.5,1.866,6.638,7.03,4.776,11.534l-6.759,16.314
		C178.293,466.668,175,468.724,171.543,468.724z"/>
	<path style="fill:#FFF8C1;" d="M306.673,142.496c-1.129,0-2.276-0.22-3.38-0.676c-4.5-1.866-6.638-7.03-4.776-11.534l13.508-32.621
		c1.863-4.504,7.06-6.625,11.534-4.776c4.5,1.866,6.638,7.03,4.776,11.534l-13.508,32.621
		C313.422,140.439,310.13,142.496,306.673,142.496z"/>
	<path style="fill:#FFF8C1;" d="M333.698,77.255c-1.129,0-2.276-0.22-3.38-0.676c-4.5-1.866-6.638-7.03-4.776-11.534l6.759-16.314
		c1.863-4.509,7.052-6.63,11.534-4.776c4.5,1.866,6.638,7.03,4.776,11.534l-6.759,16.314
		C340.448,75.198,337.155,77.255,333.698,77.255z"/>
	<circle style="fill:#FFF8C1;" cx="256" cy="256" r="61.793"/>
</g>
</svg>