<?xml version="1.0" encoding="iso-8859-1"?>
<!-- Uploaded to: SVG Repo, www.svgrepo.com, Generator: SVG Repo Mixer Tools -->
<svg height="800px" width="800px" version="1.1" id="Layer_1" xmlns="http://www.w3.org/2000/svg" xmlns:xlink="http://www.w3.org/1999/xlink" 
	 viewBox="0 0 512 512" xml:space="preserve">
<path style="fill:#FFD782;" d="M317.033,0H173.568c-8.877,0-16.374,6.592-17.51,15.395l-31.322,242.74
	c-0.998,7.729,5.747,14.229,13.433,12.948l74.547-12.425c7.837-1.306,14.643,5.462,13.382,13.305l-37.807,235.108
	c-0.77,4.62,5.437,6.867,7.803,2.825L386.06,185.373c4.04-6.902-1.909-15.355-9.769-13.88l-112.936,21.175
	c-3.539,0.663-6.408-2.856-5.045-6.188l69.638-170.224C331.12,8.499,325.414,0,317.033,0z"/>
<path style="fill:#FFC36E;" d="M195.424,217.514L232.927,0h-59.36c-8.877,0-16.374,6.591-17.51,15.395l-31.322,242.741
	c-0.998,7.729,5.747,14.229,13.433,12.948l74.547-12.425c7.837-1.307,14.643,5.462,13.382,13.305L188.29,507.073
	c-0.362,2.173,0.838,3.785,2.436,4.501l92.227-268.995c3.524-10.279-4.716-20.776-15.539-19.793l-61.929,5.63
	C199.365,228.972,194.38,223.572,195.424,217.514z"/>
</svg>