<?xml version="1.0" encoding="iso-8859-1"?>
<!-- Uploaded to: SVG Repo, www.svgrepo.com, Generator: SVG Repo Mixer Tools -->
<svg height="800px" width="800px" version="1.1" id="Layer_1" xmlns="http://www.w3.org/2000/svg" xmlns:xlink="http://www.w3.org/1999/xlink" 
	 viewBox="0 0 503.9 503.9" xml:space="preserve">
<path style="fill:#ECF4F7;" d="M499.4,141.4l-17.1-8.5c-1.7-23-11.1-46.1-23.9-63.1l24-47.9l-47.8,23.9
	c-17.1-12.8-40.1-22.2-63.1-23.9L363,4.8l-8.6,17.1c-23,1.7-46.1,11.1-63.1,23.9l-47.9-23.9l23.9,47.8c-12.8,17.1-21.3,41-23.9,63.1
	l-17.1,8.5l17.1,8.5c1.7,23,10.2,45.2,23,62.3l26.5,25.3c11.7,7.3,23.6,13.3,35.8,17.3c7.7,2.6,17.1,4.3,24.7,6l8.5,17.1l9.4-17.9
	l1.7,0.9c22.2-6.8,44.4-11.1,61.4-23.9l47.8,23.9L458.3,213c12.8-17.1,22.2-40.1,23.9-63.1L499.4,141.4z"/>
<path style="fill:#AE938D;" d="M298.1,230.9c-3.8-12-12-20.8-25.9-25.3l-5.7,5.7L61.7,416.2c-4.3-1.7-9.4-2.6-14.5-2.6
	c-23.9,0-42.7,18.8-42.7,42.7c0,23.9,18.8,42.7,42.7,42.7s42.7-18.8,42.7-42.7c0-5.1-0.9-10.2-2.6-14.5L293,236.1L298.1,230.9z
	 M47.2,464.8c-5.1,0-8.5-3.4-8.5-8.5s3.4-8.5,8.5-8.5s8.5,3.4,8.5,8.5S52.3,464.8,47.2,464.8z"/>
<path style="fill:#51565F;" d="M501.5,137.4l-14.8-7.4c-2.1-21.2-10.3-43-22.9-60.7l22.6-45.4c0.9-1.7,0.5-3.8-0.8-5.2
	c-1.4-1.4-3.5-1.7-5.2-0.8l-45.3,22.7c-17.7-12.6-39.5-20.8-60.7-22.9L367,2.9c-0.8-1.5-2.3-2.5-4-2.5s-3.3,1-4,2.5l-7.4,14.8
	c-21.2,2.1-43,10.3-60.7,22.9l-45.3-22.7c-1.7-0.9-3.8-0.5-5.2,0.8c-1.4,1.4-1.7,3.5-0.8,5.2l22.7,45.3
	c-11.5,16.3-19.9,38.6-22.8,60.6l-14.9,7.5c-1.5,0.8-2.5,2.3-2.5,4s1,3.3,2.5,4l14.8,7.4c2,21.2,9.6,41.1,21.5,58L60.5,411
	c-4.1-1.2-8.6-1.9-13.3-1.9C20.8,409.1,0,429.8,0,456.3c0,26.4,20.7,47.2,47.2,47.2s47.2-20.7,47.2-47.2c0-4.7-0.6-9.3-1.9-13.3
	l200.2-200.2c14.9,9.6,33.8,16.2,34,16.2c0.1,0,0.2,0.1,0.4,0.1c0.1,0,0.2,0.1,0.3,0.1c6.2,2.1,13.4,3.6,19.7,4.9
	c1.1,0.2,2.3,0.5,3.4,0.7l7.6,15.1c0.8,1.5,2.3,2.5,4,2.5l0,0c1.7,0,3.2-0.9,4-2.4l7.7-14.7c0.2,0,0.5-0.1,0.7-0.2
	c4.5-1.4,9-2.7,13.4-3.9c17.1-4.9,33.3-9.5,47.1-19l45.4,22.7c1.7,0.9,3.8,0.5,5.2-0.8c1.4-1.4,1.7-3.5,0.8-5.2l-22.7-45.3
	c12.6-17.7,20.8-39.5,22.9-60.7l14.8-7.4c1.5-0.8,2.5-2.3,2.5-4S503,138.1,501.5,137.4z M456.7,154.3c-2.3,0.9-3.4,3.5-2.5,5.8
	c0.7,1.8,2.4,2.8,4.2,2.8c0.6,0,1.1-0.1,1.7-0.3l17.2-6.8c-2.6,19.3-10.6,38.8-22.3,54.5c-1,1.4-1.2,3.2-0.4,4.7l17.9,35.7
	l-35.7-17.9c-1.5-0.8-3.4-0.6-4.7,0.4c-12.9,9.7-29.2,14.3-46.4,19.2c-2.6,0.8-5.3,1.5-7.9,2.2l7-15.1c1-2.3,0.1-4.9-2.2-6
	c-2.3-1-4.9-0.1-6,2.2l-14.4,30.9l-14.8-31c-1.1-2.2-3.8-3.2-6-2.1c-2.2,1.1-3.2,3.8-2.1,6l7.2,15.1c-5.6-1.2-11.2-2.5-16.1-4.1
	c-0.1,0-0.2,0-0.3-0.1c-0.1,0-0.2-0.1-0.3-0.1c-0.2-0.1-16.7-5.8-30.3-14.2l6.5-6.5l0.1-0.1l0.5-0.5c1.8-1.8,1.8-4.6,0-6.4
	c-1.8-1.8-4.6-1.8-6.4,0l-216.1,216c-1.3,1.3-1.7,3.2-1,4.9c1.4,3.6,2.2,8.2,2.2,12.8c0,21.4-16.8,38.2-38.2,38.2
	S8.9,477.7,8.9,456.3c0-21.4,16.8-38.2,38.2-38.2c4.7,0,9.2,0.8,12.8,2.2c1.7,0.7,3.6,0.3,4.9-1l215.9-215.9
	c0.9-0.9,1.3-2.1,1.3-3.3s-0.4-2.4-1.3-3.3c-1.8-1.8-4.6-1.8-6.4,0l-7.3,7.3c-9.9-14.7-16.4-31.4-18.6-49.4l18.4,8
	c0.6,0.3,1.2,0.4,1.8,0.4c1.7,0,3.4-1,4.1-2.7c1-2.3,0-4.9-2.3-5.9l-31.2-13.6l30.6-15.5c2.2-1.1,3.1-3.8,2-6s-3.8-3.1-6-2
	l-16.7,8.5c3.5-19.9,11.4-39.5,21.9-53.5c1-1.4,1.2-3.2,0.4-4.7L253.5,32l35.7,17.9c1.5,0.8,3.4,0.6,4.7-0.4
	c15.4-11.6,34.6-19.5,53.5-22.2l-7.1,15.3c-1,2.3-0.1,4.9,2.2,6c0.6,0.3,1.3,0.4,1.9,0.4c1.7,0,3.3-1,4.1-2.6l14.4-30.9l14.8,31
	c0.8,1.6,2.4,2.6,4.1,2.6c0.7,0,1.3-0.1,1.9-0.4c2.2-1.1,3.2-3.8,2.1-6l-7.3-15.3c18.9,2.8,38,10.6,53.4,22.2c1.4,1,3.2,1.2,4.7,0.4
	l35.7-17.9l-17.9,35.7c-0.8,1.5-0.6,3.3,0.4,4.7c11.4,15.1,19.2,33.9,22,52.5l-13.8-7.6c-2.2-1.2-4.9-0.4-6.1,1.8
	c-1.2,2.2-0.4,4.9,1.8,6.1l29.9,16.4L456.7,154.3z M47.2,443.2c-7.6,0-13,5.5-13,13s5.5,13,13,13c7.6,0,13-5.5,13-13
	S54.7,443.2,47.2,443.2z M47.2,460.3c-2.6,0-4-1.4-4-4s1.4-4,4-4s4,1.4,4,4S49.8,460.3,47.2,460.3z M417.5,190.9
	c0.9,1.7,0,3.4-0.9,4.3c0,0-1.7,0.9-2.6,0.9s-0.9,0-1.7,0l-25.6-8.5c-2.6-0.9-3.4-3.4-2.6-5.1c0.9-2.6,3.4-3.4,5.1-2.6l17.9,6
	l-6-17.9c-0.9-2.6,0.9-4.3,2.6-5.1c2.6-0.9,4.3,0.9,5.1,2.6L417.5,190.9z M340.7,182.4c0.9,2.6-0.9,4.3-2.6,5.1l-25.6,8.5
	c0,0,0,0-0.9,0s-2.6-0.9-3.4-0.9c-0.9-0.9-1.7-2.6-0.9-4.3l8.5-25.6c0.9-2.6,3.4-3.4,5.1-2.6c2.6,0.9,3.4,3.4,2.6,5.1l-6,17.9
	l17.9-6C338.2,178.9,339.9,180.7,340.7,182.4z M384.2,99.6c-0.9-2.6,0.9-4.3,2.6-5.1l25.6-8.5c1.7-0.9,3.4,0,4.3,0.9
	s1.7,2.6,0.9,4.3l-8.5,25.6c0,1.7-1.7,2.6-3.4,2.6c-0.9,0-0.9,0-1.7,0c-2.6-0.9-3.4-3.4-2.6-5.1l6-17.9l-17.9,6
	C386.8,103,385.1,101.3,384.2,99.6z M340.7,99.6c-0.9,2.6-3.4,3.4-5.1,2.6l-17.9-6l6,17.9c0.9,2.6-0.9,4.3-2.6,5.1c0,0,0,0-0.9,0
	c-1.7,0-3.4-0.9-4.3-2.6l-8.5-25.5c-0.9-1.7,0-3.4,0.9-4.3s2.6-1.7,4.3-0.9l25.6,8.5C340.7,95.3,341.6,97.9,340.7,99.6z"/>
</svg>