<?xml version="1.0" ?>
<!DOCTYPE svg  PUBLIC '-//W3C//DTD SVG 1.1//EN'  'http://www.w3.org/Graphics/SVG/1.1/DTD/svg11.dtd'>
<!-- Uploaded to: SVG Repo, www.svgrepo.com, Generator: SVG Repo Mixer Tools -->
<svg width="800px" height="800px" viewBox="0 0 512 512" version="1.1" xml:space="preserve" xmlns="http://www.w3.org/2000/svg" xmlns:xlink="http://www.w3.org/1999/xlink">
<g id="_x35_60_x2C__Music_node_x2C__node_x2C__lyrics_x2C__love_x2C__song">
<g>
<path d="M361.29,166.661v147.67h-0.44c-2.67-18.22-17.39-32.52-35.81-34.56V171.601l-126.859,17.301v154.04    h-0.25c-2.09-18.9-17.09-33.9-35.99-35.99v-54.62v-120.48v-1.43l155.76-21.24c5.41,19.24,23.06,34.061,43.59,52.49V166.661z" style="fill:#FFCDD2;"/>
<g>
<path d="M361.29,169.547v-2.886v-4.99c-14.255-12.797-27.116-23.854-35.461-35.857     C331.098,141.722,344.765,154.713,361.29,169.547z" style="fill:#EFB4BC;"/>
<path d="M169.44,266.924v-120.48v-1.43l155.083-21.147c-3.032-4.681-5.372-9.523-6.823-14.686     l-155.76,21.24v1.43v120.48v54.62c2.582,0.285,5.087,0.819,7.5,1.564V266.924z" style="fill:#EFB4BC;"/>
<path d="M196.688,336.532c0.577,2.075,1,4.215,1.243,6.409h0.25v-4.443     C197.704,337.826,197.203,337.173,196.688,336.532z" style="fill:#EFB4BC;"/>
<path d="M359.799,309.358c0.449,1.619,0.803,3.279,1.051,4.973h0.44v-2.99     C360.812,310.665,360.316,310.003,359.799,309.358z" style="fill:#EFB4BC;"/>
</g>
<path d="M161.94,306.951c18.9,2.09,33.9,17.09,35.99,35.99c0.16,1.49,0.25,3,0.25,4.53    c0,22.52-18.25,40.779-40.77,40.779s-40.78-18.26-40.78-40.779c0-22.521,18.26-40.771,40.78-40.771    C158.94,306.701,160.451,306.791,161.94,306.951z" style="fill:#F3705A;"/>
<path d="M124.63,361.067c0-22.521,18.26-40.771,40.78-40.771c1.53,0,3.04,0.09,4.53,0.25    c10.298,1.139,19.433,6.116,25.958,13.464c-5.082-14.534-18.153-25.313-33.958-27.06c-1.49-0.16-3-0.25-4.53-0.25    c-22.52,0-40.78,18.25-40.78,40.771c0,10.388,3.892,19.863,10.288,27.064C125.442,370.318,124.63,365.788,124.63,361.067z" style="fill:#E25F4D;"/>
<path d="M360.85,314.331c0.28,1.95,0.44,3.931,0.44,5.96c0,22.521-18.26,40.78-40.78,40.78    c-22.52,0-40.77-18.26-40.77-40.78c0-22.52,18.25-40.779,40.77-40.779c1.53,0,3.04,0.1,4.53,0.26    C343.46,281.812,358.18,296.111,360.85,314.331z" style="fill:#F3705A;"/>
<path d="M288.016,333.524c0-22.52,18.25-40.779,40.77-40.779c1.53,0,3.04,0.1,4.53,0.26    c9.944,1.102,18.805,5.78,25.278,12.715c-5.35-13.968-18.156-24.243-33.554-25.948c-1.49-0.16-3-0.26-4.53-0.26    c-22.52,0-40.77,18.26-40.77,40.779c0,10.756,4.169,20.532,10.972,27.819C288.976,343.58,288.016,338.665,288.016,333.524z" style="fill:#E25F4D;"/>
<path d="M413.02,64.381c17.9,0,32.381,14.49,32.381,32.351c0,32.34-32.381,50.76-64.73,83.109    c-6.55-6.55-13.1-12.529-19.38-18.17c-20.53-18.43-38.18-33.25-43.59-52.49c-1.11-3.949-1.72-8.069-1.72-12.449    c0-17.86,14.489-32.351,32.35-32.351c16.17,0,24.26,8.09,32.34,24.26C388.76,72.471,396.85,64.381,413.02,64.381z" style="fill:#EF3E5C;"/>
<g>
<g>
<g>
<path d="M378.29,168.72c-20.53-18.431-38.18-33.25-43.59-52.49c-1.11-3.95-1.72-8.07-1.72-12.45       c0-17.86,14.489-32.35,32.35-32.35c1.219,0,2.377,0.062,3.507,0.153c-5.313-4.788-11.71-7.202-20.507-7.202       c-17.86,0-32.35,14.49-32.35,32.351c0,4.38,0.609,8.5,1.72,12.449c5.41,19.24,23.06,34.061,43.59,52.49       c6.28,5.641,12.83,11.62,19.38,18.17c1.583-1.583,3.166-3.124,4.746-4.645C383.015,172.989,380.63,170.82,378.29,168.72z" style="fill:#E42A53;"/>
</g>
</g>
</g>
<path d="M124.38,133.861c15.7,15.689,8.92,40.33,8.92,71.72c-31.38,0-56.01,6.75-71.7-8.94    c-8.67-8.659-8.67-22.72,0-31.38c7.84-7.85,15.69-7.85,27.46-3.93c-3.92-11.76-3.92-19.61,3.92-27.46    C101.661,125.191,115.721,125.191,124.38,133.861z" style="fill:#EF3E5C;"/>
<g>
<g>
<g>
<path d="M124.38,133.861c-8.66-8.67-22.72-8.67-31.4,0.01c-3.548,3.553-5.478,7.109-6.177,11.023       c8.726-7.008,21.499-6.472,29.577,1.615c13.547,13.538,10.358,33.745,9.229,59.197c2.518-0.076,5.079-0.126,7.691-0.126       C133.3,174.191,140.081,149.551,124.38,133.861z" style="fill:#E42A53;"/>
</g>
</g>
</g>
<path d="M125.692,447.619c-2.21,0-4.231-1.476-4.828-3.713c-0.711-2.668,0.875-5.408,3.543-6.119    l271.838-72.49c2.669-0.716,5.407,0.874,6.119,3.543c0.712,2.668-0.875,5.408-3.543,6.119l-271.838,72.49    C126.552,447.564,126.119,447.619,125.692,447.619z" style="fill:#FFCDD2;"/>
<path d="M261.611,438.558c-2.176,0-4.177-1.432-4.804-3.627c-0.759-2.655,0.779-5.423,3.433-6.182    l190.286-54.367c2.653-0.758,5.422,0.779,6.182,3.434c0.759,2.655-0.779,5.423-3.434,6.182l-190.286,54.367    C262.529,438.495,262.066,438.558,261.611,438.558z" style="fill:#FFCDD2;"/>
</g>
</g>
<g id="Layer_1"/>
</svg>