<svg xmlns="http://www.w3.org/2000/svg" width="800" height="800" viewBox="0 0 512 512" xmlns:v="https://vecta.io/nano"><path d="M256 22.974h-27.656c-4.731 0-8.367 4.188-7.705 8.872l4.904 34.683H256h30.457l4.904-34.683c.662-4.685-2.974-8.872-7.705-8.872H256z" fill="#ba8280"/><path fill="#965c5c" d="M222.464 44.751l3.079 21.777H256h30.457l3.079-21.777z"/><linearGradient gradientUnits="userSpaceOnUse" id="A" x1="256" x2="256" y1="475.661" y2="-13.83"><stop offset=".01" stop-color="#ffcce0"/><stop offset="1" stop-color="#ffe6fa"/></linearGradient><path d="M328.733 181.56l.087.01-.139-.036-5.371-2.581c-14.48-6.648-25.809-18.919-29.865-34.328-.437-1.659-.792-3.245-1.082-4.725-1.135-5.801-1.559-11.743-.836-17.609 3.08-25.015 21.564-36.845 21.564-36.845H256h-57.092s18.484 11.83 21.564 36.845c.723 5.866.299 11.809-.836 17.609a76.79 76.79 0 0 1-1.082 4.725c-4.058 15.409-15.385 27.68-29.865 34.328a170.96 170.96 0 0 0-5.371 2.581c-.048.01-.091.026-.139.036l.087-.01c-56.602 28.424-94.309 88.938-89.133 157.693 6.142 81.592 73.709 146.511 155.471 149.65 92.571 3.555 168.735-70.437 168.735-162.217.001-63.499-36.48-118.448-89.606-145.126z" fill="url(#A)"/><path d="M312.854 59.05H196.377a13.2 13.2 0 0 0-13.197 13.198h0a13.2 13.2 0 0 0 13.197 13.197h116.477a13.2 13.2 0 0 0 13.198-13.197h0a13.2 13.2 0 0 0-13.198-13.198z" fill="#ffcce0"/><path d="M198.908 85.445s7.582 4.887 13.846 14.958h86.492c6.264-10.071 13.846-14.958 13.846-14.958H256h-57.092z" fill="#db8da5"/><path d="M384.15 333.04c.521-9.888-.088-19.542-1.703-28.852-3.918-22.584-24.301-38.612-47.162-36.966-35.465 2.555-72.27 23.617-83.893 30.801-2.79 1.724-5.632 3.374-8.594 4.781-39.337 18.691-69.826 14.979-90.558 6.503-11.732-4.796-24.558 3.87-24.573 16.546v.299c0 73.722 62.162 132.925 136.932 128.052 64.314-4.191 116.159-56.803 119.551-121.164z" fill="#cc5697"/><path d="M186.041 206.189s-35.918 7.771-43.749 52.925c-.852 4.907 2.501 9.619 7.404 10.492 7.724 1.376 20.066 1.479 34.174-6.28 6.333-3.482 11.892-8.19 16.729-13.561 5.931-6.581 13.164-16.51 14.123-26.594.947-9.973-7.45-18.322-17.468-18.325-3.356 0-7.208.335-11.213 1.343z" fill="#fff"/><g fill="#a03774"><circle cx="182.974" cy="369.12" r="15.998"/><circle cx="244.055" cy="339.308" r="4.908"/><circle cx="282.23" cy="396.389" r="27.269"/><circle cx="332.041" cy="319.311" r="12.543"/></g></svg>