<?xml version="1.0" encoding="iso-8859-1"?>
<!-- Uploaded to: SVG Repo, www.svgrepo.com, Generator: SVG Repo Mixer Tools -->
<svg height="800px" width="800px" version="1.1" id="Layer_1" xmlns="http://www.w3.org/2000/svg" xmlns:xlink="http://www.w3.org/1999/xlink" 
	 viewBox="0 0 508 508" xml:space="preserve">
<path style="fill:#E9B526;" d="M6,71.2c2,186.4,99.2,355.2,248,430.4c148.8-75.2,246-244,248-430.4C426.4,28.8,340.8,6.4,254,6.4
	C167.2,6.4,81.6,28.8,6,71.2z"/>
<path style="fill:#EDC654;" d="M444.8,105.6c-5.6,70.8-26.8,139.2-61.2,197.6c-32.8,56-77.2,102.4-128.8,134l0,0
	c-0.4,0-0.4,0.4-0.8,0.4s-0.8,0-0.8-0.4l0,0c-51.2-31.6-95.6-78-128.8-134C90,244.8,68.8,176.4,63.2,105.6c0-0.8,0.4-1.6,1.2-2
	C123.6,76.4,189.2,62,254.4,62s130.8,14.4,190,41.6C444.4,104,445.2,104.8,444.8,105.6z"/>
<path style="fill:#F0C960;" d="M250,437.6c0,0,1.2,0,1.2-0.4h0.8c-51.2-31.6-95.2-78-128-134c-34.4-58.4-55.2-126.8-61.2-197.6
	c0-0.8-1.6-1.6-0.8-2C121.2,76.4,192,64,252,64C252,64,254,437.6,250,437.6z"/>
<path d="M254,507.6c-0.8,0-1.2,0-1.6-0.4C100.8,431.2,1.6,259.2,0,70c0-1.6,0.8-2.8,2-3.6c76.4-43.2,163.6-66,252-66
	s175.6,22.8,252,66c1.2,0.8,2,2,2,3.6c-1.6,189.6-100.4,361.2-252.4,437.2C255.2,507.6,254.8,507.6,254,507.6z M8,72
	c2.4,184.8,98.4,352,246,426.8C401.6,424,497.6,256.8,500,72C425.2,30.4,340,8,254,8C168,8.4,82.8,30.4,8,72z"/>
<path d="M254,438c-2.4,0-4-1.6-4-4V174c0-2.4,1.6-4,4-4s4,1.6,4,4v260C258,436,256.4,438,254,438z"/>
<path d="M252.4,122c-2.4,0-4-1.6-4-4V66c0-2.4,1.6-4,4-4s4,1.6,4,4v52C256.4,120,254.8,122,252.4,122z"/>
<path d="M254,439.6c-0.8,0-1.6,0-2-0.8c-51.6-32-96.4-78.4-129.2-134.8c-34.4-58.8-56-127.2-61.6-198.4c0-1.6,0.8-3.2,2.4-4
	c47.2-22,96.8-32,130-36.8c14.4-2,47.6-5.6,59.6-4.8c0.4,0,0.8,0,1.6-0.4l0,0l0,0c65.2,0,131.2,14.4,190.4,42c1.6,0.8,2.4,2.4,2.4,4
	c-5.6,71.2-27.2,140-61.6,198.4c-33.2,56.4-77.6,102.8-129.2,134.8C255.6,439.2,254.8,439.6,254,439.6z M69.2,108
	c6,68.8,26.8,135.6,60.4,192.4c32,54.4,74.8,99.6,124.4,130.8c49.6-31.2,92.4-76.4,124.4-130.8c33.6-56.8,54.4-123.2,60.4-192.4
	C381.2,82,317.6,68,254,68c0,0,0,0-0.4,0C246,68,154,69.2,69.2,108z"/>
</svg>