<?xml version="1.0" encoding="iso-8859-1"?>
<!-- Uploaded to: SVG Repo, www.svgrepo.com, Generator: SVG Repo Mixer Tools -->
<svg height="800px" width="800px" version="1.1" id="Layer_1" xmlns="http://www.w3.org/2000/svg" xmlns:xlink="http://www.w3.org/1999/xlink" 
	 viewBox="0 0 503.537 503.537" xml:space="preserve">
<g transform="translate(0 -1)">
	<polygon style="fill:#BD8366;" points="233.644,469.825 268.356,469.825 268.356,357.012 233.644,357.012 	"/>
	<g>
		<path style="fill:#D69C77;" d="M273.928,504.537h-45.854c-6.508,0-11.785-5.276-11.785-11.785V481.61
			c0-6.508,5.276-11.785,11.785-11.785h45.854c6.508,0,11.785,5.276,11.785,11.785v11.143
			C285.712,499.261,280.436,504.537,273.928,504.537"/>
		<path style="fill:#D69C77;" d="M251.449,365.692h-0.686c-20.367-0.139-40.136-6.396-56.598-17.608
			c-9.303-6.335-10.596-19.525-2.386-27.223c5.884-5.51,14.865-6.344,21.469-1.718c10.874,7.611,23.89,11.741,37.749,11.837
			c14.501-0.156,27.969-4.244,39.329-12.097c6.639-4.582,15.655-3.593,21.469,2.013l0.026,0.026
			c7.741,7.454,7.107,20.367-1.744,26.468C292.982,359.184,272.467,365.692,251.449,365.692"/>
	</g>
	<path style="fill:#C7CFE3;" d="M251,330.98c12.618-0.139,24.368-3.428,34.712-9.407V79.319L251,1l-34.712,78.319v241.621
		C226.528,327.3,238.373,330.893,251,330.98"/>
	<path style="fill:#AFB5CB;" d="M251,287.588c-4.79,0-8.678-3.888-8.678-8.678V98.842c0-4.79,3.888-8.678,8.678-8.678
		s8.678,3.888,8.678,8.678V278.91C259.678,283.7,255.79,287.588,251,287.588"/>
</g>
</svg>