<?xml version="1.0" encoding="iso-8859-1"?>
<!-- Uploaded to: SVG Repo, www.svgrepo.com, Generator: SVG Repo Mixer Tools -->
<svg height="800px" width="800px" version="1.1" id="Layer_1" xmlns="http://www.w3.org/2000/svg" xmlns:xlink="http://www.w3.org/1999/xlink" 
	 viewBox="0 0 512 512" xml:space="preserve">
<path style="fill:#D3D7DF;" d="M256,64C121.899,64,12.8,173.099,12.8,307.2c0,48.265,14.285,95.002,41.318,135.151L57.924,448
	h396.16l3.806-5.649c27.025-40.149,41.31-86.886,41.31-135.151C499.2,173.099,390.101,64,256,64z"/>
<path style="fill:#FEDEA1;" d="M281.506,281.634c-9.225-7.996-22.221-13.372-34.782-18.577
	c-24.124-10.001-140.885-33.246-154.121-35.866l-9.6,23.194c11.204,7.509,110.208,73.626,134.34,83.627
	c13.739,5.692,27.955,11.571,41.097,11.571l0,0c5.06,0,9.762-0.879,13.969-2.62c8.405-3.49,14.711-10.197,18.739-19.942
	C297.643,307.362,294.221,292.659,281.506,281.634z"/>
<g>
	<path style="fill:#573A32;" d="M256,51.2c-141.38,0-256,114.611-256,256c0,57.711,19.328,110.78,51.55,153.6h408.9
		C492.672,417.98,512,364.911,512,307.2C512,165.811,397.38,51.2,256,51.2z M447.266,435.2H64.734
		C39.091,397.107,25.6,353.118,25.6,307.2C25.6,180.156,128.956,76.8,256,76.8s230.4,103.356,230.4,230.4
		C486.4,353.118,472.909,397.107,447.266,435.2z"/>
	<path style="fill:#573A32;" d="M256,140.8c7.074,0,12.8-5.726,12.8-12.8v-25.6c0-7.074-5.726-12.8-12.8-12.8
		c-7.074,0-12.8,5.726-12.8,12.8V128C243.2,135.074,248.926,140.8,256,140.8z"/>
	<path style="fill:#573A32;" d="M391.765,153.327l-18.099,18.099c-5.001,5.001-5.001,13.099,0,18.099
		c2.5,2.5,5.777,3.746,9.054,3.746s6.554-1.246,9.054-3.746l18.099-18.099c5.001-5.001,5.001-13.099,0-18.099
		C404.873,148.326,396.766,148.326,391.765,153.327z"/>
	<path style="fill:#573A32;" d="M435.2,320h25.6c7.074,0,12.8-5.726,12.8-12.8s-5.726-12.8-12.8-12.8h-25.6
		c-7.074,0-12.8,5.726-12.8,12.8S428.126,320,435.2,320z"/>
	<path style="fill:#573A32;" d="M120.235,189.525c2.5,2.5,5.777,3.746,9.054,3.746c3.277,0,6.554-1.246,9.054-3.746
		c5.001-5.001,5.001-13.099,0-18.099l-18.099-18.099c-5.001-5.001-13.099-5.001-18.099,0c-5.001,5.001-5.001,13.099,0,18.099
		L120.235,189.525z"/>
	<path style="fill:#573A32;" d="M76.8,294.4H51.2c-7.074,0-12.8,5.726-12.8,12.8S44.126,320,51.2,320h25.6
		c7.074,0,12.8-5.726,12.8-12.8S83.874,294.4,76.8,294.4z"/>
	<path style="fill:#573A32;" d="M289.894,271.966c-10.786-9.353-24.755-15.138-38.272-20.736
		c-24.738-10.249-134.733-32.282-156.535-36.591c-5.103-1.007-10.214-0.427-14.754,1.459c-6.101,2.526-11.187,7.39-13.858,13.858
		c-4.668,11.273-0.734,24.277,9.404,31.07c18.466,12.365,111.821,74.564,136.559,84.813c20.275,8.397,43.247,17.911,64.87,8.96
		c8.013-3.319,18.97-10.675,25.677-26.871C311.62,307.064,306.85,286.669,289.894,271.966z M279.33,318.123
		c-2.867,6.929-6.929,10.982-11.827,13.013c-11.827,4.898-28.553-2.031-45.269-8.96c-23.654-9.796-132.113-82.432-132.113-82.432
		s128.051,25.335,151.706,35.132C265.481,284.681,289.126,294.477,279.33,318.123z"/>
</g>
</svg>