<?xml version="1.0" encoding="iso-8859-1"?>
<!-- Uploaded to: SVG Repo, www.svgrepo.com, Generator: SVG Repo Mixer Tools -->
<svg height="800px" width="800px" version="1.1" id="Layer_1" xmlns="http://www.w3.org/2000/svg" xmlns:xlink="http://www.w3.org/1999/xlink" 
	 viewBox="0 0 504.119 504.119" xml:space="preserve">
<path style="fill:#577D8C;" d="M252.058,161.485c58.463,0,106.023,47.561,106.023,106.008c0,58.455-47.561,106.016-106.023,106.016
	c-58.447,0-106.008-47.561-106.008-106.016C146.05,209.053,193.611,161.485,252.058,161.485 M252.058,120.312
	c-81.282,0-147.188,65.906-147.188,147.188c0,81.29,65.898,147.196,147.188,147.196c81.306,0,147.188-65.898,147.188-147.196
	C399.238,186.218,333.363,120.312,252.058,120.312L252.058,120.312z"/>
<path style="fill:#0B3A60;" d="M464.475,241.294c-25.285-25.277-58.061-38.368-91.175-39.558
	c9.295-18.385,14.635-39.101,14.635-61.109c0-45.064-22.04-84.882-55.808-109.599c21.685,20.96,35.218,50.302,35.218,82.842
	c0,63.677-51.617,115.279-115.279,115.279c-63.669,0-115.279-51.602-115.279-115.279c0-32.54,13.525-61.873,35.218-82.842
	c-33.768,24.718-55.816,64.536-55.816,109.599c0,21.992,5.356,42.701,14.627,61.078c-33.122,1.189-65.875,14.273-91.152,39.558
	C7.794,273.116-4.785,316.857,1.619,358.219c-0.504-30.161,10.665-60.463,33.674-83.472c45.032-45.025,118.012-45.025,163.037,0
	c45.024,45.017,45.024,118.004,0,163.029c-23.016,23.009-53.327,34.194-83.488,33.666c41.362,6.396,85.102-6.176,116.964-38.038
	c8.011-8.011,14.651-16.841,20.244-26.12c5.6,9.295,12.249,18.133,20.267,26.143c31.862,31.87,75.611,44.449,116.964,38.046
	c-30.161,0.504-60.471-10.665-83.48-33.666c-45.032-45.032-45.032-118.012,0-163.037c45.017-45.009,117.996-45.009,163.029,0
	c23.009,23.016,34.186,53.327,33.666,83.488C508.908,316.888,496.329,273.156,464.475,241.294z"/>
<circle style="fill:#FFCE00;" cx="252.066" cy="267.5" r="20.07"/>
<path style="fill:#FFAA00;" d="M266.252,253.314c7.83,7.83,7.83,20.551,0,28.381c-7.83,7.83-20.551,7.83-28.388,0"/>
</svg>