<?xml version="1.0" encoding="utf-8"?>
<!-- Uploaded to: SVG Repo, www.svgrepo.com, Generator: SVG Repo Mixer Tools -->
<svg width="800px" height="800px" viewBox="0 0 1024 1024" class="icon"  version="1.1" xmlns="http://www.w3.org/2000/svg"><path d="M512 512m-482.47808 0a482.47808 482.47808 0 1 0 964.95616 0 482.47808 482.47808 0 1 0-964.95616 0Z" fill="#EEDBC3" /><path d="M512 512m-418.42176 0a418.42176 418.42176 0 1 0 836.84352 0 418.42176 418.42176 0 1 0-836.84352 0Z" fill="#5B5144" /><path d="M713.66656 545.152a231.59296 231.59296 0 0 0-32.73216-22.18496 236.00128 236.00128 0 0 0 21.01248-12.80512c68.3776-47.15008 99.51232-120.61184 69.53472-164.08064-29.97248-43.4688-109.70624-40.48384-178.08384 6.67136a229.53984 229.53984 0 0 0-36.14208 30.86848 231.2448 231.2448 0 0 0-9.4208-41.5744c-25.74336-78.97088-87.30624-129.72032-137.50784-113.3568-50.2016 16.36352-70.03136 93.6448-44.29312 172.61568a230.77888 230.77888 0 0 0 17.88416 41.0624 234.76736 234.76736 0 0 0-24.59648-1.1776c-83.05664 0.71168-150.02112 44.09344-149.56544 96.89088 0.45568 52.80256 68.15232 95.0272 151.20896 94.3104a235.59168 235.59168 0 0 0 30.52544-2.24256c-1.20832 3.48672-2.42688 6.96832-3.48672 10.5728-23.4752 79.67232-1.44896 156.35968 49.19808 171.28448 50.64704 14.9248 110.74048-37.56544 134.21568-117.23776a237.7216 237.7216 0 0 0 4.2752-16.99328 235.5456 235.5456 0 0 0 17.37728 15.76448c64.45568 52.38784 143.70816 61.63456 177.00864 20.6592 33.30048-40.97536 8.04352-116.66432-56.41216-169.04704z" fill="#3BCDAE" /><path d="M635.49952 603.70432a172.63616 172.63616 0 0 0-12.672-26.62912c6.00576 0.18944 12.11392 0.1536 18.35008-0.30208 61.78304-4.49536 109.55264-39.98208 106.69056-79.2576-2.85696-39.27552-55.26016-67.47136-117.0432-62.97088a171.1872 171.1872 0 0 0-34.90304 6.20032 172.06272 172.06272 0 0 0 9.64096-30.29504c13.27104-60.50816-7.14752-116.39808-45.61408-124.83584-38.46656-8.43776-80.4096 33.77152-93.68064 94.27968a172.21632 172.21632 0 0 0-4.00896 33.16224 174.73536 174.73536 0 0 0-15.37536-10.04544c-53.6832-30.91456-113.13152-28.30848-132.78208 5.82144-19.65056 34.12992 7.936 86.85056 61.6192 117.76512a174.16704 174.16704 0 0 0 20.48 10.0864c-2.09408 1.78688-4.19328 3.56352-6.23616 5.48352-45.18912 42.37312-59.98592 100.00896-33.05472 128.73216 26.93632 28.72832 85.4016 17.66912 130.59584-24.704 3.2256-3.02592 6.25664-6.144 9.16992-9.31328a175.8976 175.8976 0 0 0 5.2224 16.70144c21.66784 58.0352 69.13536 93.91616 106.03008 80.13824 36.89472-13.7728 49.23904-71.98208 27.5712-130.01728z" fill="#01F6C2" /></svg>