<?xml version="1.0" encoding="iso-8859-1"?>
<!-- Uploaded to: SVG Repo, www.svgrepo.com, Generator: SVG Repo Mixer Tools -->
<svg height="800px" width="800px" version="1.1" id="Layer_1" xmlns="http://www.w3.org/2000/svg" xmlns:xlink="http://www.w3.org/1999/xlink" 
	 viewBox="0 0 512 512" xml:space="preserve">
<g>
	<path style="fill:#8D6E63;" d="M256,162.133c-70.571,0-128,57.429-128,128s57.429,128,128,128s128-57.429,128-128
		S326.571,162.133,256,162.133z M256,392.533c-56.491,0-102.4-45.909-102.4-102.4s45.909-102.4,102.4-102.4
		s102.4,45.909,102.4,102.4S312.491,392.533,256,392.533z"/>
	<circle style="fill:#8D6E63;" cx="256" cy="290.133" r="17.067"/>
</g>
<path d="M256,187.733c-56.491,0-102.4,45.909-102.4,102.4s45.909,102.4,102.4,102.4s102.4-45.909,102.4-102.4
	S312.491,187.733,256,187.733z M340.907,281.6h-51.968c-0.853-3.072-2.048-5.973-3.669-8.704l36.779-36.693
	C332.373,248.832,339.2,264.448,340.907,281.6z M264.533,256v-50.773c17.152,1.707,32.768,8.533,45.397,18.859l-36.693,36.779
	c-2.731-1.621-5.717-2.901-8.96-3.755C264.363,256.768,264.533,256.427,264.533,256z M247.467,205.227V256
	c0,0.427,0.171,0.768,0.256,1.109c-3.243,0.853-6.229,2.133-8.96,3.755l-36.693-36.779
	C214.699,213.76,230.315,206.933,247.467,205.227z M189.952,236.203l36.779,36.693c-1.621,2.731-2.816,5.632-3.669,8.704h-51.968
	C172.8,264.448,179.627,248.832,189.952,236.203z M171.093,298.667h51.968c0.853,3.072,2.048,5.973,3.669,8.704l-36.779,36.693
	C179.627,331.435,172.8,315.819,171.093,298.667z M247.467,375.04c-17.152-1.707-32.768-8.533-45.397-18.859l36.693-36.779
	c2.731,1.621,5.632,2.816,8.704,3.669V375.04z M238.933,290.133c0-9.387,7.68-17.067,17.067-17.067
	c9.387,0,17.067,7.68,17.067,17.067c0,9.387-7.68,17.067-17.067,17.067C246.613,307.2,238.933,299.52,238.933,290.133z
	 M264.533,375.04v-51.968c3.072-0.853,5.973-2.048,8.704-3.669l36.693,36.779C297.301,366.507,281.685,373.333,264.533,375.04z
	 M322.048,344.064l-36.779-36.693c1.621-2.731,2.816-5.632,3.669-8.704h51.968C339.2,315.819,332.373,331.435,322.048,344.064z"/>
<path d="M473.685,282.795l-84.992-50.944c-1.365-3.243-2.901-6.4-4.523-9.557l16.64-66.645c0.768-2.901-0.085-5.973-2.219-8.107
	s-5.205-2.901-8.107-2.219l-66.645,16.64c-2.987-1.536-6.059-2.987-9.131-4.352L264.107,5.803C262.912,2.389,259.669,0,256,0
	c-3.669,0-6.912,2.389-8.107,5.803l-50.603,151.808c-3.072,1.365-6.144,2.816-9.131,4.352l-66.645-16.64
	c-2.901-0.683-5.973,0.085-8.107,2.219s-2.987,5.205-2.219,8.107l16.64,66.645c-1.621,3.157-3.157,6.315-4.523,9.557l-84.992,50.944
	c-2.645,1.536-4.181,4.352-4.181,7.339c0,2.987,1.536,5.803,4.181,7.339l84.992,50.944c1.365,3.243,2.901,6.4,4.523,9.557
	l-16.64,66.645c-0.768,2.901,0.085,5.973,2.219,8.107c1.621,1.621,3.84,2.475,6.059,2.475c0.683,0,1.365-0.085,2.048-0.256
	l66.645-16.64c3.157,1.621,6.315,3.157,9.557,4.523l50.944,84.992c1.536,2.645,4.352,4.181,7.339,4.181
	c2.987,0,5.803-1.536,7.339-4.181l50.944-84.992c3.243-1.365,6.4-2.901,9.557-4.523l66.645,16.64
	c0.683,0.171,1.365,0.256,2.048,0.256c2.219,0,4.437-0.853,6.059-2.475c2.133-2.133,2.987-5.205,2.219-8.107l-16.64-66.645
	c1.621-3.157,3.157-6.315,4.523-9.557l84.992-50.944c2.645-1.536,4.181-4.352,4.181-7.339
	C477.867,287.147,476.331,284.331,473.685,282.795z M73.472,298.667h37.461c0.171,0,0.256-0.085,0.427-0.085
	c0.512,8.533,1.707,16.896,3.584,25.003L73.472,298.667z M111.36,281.685c-0.171,0-0.256-0.085-0.427-0.085H73.472l41.472-24.917
	C113.067,264.789,111.872,273.152,111.36,281.685z M380.843,165.291l-9.387,37.376c-8.021-10.581-17.408-19.968-27.989-27.989
	L380.843,165.291z M264.533,145.067V61.099l29.781,89.259c-9.643-2.645-19.627-4.267-29.867-4.864
	C264.448,145.323,264.533,145.237,264.533,145.067z M247.467,61.099v83.968c0,0.171,0.085,0.256,0.085,0.427
	c-10.24,0.597-20.224,2.219-29.867,4.864L247.467,61.099z M168.533,174.677c-10.581,8.021-19.968,17.408-27.989,27.989
	l-9.387-37.376L168.533,174.677z M131.157,414.976l9.387-37.376c8.021,10.581,17.408,19.968,27.989,27.989L131.157,414.976z
	 M247.467,435.2v37.461l-24.917-41.472c8.107,1.877,16.469,3.072,25.003,3.584C247.552,434.944,247.467,435.029,247.467,435.2z
	 M264.533,472.661V435.2c0-0.171-0.085-0.256-0.085-0.427c8.533-0.512,16.896-1.707,25.003-3.584L264.533,472.661z M343.467,405.589
	c10.581-8.021,19.968-17.408,27.989-27.989l9.387,37.376L343.467,405.589z M256,418.133c-70.571,0-128-57.429-128-128
	s57.429-128,128-128s128,57.429,128,128S326.571,418.133,256,418.133z M397.056,323.584c1.877-8.107,3.072-16.469,3.584-25.003
	c0.171,0,0.256,0.085,0.427,0.085h37.461L397.056,323.584z M401.067,281.6c-0.171,0-0.256,0.085-0.427,0.085
	c-0.512-8.533-1.707-16.896-3.584-25.003l41.472,24.917H401.067z"/>
<path style="fill:#004D40;" d="M380.843,165.291l-9.387,37.376c-8.021-10.581-17.408-19.968-27.989-27.989L380.843,165.291z"/>
<path style="fill:#00796B;" d="M438.528,281.6h-37.461c-0.171,0-0.256,0.085-0.427,0.085c-0.512-8.533-1.707-16.896-3.584-25.003
	L438.528,281.6z"/>
<path style="fill:#004D40;" d="M438.528,298.667l-41.472,24.917c1.877-8.107,3.072-16.469,3.584-25.003
	c0.171,0,0.256,0.085,0.427,0.085L438.528,298.667L438.528,298.667z"/>
<path style="fill:#00796B;" d="M380.843,414.976l-37.376-9.387c10.581-8.021,19.968-17.408,27.989-27.989L380.843,414.976z"/>
<path style="fill:#004D40;" d="M264.533,472.661V435.2c0-0.171-0.085-0.256-0.085-0.427c8.533-0.512,16.896-1.707,25.003-3.584
	L264.533,472.661z"/>
<path style="fill:#00796B;" d="M247.552,434.773c0,0.171-0.085,0.256-0.085,0.427v37.461l-24.917-41.472
	C230.656,433.067,239.019,434.261,247.552,434.773z"/>
<path style="fill:#004D40;" d="M168.533,405.589l-37.376,9.387l9.387-37.376C148.565,388.181,157.952,397.568,168.533,405.589z"/>
<path style="fill:#00796B;" d="M114.944,323.584l-41.472-24.917h37.461c0.171,0,0.256-0.085,0.427-0.085
	C111.872,307.115,113.067,315.477,114.944,323.584z"/>
<path style="fill:#004D40;" d="M114.944,256.683c-1.877,8.107-3.072,16.469-3.584,25.003c-0.171,0-0.256-0.085-0.427-0.085H73.472
	L114.944,256.683z"/>
<path style="fill:#00796B;" d="M168.533,174.677c-10.581,8.021-19.968,17.408-27.989,27.989l-9.387-37.376L168.533,174.677z"/>
<path style="fill:#004D40;" d="M247.552,145.493c-10.24,0.597-20.224,2.219-29.867,4.864l29.781-89.259v83.968
	C247.467,145.237,247.552,145.323,247.552,145.493z"/>
<path style="fill:#00796B;" d="M294.315,150.357c-9.643-2.645-19.627-4.267-29.867-4.864c0-0.171,0.085-0.256,0.085-0.427V61.099
	L294.315,150.357z"/>
<g>
	<path style="fill:#FFFFFF;" d="M340.907,298.667c-1.707,17.152-8.533,32.768-18.859,45.397l-36.779-36.693
		c1.621-2.731,2.816-5.632,3.669-8.704H340.907z"/>
	<path style="fill:#FFFFFF;" d="M309.931,356.181c-12.629,10.325-28.245,17.152-45.397,18.859v-51.968
		c3.072-0.853,5.973-2.048,8.704-3.669L309.931,356.181z"/>
	<path style="fill:#FFFFFF;" d="M247.467,323.072v51.968c-17.152-1.707-32.768-8.533-45.397-18.859l36.693-36.779
		C241.493,321.024,244.395,322.219,247.467,323.072z"/>
	<path style="fill:#FFFFFF;" d="M226.731,307.371l-36.779,36.693c-10.325-12.629-17.152-28.245-18.859-45.397h51.968
		C223.915,301.739,225.109,304.64,226.731,307.371z"/>
	<path style="fill:#FFFFFF;" d="M226.731,272.896c-1.621,2.731-2.816,5.632-3.669,8.704h-51.968
		c1.707-17.152,8.533-32.768,18.859-45.397L226.731,272.896z"/>
	<path style="fill:#FFFFFF;" d="M247.723,257.109c-3.243,0.853-6.229,2.133-8.96,3.755l-36.693-36.779
		c12.629-10.325,28.245-17.152,45.397-18.859V256C247.467,256.427,247.637,256.768,247.723,257.109z"/>
	<path style="fill:#FFFFFF;" d="M309.931,224.085l-36.693,36.779c-2.731-1.621-5.717-2.901-8.96-3.755
		c0.085-0.341,0.256-0.683,0.256-1.109v-50.773C281.685,206.933,297.301,213.76,309.931,224.085z"/>
	<path style="fill:#FFFFFF;" d="M340.907,281.6h-51.968c-0.853-3.072-2.048-5.973-3.669-8.704l36.779-36.693
		C332.373,248.832,339.2,264.448,340.907,281.6z"/>
</g>
<g>
	<path style="fill:#6D4C41;" d="M256,401.067c-67.686,0-123.145-52.873-127.565-119.467c-0.188,2.833-0.435,5.649-0.435,8.533
		c0,70.571,57.429,128,128,128s128-57.429,128-128c0-2.884-0.247-5.7-0.435-8.533C379.145,348.194,323.686,401.067,256,401.067z"/>
	<path style="fill:#6D4C41;" d="M256,298.667c-7.91,0-14.541-5.47-16.452-12.8c-0.367,1.374-0.614,2.782-0.614,4.267
		c0,9.387,7.68,17.067,17.067,17.067c9.387,0,17.067-7.68,17.067-17.067c0-1.485-0.247-2.893-0.614-4.267
		C270.541,293.197,263.91,298.667,256,298.667z"/>
</g>
</svg>