<?xml version="1.0" encoding="iso-8859-1"?>
<!-- Uploaded to: SVG Repo, www.svgrepo.com, Generator: SVG Repo Mixer Tools -->
<svg height="800px" width="800px" version="1.1" id="Layer_1" xmlns="http://www.w3.org/2000/svg" xmlns:xlink="http://www.w3.org/1999/xlink" 
	 viewBox="0 0 512 512" xml:space="preserve">
<circle style="fill:#263A7A;" cx="256" cy="256" r="256"/>
<path style="fill:#121149;" d="M512,256c0-16.074-1.496-31.797-4.33-47.051l-95.815-95.815l-2.707,15.591l-5.465-5.465
	L100.145,398.867l108.803,108.803c15.253,2.834,30.977,4.33,47.051,4.33C397.384,512,512,397.384,512,256z"/>
<polygon style="fill:#FFC61B;" points="307.952,139.109 204.048,113.133 100.145,139.109 100.145,398.867 204.048,372.891 
	307.952,398.867 411.855,372.891 411.855,113.133 "/>
<polygon style="fill:#FFEDB5;" points="204.048,372.891 100.145,398.867 100.145,139.109 204.048,113.133 "/>
<polygon style="fill:#FEE187;" points="307.952,398.867 204.048,372.891 204.048,113.133 307.952,139.109 "/>
<polygon style="fill:#FFC61B;" points="307.952,139.109 256,126.121 256,385.879 307.952,398.867 "/>
<polygon style="fill:#EAA22F;" points="411.855,372.891 307.952,398.867 307.952,139.109 411.855,113.133 "/>
<g>
	<path style="fill:#FFFFFF;" d="M364.32,215.202c-1.103,0-2.205-0.421-3.048-1.262l-20.115-20.115c-1.684-1.684-1.684-4.411,0-6.094
		s4.411-1.684,6.094,0l20.115,20.115c1.684,1.684,1.684,4.411,0,6.094C366.525,214.781,365.423,215.202,364.32,215.202z"/>
	<path style="fill:#FFFFFF;" d="M344.205,215.202c-1.103,0-2.205-0.421-3.048-1.262c-1.684-1.684-1.684-4.411,0-6.094l20.115-20.115
		c1.684-1.684,4.411-1.684,6.094,0s1.684,4.411,0,6.094l-20.115,20.115C346.41,214.781,345.309,215.202,344.205,215.202z"/>
</g>
<g>
	<path style="fill:#FFC61B;" d="M162.335,327.256c-1.103,0-2.205-0.421-3.048-1.262l-20.113-20.115
		c-1.684-1.684-1.684-4.413,0-6.094c1.684-1.684,4.411-1.684,6.094,0l20.113,20.115c1.684,1.684,1.684,4.413,0,6.094
		C164.54,326.835,163.438,327.256,162.335,327.256z"/>
	<path style="fill:#FFC61B;" d="M142.222,327.256c-1.103,0-2.205-0.421-3.048-1.262c-1.684-1.683-1.684-4.411,0-6.094l20.113-20.115
		c1.684-1.684,4.411-1.684,6.094,0c1.684,1.683,1.684,4.411,0,6.094l-20.113,20.115
		C144.427,326.835,143.326,327.256,142.222,327.256z"/>
</g>
<path style="fill:#FFFFFF;" d="M289.283,339.637c-3.206,0-6.446-0.315-9.662-0.96l-99.362-19.871
	c-3.269-0.653-5.387-3.832-4.732-7.099c0.653-3.269,3.839-5.396,7.099-4.732l99.362,19.871c10.128,2.022,20.889-0.379,28.081-6.273
	c4.877-3.998,7.563-9.176,7.563-14.583c0-9.773-8.749-18.349-21.278-20.856l-89.967-17.994
	c-18.239-3.646-30.979-17.089-30.979-32.687v-28.444c0-9.087,4.255-17.58,11.979-23.914c10.068-8.251,24.309-11.533,38.098-8.773
	l99.362,19.871c3.269,0.653,5.387,3.832,4.732,7.099c-0.652,3.269-3.832,5.401-7.099,4.732l-99.362-19.871
	c-10.13-2.024-20.889,0.379-28.081,6.273c-4.877,3.998-7.563,9.176-7.563,14.583v28.444c0,9.773,8.749,18.349,21.278,20.856
	l89.967,17.994c18.239,3.646,30.979,17.089,30.979,32.687c0,9.087-4.255,17.58-11.979,23.914
	C309.998,336.231,299.823,339.635,289.283,339.637z"/>
<g>
	<path style="fill:#FFEDB5;" d="M298.718,273.303L256,264.759v12.305l40.351,8.07c12.529,2.507,21.278,11.083,21.278,20.856
		c0,5.406-2.686,10.585-7.563,14.583c-7.192,5.894-17.953,8.295-28.081,6.273L256,321.648v12.305l23.619,4.724
		c3.217,0.645,6.456,0.96,9.662,0.96c10.54-0.002,20.716-3.406,28.434-9.733c7.725-6.334,11.979-14.827,11.979-23.914
		C329.697,290.392,316.957,276.949,298.718,273.303z"/>
	<path style="fill:#FFEDB5;" d="M322.479,205.028c3.269,0.669,6.447-1.465,7.099-4.732c0.655-3.269-1.465-6.446-4.732-7.099
		L256,179.428v12.305L322.479,205.028z"/>
</g>
</svg>