<?xml version="1.0" encoding="iso-8859-1"?>
<!-- Uploaded to: SVG Repo, www.svgrepo.com, Generator: SVG Repo Mixer Tools -->
<svg height="800px" width="800px" version="1.1" id="Layer_1" xmlns="http://www.w3.org/2000/svg" xmlns:xlink="http://www.w3.org/1999/xlink" 
	 viewBox="0 0 512 512" xml:space="preserve">
<g>
	<path style="fill:#A67C52;" d="M123.938,461.237l-16.111,20.74l-17.251,22.219c-1.9,2.457-4.33,4.411-7.058,5.755
		c-2.715,1.33-5.755,2.05-8.863,2.05c-13.41,0-23.088-12.84-19.382-25.734l13.492-47.003l6.895-23.997L123.938,461.237z"/>
	<path style="fill:#A67C52;" d="M437.367,512c-3.122,0-6.135-0.719-8.863-2.05c-2.728-1.344-5.158-3.298-7.072-5.755l-17.251-22.219
		l-16.111-20.74l48.279-45.972l6.895,23.997l13.505,47.003C460.441,499.16,450.777,512,437.367,512z"/>
</g>
<path style="fill:#936841;" d="M443.244,439.262c-11.171,15.84-24.309,30.2-39.063,42.714l-16.111-20.74l48.279-45.972
	L443.244,439.262z"/>
<path style="fill:#A67C52;" d="M485.022,280.892c0,126.487-102.531,229.018-229.018,229.018S26.986,407.379,26.986,280.892
	c0-24.486,3.841-48.089,10.981-70.213c3.312-10.329,7.357-20.346,12.053-29.969h411.969c4.696,9.623,8.741,19.64,12.053,29.969
	C481.181,232.802,485.022,256.406,485.022,280.892z"/>
<g>
	<path style="fill:#936841;" d="M75.659,415.265l48.279,45.972l-16.111,20.74c-14.754-12.514-27.893-26.875-39.063-42.714
		L75.659,415.265z"/>
	<path style="fill:#936841;" d="M86.709,280.893c0-35.928,8.266-69.928,23.033-100.183H50.021
		c-14.767,30.254-23.033,64.255-23.033,100.183c0,126.487,102.531,229.018,229.018,229.018c10.121,0,20.087-0.664,29.861-1.937
		C173.489,493.341,86.709,397.259,86.709,280.893z"/>
</g>
<path style="fill:#FDBB00;" d="M440.068,131.956c0-21.545-17.464-39.009-39.009-39.009c-0.755,0-1.504,0.027-2.249,0.069
	c0.379-2.181,0.586-4.421,0.586-6.709c0-21.545-17.464-39.009-39.009-39.009c-3.597,0-7.076,0.497-10.383,1.409
	c-3.35-18.139-19.238-31.884-38.348-31.884c-7.438,0-14.39,2.083-20.305,5.697C285.139,9.22,271.65,0,256,0
	s-29.139,9.22-35.354,22.519c-5.915-3.613-12.866-5.697-20.305-5.697c-19.109,0-34.998,13.744-38.348,31.884
	c-3.308-0.912-6.787-1.409-10.383-1.409c-21.545,0-39.009,17.464-39.009,39.009c0,2.288,0.208,4.528,0.586,6.709
	c-0.745-0.042-1.493-0.069-2.249-0.069c-21.545,0-39.009,17.464-39.009,39.009"/>
<g>
	<path style="fill:#EDAB06;" d="M180.163,92.947c0.755,0,1.504,0.027,2.248,0.069c-0.379-2.181-0.586-4.419-0.586-6.709
		c0-21.543,17.464-39.009,39.009-39.009c3.597,0,7.077,0.497,10.383,1.409c3.35-18.139,19.238-31.884,38.348-31.884
		c7.438,0,14.39,2.083,20.304,5.697c0.231-0.494,0.491-0.969,0.742-1.452C284.115,8.561,271.069,0,256,0
		c-15.65,0-29.139,9.219-35.354,22.519c-5.915-3.613-12.866-5.697-20.304-5.697c-19.109,0-34.998,13.744-38.348,31.884
		c-3.308-0.912-6.787-1.409-10.383-1.409c-21.543,0-39.009,17.464-39.009,39.009c0,2.288,0.209,4.528,0.586,6.709
		c-0.745-0.042-1.493-0.069-2.248-0.069c-21.545,0-39.009,17.464-39.009,39.009h69.223
		C141.154,110.411,158.619,92.947,180.163,92.947z"/>
	<path style="fill:#EDAB06;" d="M220.956,104.43c0-16.636-13.486-30.121-30.121-30.121s-30.121,13.486-30.121,30.121"/>
	<path style="fill:#EDAB06;" d="M324.879,85.749c0-16.636-13.486-30.121-30.121-30.121c-16.635,0-30.121,13.486-30.121,30.121"/>
	<path style="fill:#EDAB06;" d="M396.864,131.956c0-16.636-13.486-30.121-30.121-30.121s-30.121,13.486-30.121,30.121"/>
</g>
<path style="fill:#A67C52;" d="M119.475,184.212H52.574c-8.252,0-15.718-3.339-21.12-8.741s-8.741-12.867-8.741-21.12
	c0-16.491,13.369-29.861,29.861-29.861h88.062h146.589h172.201c8.239,0,15.704,3.339,21.12,8.741
	c5.402,5.402,8.741,12.867,8.741,21.12c0,16.491-13.369,29.861-29.861,29.861H165.624"/>
<g>
	<path style="fill:#936841;" d="M474.042,210.678H37.967c3.312-10.329,7.357-20.346,12.053-29.969h411.969
		C466.685,190.332,470.73,200.349,474.042,210.678z"/>
	<path style="fill:#936841;" d="M104.151,154.351c0-16.491,13.369-29.861,29.861-29.861H52.574
		c-16.491,0-29.861,13.369-29.861,29.861c0,8.252,3.339,15.718,8.741,21.12c5.402,5.402,12.867,8.741,21.12,8.741h66.902h14.537
		c-8.252,0-15.718-3.339-21.12-8.741C107.49,170.069,104.151,162.604,104.151,154.351z"/>
</g>
</svg>