<?xml version="1.0" encoding="utf-8"?>
<!-- Uploaded to: SVG Repo, www.svgrepo.com, Generator: SVG Repo Mixer Tools -->
<svg width="800px" height="800px" viewBox="0 0 64 64" xmlns="http://www.w3.org/2000/svg" xmlns:xlink="http://www.w3.org/1999/xlink" aria-hidden="true" role="img" class="iconify iconify--emojione" preserveAspectRatio="xMidYMid meet">
<path d="M36.8 30.4S51.4 39 64 64L33.6 33.6l3.2-3.2" fill="#94989b">
</path>
<path d="M30.4 36.8S39 51.4 64 64L33.6 33.6l-3.2 3.2" fill="#d0d0d0">
</path>
<path d="M3.6 13.7c-1-1-1-2.7 0-3.8l6.3-6.3c1-1 2.7-1 3.8 0l22.6 25.1c1 1 1 2.7 0 3.8l-3.8 3.8c-1 1-2.7 1-3.8 0L3.6 13.7" fill="#3e4347">
</path>
<g fill="#d3976e">
<path d="M5.8 13.1l7.4-7.3c1-1 1-2.7 0-3.8l-.2-.2c-.8-.8-2-1-3-.5c-2.5-1.9-6-1.7-8.2.5C-.4 4-.6 7.5 1.3 9.9c-.4 1-.3 2.2.5 3l.2.2c1 1 2.7 1 3.8 0">
</path>
<path d="M44.2 8.7c-2.8-1.3-5.8-.4-7.6 2.2c-2 3-1.3 5.7 0 7.2c1.3 1.6 3.3 2.1 5.1 1.3c.9-.4 1.3-1.4.9-2.3c-.4-.9-1.4-1.3-2.3-.9c-.3.1-.6 0-.9-.4c-.6-.7-.5-1.8.3-3c1.1-1.7 2.5-1.3 3.3-1c1.6.7 2.8 2.6 2.2 5c-1.1 4-5.2 9.7-11.8 16.3c-6.9 6.7-12.5 10.8-16.5 11.9c-2.3.6-4.3-.6-5-2.2c-.3-.7-.7-2.1 1-3.3c1.2-.8 2.3-.9 3-.3c.3.3.5.7.4.9c-.4.9 0 1.9.9 2.3c.9.4 1.9 0 2.3-.9c.8-1.7.3-3.7-1.3-5.1c-1.5-1.2-4.2-2-7.2 0c-2.7 1.8-3.5 4.8-2.2 7.6c1.3 2.9 4.9 5.2 9.1 4.1c4.7-1.3 10.7-5.5 17.9-12.7c7.2-7.2 11.4-13.2 12.7-17.9c1-3.9-1.4-7.5-4.3-8.8">
</path>
</g>
</svg>