<svg xmlns="http://www.w3.org/2000/svg" width="800" height="800" viewBox="0 0 512 512" xmlns:v="https://vecta.io/nano"><path d="M263.309 454.193l1.843.076c12.185.285 24.129-3.425 34.153-10.357l16.264-11.245c6.631-4.585 16.039-2.358 19.379 4.979l.145.323-37.222 24.52-23.216 3.564c-.001 0-10.567-5.803-11.346-11.86z" fill="#a06260"/><path d="M307.154 475.534s22.242-15.151 39.766-24.509c9.105-4.863 5.165-18.961-5.126-18.138l-.462.042c-1.301.129-2.541.621-3.66 1.296l-31.819 19.183c-3.87 2.332-7.971 4.235-12.272 5.619-6.594 2.121-16.397 4.363-26.627 3.461-.001 0 24.227 12.247 40.2 13.046z" fill="#ba8280"/><linearGradient gradientUnits="userSpaceOnUse" id="A" x1="236.272" x2="236.272" y1="378.962" y2="-21.006"><stop offset=".015" stop-color="#e54254"/><stop offset="1" stop-color="#ff94a6"/></linearGradient><path d="M234.971 403.179c-4.015.598-8.112-.687-10.979-3.562-8.273-8.297-28.464-25.216-57.628-27.833 0 0-13.959-.416-19.443-7.687 0 0-31.938-44.375-19.604-92.033.662-2.557 3.857-3.46 5.735-1.604 2.007 1.982 4.597 4.222 7.339 5.753 3.01 1.681 6.687 1.531 9.573-.354 3.594-2.348 9.323-6.406 14.302-11.344 7.528-7.467 10.891-18.475 7.664-28.575-2.004-6.273-6.501-12.556-16.106-15.33-2.145-.619-3.374-2.786-2.687-4.91 2.493-7.704 8.679-24.69 17.678-35.161 1.406-1.636 3.396-2.639 5.553-2.718 9.439-.342 38.737-3.31 55.638-26.404 2.403-3.284 4.325-6.939 5.36-10.875 2.128-8.099 1.968-20.999-18.156-25.506 0 0-24.014-5.447-11.965-31.907 0 0 6.066-15.166 20.844-24.336 2.317-1.438 5.205.835 4.316 3.413-1.918 5.567-4.014 13.471-3.305 19.949.572 5.227 4.496 9.46 9.629 10.598 10.313 2.286 39.395 11.786 38.67 46.165-.064 3.038-2.067 5.662-4.898 6.764-7.93 3.087-22.573 13.607-12.852 48.38 0 0 6.104 20.264 23.438 20.996 11.066.467 12.518-8.555 12.566-12.992.014-1.226 1.127-2.127 2.314-1.82 10.018 2.593 47.709 14.878 50.068 53.387.221 3.597-1.055 7.163-3.471 9.837-8.768 9.706-28.27 36.122-7.389 60.622 3.018 3.54 3.631 8.533 1.811 12.813-6.797 15.989-27.508 51.355-80.682 62.798l-23.333 3.476z" fill="url(#A)"/><path d="M303.576 176.95c0 5.395-3.225 9.769-8.619 9.769a9.77 9.77 0 0 1-9.77-9.769 9.77 9.77 0 0 1 9.77-9.769c5.395 0 8.619 4.374 8.619 9.769z" fill="#ff697b"/><path d="M257.586 12.486c-1.79-1.826-4.662-2.179-6.729-.673-2.655 1.935-5.849 6.328-6.288 16.295 0 0 .276 4.233-.702 8.298-.583 2.418 1.625 4.542 4.007 3.823a26.09 26.09 0 0 0 1.062-.346c8.813-3.069 14.109-12.57 11.771-21.605-.547-2.111-1.512-4.149-3.121-5.792z" fill="#ff94a6"/><path d="M228.887 218.66c-3.488 4.791-7.526 11.104-9.616 17.063a5.84 5.84 0 0 0 .834 5.43c3.505 4.684 8.993 16.998-13.984 31.788 0 0-21.642 11.159-21.98 33.816 0 0 .37 41.326 39.769 51.081 6.043 1.497 12.307 1.846 18.524 1.522 5.823-.304 13.667-1.106 20.454-3.163 2.926-.887 5.437-2.744 7.326-5.148 3.302-4.2 9.441-11.396 16.186-16.224 3.195-2.288 5.554-5.521 6.473-9.343 2.129-8.861 3.688-25.211-7.575-40.405-1.005-1.356-3.08-1.349-3.95.098-2.135 3.543-6.619 8.734-14.24 7.767-7.121-.904-13.057-8.163-13.099-15.341-.028-4.796 1.679-9.584 8.299-10.383 2.085-.251 3.265-2.554 2.315-4.427-2.395-4.716-7.922-12.129-20.094-16.619-6.014-2.219-10.78-7.121-12.016-13.41-.655-3.332-.791-7.471.101-12.535.381-2.169-2.431-3.347-3.727-1.567zm-3.553-22.769c0 3.575-4.305 7.739-7.88 7.739s-6.473-2.898-6.473-6.473 5.149-9.005 8.724-9.005 5.629 4.164 5.629 7.739z" fill="#fbb04d"/><path d="M342.029 432.871l-.57.047c-1.233.115-2.554.565-3.673 1.24l-31.752 19.25c-3.87 2.332-7.971 4.235-12.272 5.619-6.066 1.952-14.859 3.975-24.191 3.587l5.262 3.436c.052.015 14.454 3.62 34.836-8.18l29.317-18.842c3.038-1.952 6.478-3.285 10.075-3.604 0 0-2.325-2.826-7.032-2.553z" fill="#ddaea9"/><path d="M129.095 449.737v40.638c0 4.355 3.07 8.094 7.349 8.902 12.418 2.346 32.791 4.867 64.936-8.834 0 0 29.715-14.66 67.714-3.688 0 0 25.5 7.594 47.98 8.898a19.98 19.98 0 0 0 14.363-4.927c9.025-7.913 28.203-23.331 49.91-32.364 8.446-3.517 8.148-15.705-.467-18.785-.704-.252-1.436-.476-2.195-.667-1.852-.466-3.785-.419-5.601.169-6.38 2.07-24.247 8.383-39.004 18.459-9.546 6.518-21.147 9.26-32.546 7.342-14.113-2.376-32.765-7.367-47.639-17.845-8.29-5.839-11.988-16.719-7.716-25.915.81-1.741 1.865-3.37 3.237-4.742l42.453-40.354c3.648-3.527 1.955-9.654-2.973-10.868-6.752-1.663-15.916-2.034-24.285 3.944l-26.939 23.571c-2.742 2.399-6.267 3.674-9.909 3.555-12.952-.425-46.76 2.56-70.525 41.408-1.706 2.788-4.627 4.587-7.865 5.034-3.532.486-8.423.933-13.623.712-3.625-.153-6.655 2.727-6.655 6.357z" fill="#ffd3cd"/><path d="M265.924 459.203c6.949-.168 21.904-1.51 32.102-9.486l18.965-12.447c3.355-2.202 7.023-3.949 10.935-4.848.601-.138 1.291-.289 1.915-.389-4.255-2.427-9.891-2.395-14.271.634l-16.271 11.251c-10.022 6.931-21.966 10.637-34.147 10.352-1.17-.027-1.842-.076-1.842-.076.221 1.736 1.26 3.446 2.614 5.009z" fill="#ba8280"/><path d="M269.094 486.755s25.5 7.595 47.98 8.899a19.98 19.98 0 0 0 14.363-4.927c9.025-7.913 28.203-23.331 49.909-32.364 8.447-3.516 8.149-15.705-.466-18.785-.704-.252-1.436-.476-2.195-.667-1.852-.466-3.785-.419-5.601.169-6.38 2.07-24.247 8.383-39.004 18.459-9.546 6.518-21.147 9.26-32.546 7.342-14.113-2.376-32.765-7.367-47.639-17.845-8.29-5.839-11.988-16.719-7.716-25.915.81-1.741 1.865-3.37 3.237-4.742l42.453-40.354c1.977-1.91 2.342-4.568 1.518-6.812-2.583-.196-5.074-.119-7.379.157-7.377.883-14.232 4.243-19.686 9.289l-28.403 26.279c-2.7 2.498-6.156 4.058-9.82 4.385-35.401 3.161-53.286 25.592-61.157 39.786-3.987 7.19-11.476 11.707-19.698 11.707h-18.151v29.558c0 4.355 3.07 8.094 7.349 8.901 12.418 2.347 32.791 4.868 64.936-8.833.002.001 29.717-14.659 67.716-3.687z" fill="#ddaea9"/><path d="M385.938 443.563c-1.107-1.745-2.792-3.175-5.057-3.984l-2.195-.667c-1.852-.466-3.785-.419-5.601.169-6.38 2.07-24.247 8.383-39.004 18.459-9.546 6.518-21.147 9.26-32.546 7.342-12.254-2.063-27.924-6.109-41.578-13.995 16.08 14.538 38.57 20.753 51.041 23.2 5.57 1.092 11.32-.264 15.936-3.567 27.238-19.495 50.316-25.343 59.004-26.957z" fill="#ffd3cd"/><g fill="#fff"><path d="M252.629 339.908c-4.7 4.491-10.457 5.172-17.874 4.723-7.732-.468-18.152-5.784-20.933-17.254 0 0-1.659-7.229.735-14.433 1.748-5.259 6.051-9.181 11.145-11.364 2.759-1.182 6.597-3.727 7.518-8.904.313-1.757 2.379-2.617 3.915-1.709 2.826 1.672 6.501 4.478 8.259 8.472 0 0 2.102 6.286 6.785 10.137 4.336 3.564 7.287 8.641 7.096 14.25-.181 5.26-1.701 11.354-6.646 16.082z"/><circle cx="220.354" cy="287.217" r="3.414"/></g><circle cx="280.172" cy="258.792" fill="#fbb04d" r="3.85"/></svg>