<?xml version="1.0" encoding="iso-8859-1"?>
<!-- Uploaded to: SVG Repo, www.svgrepo.com, Generator: SVG Repo Mixer Tools -->
<svg height="800px" width="800px" version="1.1" id="Layer_1" xmlns="http://www.w3.org/2000/svg" xmlns:xlink="http://www.w3.org/1999/xlink" 
	 viewBox="0 0 511.99 511.99" xml:space="preserve">
<path id="SVGCleanerId_0" style="fill:#E6E9ED;" d="M418.754,483.881l-15.078-15.077c-4.156-4.172-4.156-10.922,0-15.078
	c4.172-4.172,10.922-4.172,15.078,0l15.093,15.078c4.156,4.172,4.156,10.921,0,15.077
	C429.675,488.053,422.926,488.053,418.754,483.881z"/>
<g>
	<path id="SVGCleanerId_0_1_" style="fill:#E6E9ED;" d="M418.754,483.881l-15.078-15.077c-4.156-4.172-4.156-10.922,0-15.078
		c4.172-4.172,10.922-4.172,15.078,0l15.093,15.078c4.156,4.172,4.156,10.921,0,15.077
		C429.675,488.053,422.926,488.053,418.754,483.881z"/>
</g>
<g>
	<path style="fill:#E6E9ED;" d="M422.426,423.555c-1.938-1.922-3.125-4.594-3.125-7.531c0-5.891,4.766-10.672,10.655-10.672h21.328
		c5.89,0,10.671,4.781,10.671,10.672s-4.781,10.656-10.671,10.656h-21.328C427.019,426.68,424.348,425.492,422.426,423.555z"/>
	<path style="fill:#E6E9ED;" d="M358.426,508.881c-1.922-1.938-3.125-4.609-3.125-7.547v-21.328c0-5.89,4.781-10.671,10.672-10.671
		s10.672,4.781,10.672,10.671v21.328c0,5.891-4.781,10.656-10.672,10.656C363.035,511.99,360.363,510.803,358.426,508.881z"/>
</g>
<path style="fill:#656D78;" d="M342.786,297.197c-1.375-1.391-2.391-3.156-2.844-5.203c-1.922-8.531-2.484-16.906-1.672-24.898
	c0.594-5.858,5.828-10.124,11.687-9.53s10.125,5.827,9.531,11.687c-0.578,5.711-0.156,11.789,1.266,18.07
	c1.281,5.75-2.328,11.453-8.078,12.734C348.973,300.9,345.286,299.682,342.786,297.197z M347.535,255.16
	c-3.218-3.219-4.124-8.281-1.874-12.531c3.343-6.312,7.796-12.266,13.233-17.719c0.688-0.688,1.406-1.375,2.125-2.047
	c4.297-4.015,11.047-3.781,15.062,0.516c4.031,4.312,3.797,11.062-0.516,15.078c-0.547,0.516-1.078,1.031-1.594,1.547
	c-3.938,3.922-7.125,8.172-9.469,12.609c-2.75,5.203-9.203,7.187-14.406,4.437C349.129,256.535,348.269,255.894,347.535,255.16z
	 M378.176,225.488c-0.578-0.578-1.094-1.234-1.547-1.969c-3.078-5.015-1.516-11.578,3.5-14.656
	c6.438-3.968,12.078-7.734,17.266-11.515c4.75-3.484,11.422-2.453,14.891,2.297c3.484,4.766,2.453,11.437-2.297,14.906
	c-5.641,4.141-11.75,8.218-18.688,12.468C387.004,229.66,381.582,228.894,378.176,225.488z M412.785,199.723
	c-0.062-0.062-0.125-0.125-0.188-0.188c-4.062-4.266-3.906-11.016,0.359-15.078c0.656-0.641,1.312-1.281,1.953-1.922
	c4.203-4.203,7.812-8.469,10.703-12.703c3.328-4.859,9.968-6.109,14.827-2.781c4.859,3.328,6.109,9.969,2.781,14.828
	c-3.641,5.312-8.094,10.609-13.219,15.75c-0.766,0.75-1.53,1.516-2.327,2.266C423.473,203.895,416.863,203.801,412.785,199.723z
	 M436.3,164.052c-2.672-2.672-3.844-6.703-2.672-10.594c1.719-5.75,2.375-11.515,2-17.656c-0.359-5.875,4.125-10.922,10-11.281
	s10.938,4.109,11.28,10c0.531,8.547-0.437,16.984-2.843,25.046c-1.688,5.64-7.641,8.843-13.281,7.156
	C439.034,166.207,437.518,165.27,436.3,164.052z M434.253,121.646c-1.094-1.094-1.953-2.422-2.5-3.969
	c-2.016-5.656-4.843-11.609-8.39-17.687c-2.969-5.093-1.25-11.625,3.828-14.593c5.093-2.969,11.624-1.25,14.593,3.828
	c4.219,7.234,7.609,14.39,10.062,21.312c1.969,5.547-0.938,11.641-6.484,13.625C441.362,125.583,437.065,124.458,434.253,121.646z"
	/>
<path style="fill:#965353;" d="M421.348,9.351c-12.469-12.468-32.766-12.468-45.25,0L59.392,326.072
	c-12.477,12.483-12.477,32.78,0,45.248c12.468,12.469,32.765,12.469,45.241,0L421.347,54.6
	C433.815,42.132,433.815,21.835,421.348,9.351z"/>
<g>
	<path style="fill:#656D78;" d="M355.519,326.822c-0.422-0.406-0.797-0.859-1.156-1.359c-0.297-0.422-3.031-4.297-6.188-10.641
		c-2.64-5.266-0.5-11.672,4.766-14.297c5.266-2.641,11.672-0.5,14.312,4.766c2.422,4.844,4.484,7.797,4.5,7.812
		c3.391,4.812,2.25,11.469-2.547,14.859C364.91,331.01,359.129,330.432,355.519,326.822z"/>
	<path style="fill:#656D78;" d="M412.941,84.256c-0.328-0.328-0.641-0.688-0.938-1.078c-1.984-2.594-4.141-5.266-6.375-7.938
		c-3.781-4.516-3.188-11.234,1.328-15.031c4.516-3.781,11.234-3.188,15.016,1.328c2.453,2.906,4.797,5.844,6.984,8.703
		c3.562,4.672,2.671,11.375-2.016,14.938C422.66,88.459,416.66,87.975,412.941,84.256z"/>
</g>
<path style="fill:#AAB2BC;" d="M347.723,354.681l36.562,0.016C394.066,312.775,340.052,310.244,347.723,354.681z"/>
<path style="fill:#FFCE54;" d="M421.348,9.351c-12.469-12.468-32.766-12.468-45.25,0L330.865,54.6l0,0l45.233,45.25l45.25-45.25
	C433.815,42.132,433.815,21.835,421.348,9.351z"/>
<path style="fill:#F6BB42;" d="M368.566,107.381l-45.249-45.234c-4.172-4.172-4.172-10.921,0-15.093
	c4.156-4.156,10.922-4.156,15.078,0l45.249,45.25c4.156,4.171,4.156,10.921,0,15.078
	C379.473,111.552,372.723,111.552,368.566,107.381z"/>
<g>
	<polygon style="fill:#7F4545;" points="71.345,314.119 161.836,314.119 183.163,292.791 92.673,292.791 	"/>
	<polygon style="fill:#7F4545;" points="116.595,268.861 207.085,268.861 228.413,247.535 137.922,247.535 	"/>
	<polygon style="fill:#7F4545;" points="161.836,223.628 252.327,223.628 273.646,202.301 183.163,202.301 	"/>
</g>
<path style="fill:#CCD1D9;" d="M418.754,363.227c-29.094-29.109-76.468-29.109-105.561,0c-29.109,29.108-29.109,76.468,0,105.576
	c29.108,29.108,76.467,29.108,105.561,0C447.862,439.695,447.862,392.336,418.754,363.227z"/>
<path id="SVGCleanerId_1" style="fill:#E6E9ED;" d="M313.193,378.32l-15.094-15.093c-4.156-4.156-4.156-10.906,0-15.078
	c4.172-4.156,10.922-4.156,15.094,0l15.077,15.078c4.156,4.171,4.156,10.921,0,15.093
	C324.099,382.476,317.349,382.476,313.193,378.32z"/>
<g>
	<path id="SVGCleanerId_1_1_" style="fill:#E6E9ED;" d="M313.193,378.32l-15.094-15.093c-4.156-4.156-4.156-10.906,0-15.078
		c4.172-4.156,10.922-4.156,15.094,0l15.077,15.078c4.156,4.171,4.156,10.921,0,15.093
		C324.099,382.476,317.349,382.476,313.193,378.32z"/>
</g>
<g>
	<path style="fill:#E6E9ED;" d="M273.115,423.555c-1.922-1.922-3.117-4.594-3.117-7.531c0-5.891,4.773-10.672,10.664-10.672h21.328
		c5.891,0,10.656,4.781,10.656,10.672s-4.766,10.656-10.656,10.656h-21.328C277.709,426.68,275.053,425.492,273.115,423.555z"/>
	<path style="fill:#E6E9ED;" d="M403.676,378.32c-4.156-4.172-4.156-10.922,0-15.093l15.078-15.078
		c4.172-4.156,10.921-4.156,15.093,0c4.156,4.172,4.156,10.922,0,15.078l-15.093,15.093
		C414.598,382.476,407.848,382.476,403.676,378.32z"/>
	<path style="fill:#E6E9ED;" d="M298.099,483.881c-4.156-4.156-4.156-10.905,0-15.077l15.094-15.078
		c4.156-4.172,10.905-4.172,15.077,0c4.156,4.156,4.156,10.906,0,15.078l-15.077,15.077
		C309.021,488.053,302.271,488.053,298.099,483.881z"/>
	<path style="fill:#E6E9ED;" d="M373.519,423.555c-4.172,4.172-10.922,4.172-15.094,0c-4.156-4.156-4.156-10.906,0-15.078
		c4.172-4.172,10.922-4.172,15.094,0C377.676,412.648,377.676,419.398,373.519,423.555z"/>
	<path style="fill:#E6E9ED;" d="M396.129,400.93c-4.156,4.172-10.906,4.172-15.078,0c-4.156-4.156-4.156-10.906,0-15.078
		c4.172-4.156,10.922-4.156,15.078,0C400.301,390.023,400.301,396.773,396.129,400.93z"/>
	<path style="fill:#E6E9ED;" d="M396.129,446.18c-4.156,4.171-10.906,4.171-15.078,0c-4.156-4.156-4.156-10.922,0-15.078
		c4.172-4.172,10.922-4.172,15.078,0C400.301,435.258,400.301,442.023,396.129,446.18z"/>
	<path style="fill:#E6E9ED;" d="M350.894,446.18c-4.172,4.171-10.921,4.171-15.093,0c-4.156-4.156-4.156-10.922,0-15.078
		c4.172-4.172,10.921-4.172,15.093,0C355.051,435.258,355.051,442.023,350.894,446.18z"/>
	<path style="fill:#E6E9ED;" d="M350.894,400.93c-4.172,4.172-10.921,4.172-15.077,0c-4.172-4.156-4.172-10.906,0-15.078
		c4.156-4.156,10.905-4.156,15.077,0C355.051,390.023,355.051,396.773,350.894,400.93z"/>
</g>
</svg>