<?xml version="1.0" encoding="iso-8859-1"?>
<!-- Uploaded to: SVG Repo, www.svgrepo.com, Generator: SVG Repo Mixer Tools -->
<svg version="1.1" id="Layer_1" xmlns="http://www.w3.org/2000/svg" xmlns:xlink="http://www.w3.org/1999/xlink" 
	 viewBox="0 0 495.2 495.2" xml:space="preserve">
<path style="fill:#E4C6A1;" d="M128,91.6v267.2c-12.8-16-33.6-27.2-56-27.2S29.6,342,16,358.8V91.6c0-31.2,24.8-56,56-56
	S128,60.4,128,91.6z"/>
<path style="fill:#FFF8EF;" d="M424,347.6c-31.2,0-56,24.8-56,56h-1.6H352v-272h-24v-16h24v-16H144v16h24v16h-24v272h-6.4H128
	c0-31.2-24.8-56-56-56s-56,24.8-56,56c0,10.4,3.2,20,8,28.8v-4.8h16v16h-7.2c10.4,9.6,24,16,39.2,16h65.6h196H424
	c16,0,29.6-6.4,40-16.8v-15.2h10.4c3.2-7.2,5.6-15.2,5.6-24C480,372.4,455.2,347.6,424,347.6z M105.6,443.6H72.8v-16h32.8
	C105.6,427.6,105.6,443.6,105.6,443.6z M264,115.6h32v16h-32V115.6z M292.8,241.2l-14.4,8c-3.2-6.4-8-12-12.8-16.8l11.2-12
	C283.2,226.8,288.8,234,292.8,241.2z M200,115.6h32v16h-32V115.6z M170.4,443.6h-32.8v-16h32.8V443.6z M180,210l-8.8-13.6l17.6-12
	l-11.2-17.6l13.6-8.8l12,17.6l17.6-11.2l8.8,13.6L212,190l11.2,17.6l-13.6,8.8l-12-17.6L180,210z M236,443.6h-32.8v-16H236V443.6z
	 M227.2,212.4l4-16c8.8,2.4,16.8,4.8,24,8.8l-7.2,14.4C242.4,217.2,235.2,214,227.2,212.4z M300.8,443.6H268v-16h32.8V443.6z
	 M326.4,356.4l-24.8,24.8c-1.6,1.6-3.2,2.4-5.6,2.4s-4-0.8-5.6-2.4l-24.8-24.8c-8-8-12.8-19.2-12.8-30.4s4.8-22.4,12.8-30.4
	c6.4-7.2,14.4-11.2,22.4-12c0-4-0.8-8.8-1.6-13.6l16-3.2c1.6,6.4,1.6,12.8,2.4,16.8c8,1.6,16,5.6,22.4,12c8,8,12.8,19.2,12.8,30.4
	S334.4,347.6,326.4,356.4z M366.4,443.6h-32.8v-16h32.8V443.6z M431.2,443.6h-32.8v-16h32.8V443.6z"/>
<path style="fill:#EE5656;" d="M281.6,325.2c0,8,6.4,14.4,14.4,14.4s14.4-6.4,14.4-14.4s-6.4-14.4-14.4-14.4
	S281.6,317.2,281.6,325.2z M323.2,325.2c0,7.2-2.4,14.4-8,19.2L296,363.6l-19.2-19.2c-4.8-4.8-8-12-8-19.2s2.4-14.4,8-19.2
	c4.8-4.8,12-8,19.2-8s14.4,3.2,19.2,8C320,311.6,323.2,318,323.2,325.2z"/>
<path style="fill:#E4C6A1;" d="M480,91.6v267.2c-13.6-16-33.6-27.2-56-27.2s-42.4,10.4-56,27.2V91.6c0-31.2,24.8-56,56-56
	S480,60.4,480,91.6z"/>
<g>
	<rect x="398.4" y="427.6" style="fill:#42210B;" width="32.8" height="16"/>
	<rect x="333.6" y="427.6" style="fill:#42210B;" width="32.8" height="16"/>
	<rect x="268" y="427.6" style="fill:#42210B;" width="32.8" height="16"/>
	<rect x="264" y="115.6" style="fill:#42210B;" width="32" height="16"/>
	<path style="fill:#42210B;" d="M296,339.6c-8,0-14.4-6.4-14.4-14.4s6.4-14.4,14.4-14.4s14.4,6.4,14.4,14.4S304,339.6,296,339.6z
		 M297.6,325.2c0-0.8-0.8-1.6-1.6-1.6s-1.6,0.8-1.6,1.6C294.4,326.8,297.6,326.8,297.6,325.2z"/>
	<path style="fill:#42210B;" d="M292.8,241.2l-14.4,8c-3.2-6.4-8-12-12.8-16.8l11.2-12C283.2,226.8,288.8,234,292.8,241.2z"/>
	<path style="fill:#42210B;" d="M315.2,344.4c4.8-4.8,8-12,8-19.2s-2.4-14.4-8-19.2c-4.8-4.8-12-8-19.2-8s-14.4,3.2-19.2,8
		c-4.8,4.8-8,12-8,19.2s2.4,14.4,8,19.2l19.2,19.2L315.2,344.4z M265.6,294.8c6.4-5.6,14.4-10.4,22.4-11.2c0-4-0.8-8.8-1.6-13.6
		l16-3.2c1.6,6.4,1.6,12.8,2.4,16.8c8,1.6,16,5.6,22.4,12c8,8,12.8,19.2,12.8,30.4c0,11.2-4.8,22.4-12.8,30.4l-24.8,24.8
		c-1.6,1.6-3.2,2.4-5.6,2.4s-4-0.8-5.6-2.4l-24.8-24.8c-8-8-12.8-19.2-12.8-30.4C252.8,314,257.6,303.6,265.6,294.8z"/>
	<path style="fill:#42210B;" d="M227.2,212.4l4-16c8.8,2.4,16.8,4.8,24,8.8l-7.2,14.4C242.4,217.2,235.2,214.8,227.2,212.4z"/>
	<rect x="203.2" y="427.6" style="fill:#42210B;" width="32.8" height="16"/>
	<rect x="200" y="115.6" style="fill:#42210B;" width="32" height="16"/>
	<polygon style="fill:#42210B;" points="211.2,190 222.4,207.6 209.6,215.6 197.6,198.8 180,210 172,197.2 188.8,185.2 177.6,167.6 
		190.4,159.6 202.4,176.4 220,165.2 228,178 	"/>
	<rect x="137.6" y="427.6" style="fill:#42210B;" width="32.8" height="16"/>
	<rect x="72.8" y="427.6" style="fill:#42210B;" width="32.8" height="16"/>
	<path style="fill:#42210B;" d="M72,347.6c-31.2,0-56,24.8-56,56c0,10.4,3.2,20,8,28.8v-4.8h16v16h-7.2c10.4,9.6,24,16,39.2,16h65.6
		h196H424c16,0,29.6-6.4,40-16.8v-15.2h10.4c3.2-7.2,5.6-15.2,5.6-24c0-31.2-24.8-56-56-56s-56,24.8-56,56h-1.6H352v-272h-24v-16h24
		v-16H144v16h24v16h-24v272h-6.4H128C128,372.4,103.2,347.6,72,347.6z M424,331.6c22.4,0,42.4,10.4,56,27.2V91.6
		c0-31.2-24.8-56-56-56s-56,24.8-56,56v267.2C381.6,342,401.6,331.6,424,331.6z M72,35.6c-31.2,0-56,24.8-56,56v267.2
		c13.6-16,33.6-27.2,56-27.2s43.2,10.4,56,27.2V91.6C128,60.4,103.2,35.6,72,35.6z M0,91.6c0-40,32-72,72-72c36.8,0,67.2,28,71.2,64
		H352c4-36,34.4-64,71.2-64c40,0,72,32,72,72v312c0,40-32,72-72,72H72c-40,0-72-32-72-72V91.6z"/>
</g>
<g>
	<path style="fill:#D9CDC1;" d="M49.6,437.2c-19.2-17.6-20-48.8-0.8-66.4c22.4-20,56.8-6.4,67.2-0.8c-11.2-15.2-30.4-24.8-52-21.6
		c-22.4,3.2-41.6,19.2-47.2,41.6c-4,16-0.8,30.4,6.4,42.4v-4.8h16v16h-6.4c10.4,9.6,24,16,39.2,16h56
		C86.4,459.6,63.2,449.2,49.6,437.2z"/>
	<path style="fill:#D9CDC1;" d="M464,443.6c-10.4,9.6-24.8,16-40,16h-56c41.6,0,64.8-10.4,78.4-22.4c19.2-17.6,20-48.8,0.8-66.4
		c-22.4-20-56.8-6.4-67.2-0.8c11.2-15.2,30.4-24.8,52-21.6c22.4,3.2,41.6,19.2,47.2,41.6c4,16,0.8,30.4-6.4,42.4v-4.8h-8v16H464z"/>
</g>
</svg>