<?xml version="1.0" encoding="utf-8"?>
<!-- Uploaded to: SVG Repo, www.svgrepo.com, Generator: SVG Repo Mixer Tools -->
<svg width="800px" height="800px" viewBox="0 0 1024 1024" class="icon"  version="1.1" xmlns="http://www.w3.org/2000/svg"><path d="M293.639324 301.859404c20.294332-16.235466 151.831672-115.301874 168.81878-115.301874s165.361227 33.823887 165.361227 33.823887l126.576503 84.334226 56.222817 151.831672s56.222817 8.41839 104.027245 11.274629 67.497446 14.130868 67.497446 39.386038-14.130868 45.098516-53.516906 45.098516-151.831672-5.56215-165.361227-22.549258-73.209925-120.262711-73.209925-120.26271l-104.027245 160.40039s95.608855 64.641207 129.432743 84.785211a73.209925 73.209925 0 0 1 28.111408 90.197033c-11.274629 28.111409-64.641207 177.23717-90.197033 230.603747s-67.497446 56.222817-92.752615 39.386038-25.255169-45.098516-11.274629-81.628315 73.209925-205.348578 73.209925-205.348578-157.544151-104.027245-180.394066-123.720264-14.130868-61.935296-8.41839-87.190465 130.034056-210.159087 130.034056-210.159087l-104.027245-22.549258a903.172957 903.172957 0 0 1-78.772075 47.804428c-42.242277 22.549258-80.726344 49.007055-103.275603 20.895646-11.575286-13.679883 2.555583-40.288008 15.934809-51.111652z" fill="#DAAAAB" /><path d="M375.267639 588.836297l-61.935296 99.81805H124.820544c-30.065678 0-49.157383 30.065678-49.157383 54.869861a46.301144 46.301144 0 0 0 47.804428 50.660667h236.316226l92.752616-125.223547a126.275846 126.275846 0 0 1-77.268792-80.125031z" fill="#DAAAAB" /><path d="M780.252317 151.380687m-92.752616 0a92.752616 92.752616 0 1 0 185.505232 0 92.752616 92.752616 0 1 0-185.505232 0Z" fill="#DAAAAB" /><path d="M573.099798 998.330826a71.255656 71.255656 0 0 1-39.536366-12.026271c-45.098516-30.065678-24.503527-84.033569-17.588422-101.62199 11.575286-30.065678 54.719533-152.883971 68.549745-192.420337-36.529798-24.202871-151.08003-100.569692-170.923377-117.857456-30.81732-26.908781-19.392362-78.772075-13.830212-103.57626s79.674046-136.19752 118.007785-193.322307l-72.608611-15.032839c-12.326928 8.268061-41.490635 27.209438-74.262224 45.098516l-14.281197 7.666748c-38.183411 20.895646-81.327658 45.098516-110.190709 8.719047a43.144247 43.144247 0 0 1-3.908538-43.89589 78.020434 78.020434 0 0 1 22.549258-31.568961c1.503284-1.202627 151.982001-119.060083 179.341768-119.060084 17.438093 0 134.243251 26.15714 169.72075 34.124544a16.836779 16.836779 0 0 1 5.56215 2.405255l126.576503 84.334225a16.836779 16.836779 0 0 1 6.464121 8.117733l52.765264 142.511312c18.039407 2.555583 57.876429 7.666748 92.752616 9.621017 24.954512 1.503284 83.432255 4.960837 83.432255 56.222818 0 38.784724-26.307468 61.935296-70.353685 61.935295-6.313792 0-155.439553 0-178.890782-28.562393-10.673316-12.777913-42.392605-66.896133-61.033326-99.367065l-79.974703 123.269278c27.660423 18.64072 90.197033 60.131355 114.850889 75.164195a90.197033 90.197033 0 0 1 35.176843 110.491365c-3.006568 7.666748-9.32036 24.353199-17.287765 45.098516-21.647288 58.327415-54.569205 146.41985-73.209925 185.805888a94.406228 94.406228 0 0 1-58.928728 55.621504 71.255656 71.255656 0 0 1-18.941377 2.104597z m-131.086355-771.936273h3.607882l104.027244 22.549258a16.836779 16.836779 0 0 1 10.372659 26.006811c-59.229385 87.340794-122.818293 187.008515-126.87716 202.492339s-12.627585 56.974459 3.156897 70.804671 135.295549 93.654586 178.289468 122.367308a16.836779 16.836779 0 0 1 6.614449 19.693019c-2.405254 6.915106-59.379713 169.420094-73.360253 205.799563-15.032839 40.889322-6.313792 53.967891 4.810508 61.484311a37.431769 37.431769 0 0 0 30.065678 4.960837 63.889565 63.889565 0 0 0 37.431768-37.582097c18.039407-38.033082 51.863294-128.981757 72.007298-183.099977 8.117733-21.647288 15.032839-38.784724 17.588422-46.6018a56.072489 56.072489 0 0 0-21.045974-68.850402c-33.823887-20.144004-126.275846-82.680614-130.184385-85.236196a16.836779 16.836779 0 0 1-4.66018-23.150572l104.027245-160.40039a16.536123 16.536123 0 0 1 15.032839-7.666748 16.836779 16.836779 0 0 1 14.130868 8.568718c22.248601 39.085381 60.131355 105.229872 70.955 117.857456 13.379227 9.019703 96.360497 16.987108 153.485284 16.987108 32.170275 0 36.529798-14.281197 36.529798-28.111408 0-7.215763 0-19.54269-51.562637-22.549259-47.954756-2.856239-103.275603-11.124301-105.229872-11.424957a16.836779 16.836779 0 0 1-13.379226-10.823644l-54.418877-146.720507-119.36074-79.674046c-68.249088-15.032839-143.563611-31.268305-157.844808-32.62126-21.045974 7.516419-129.883727 87.791779-159.49842 111.543664a45.098516 45.098516 0 0 0-12.176599 17.438093 13.98054 13.98054 0 0 0-1.202627 10.673316c9.921674 12.477256 29.163707 3.908538 67.497446-17.287765l15.032839-7.967405a895.205552 895.205552 0 0 0 77.118463-46.752128 16.836779 16.836779 0 0 1 9.019703-2.705911z" fill="#892127" /><path d="M341.744408 769.380691H105.428182A63.288251 63.288251 0 0 1 40.786975 701.883245a70.203357 70.203357 0 0 1 66.144491-71.706641h179.04111l56.97446-91.850646a16.836779 16.836779 0 0 1 30.065677 3.307225 109.13841 109.13841 0 0 0 65.994163 69.451715 16.836779 16.836779 0 0 1 9.019703 26.307468l-92.752616 125.223548a16.836779 16.836779 0 0 1-13.529555 6.764777z m-234.812942-105.229872c-19.993676 0-32.320603 22.098273-32.320603 38.033083a30.065678 30.065678 0 0 0 30.967647 33.823887h227.747509l75.164194-101.471662a144.465581 144.465581 0 0 1-53.366578-51.712966l-45.098516 73.360254a16.836779 16.836779 0 0 1-15.032839 7.967404H106.480481zM762.363239 219.479447a109.739723 109.739723 0 1 1 109.739723-109.739724 109.890052 109.890052 0 0 1-109.739723 109.739724z m0-185.65556a75.915836 75.915836 0 1 0 75.915836 75.915836A76.066164 76.066164 0 0 0 762.363239 33.823887z" fill="#892127" /></svg>