<?xml version="1.0" encoding="iso-8859-1"?>
<!-- Uploaded to: SVG Repo, www.svgrepo.com, Generator: SVG Repo Mixer Tools -->
<!DOCTYPE svg PUBLIC "-//W3C//DTD SVG 1.1//EN" "http://www.w3.org/Graphics/SVG/1.1/DTD/svg11.dtd">
<svg height="800px" width="800px" version="1.1" id="Capa_1" xmlns="http://www.w3.org/2000/svg" xmlns:xlink="http://www.w3.org/1999/xlink" 
	 viewBox="0 0 439.322 439.322" xml:space="preserve">
<g>
	<path style="fill:#F99C38;" d="M10.001,439.322c-2.559,0-5.119-0.976-7.071-2.929c-3.905-3.905-3.905-10.237,0-14.143
		L369.662,55.519c3.905-3.904,10.237-3.904,14.143,0c3.905,3.905,3.905,10.237,0,14.143L17.072,436.393
		C15.12,438.346,12.56,439.322,10.001,439.322z"/>
	<path style="fill:#EF5252;" d="M291.932,170.698c-2.559,0-5.118-0.976-7.071-2.929l-13.307-13.307
		c-3.905-3.905-3.906-10.237,0-14.142s10.237-3.906,14.142,0l13.307,13.307c3.905,3.905,3.906,10.237,0,14.142
		C297.05,169.722,294.491,170.698,291.932,170.698z"/>
	<path style="fill:#F9E17A;" d="M274.31,188.32c-2.559,0-5.119-0.976-7.071-2.929l-13.307-13.307
		c-3.905-3.905-3.905-10.237,0-14.143c3.905-3.905,10.237-3.905,14.143,0l13.307,13.307c3.905,3.905,3.905,10.237,0,14.143
		C279.429,187.344,276.869,188.32,274.31,188.32z"/>
	<path style="fill:#EF5252;" d="M256.689,205.941c-2.56,0-5.118-0.976-7.071-2.929l-13.307-13.307
		c-3.905-3.905-3.905-10.237,0-14.142c3.905-3.904,10.237-3.905,14.142,0l13.307,13.307c3.905,3.905,3.905,10.237,0,14.142
		C261.807,204.965,259.248,205.941,256.689,205.941z"/>
	<path style="fill:#F9E17A;" d="M60.571,402.059c-2.559,0-5.119-0.976-7.071-2.929l-13.307-13.307
		c-3.905-3.905-3.905-10.237,0-14.143c3.905-3.905,10.237-3.905,14.143,0l13.307,13.307c3.905,3.905,3.905,10.237,0,14.143
		C65.69,401.083,63.13,402.059,60.571,402.059z"/>
	<path style="fill:#EF5252;" d="M42.949,419.681c-2.559,0-5.119-0.976-7.071-2.929l-13.307-13.307
		c-3.905-3.905-3.905-10.237,0-14.143c3.905-3.905,10.237-3.905,14.143,0l13.307,13.307c3.905,3.905,3.905,10.237,0,14.143
		C48.068,418.704,45.508,419.681,42.949,419.681z"/>
	<path style="fill:#EF5252;" d="M386.761,165.385c0,7.2-1.15,14.52-3.56,21.72c-17.9-6-31.66-18.67-39.47-34.32
		c3.45-7.17,5.23-15.03,5.23-22.96c0-10.06-2.87-20.23-8.86-29.23h0.01C368.701,110.175,386.761,136.815,386.761,165.385z"/>
	<path style="fill:#66C5E2;" d="M343.731,152.785c-3.97,8.28-10.15,15.63-18.35,21.08c-16.17-24.3-9.57-57.1,14.72-73.27
		c5.99,9,8.86,19.17,8.86,29.23C348.961,137.755,347.181,145.615,343.731,152.785z"/>
	<path style="fill:#999999;" d="M391.436,77.287l-14.701-14.701L439.321,0C439.321,0,423.701,36.975,391.436,77.287z"/>
	<path style="fill:#666666;" d="M439.321,0l-62.586,62.586l-14.694-14.694C402.353,15.627,439.321,0,439.321,0z"/>
</g>
</svg>