<?xml version="1.0" encoding="iso-8859-1"?>
<!-- Uploaded to: SVG Repo, www.svgrepo.com, Generator: SVG Repo Mixer Tools -->
<svg height="800px" width="800px" version="1.1" id="Layer_1" xmlns="http://www.w3.org/2000/svg" xmlns:xlink="http://www.w3.org/1999/xlink" 
	 viewBox="0 0 511.992 511.992" xml:space="preserve">
<path style="fill:#ED5564;" d="M181.552,371.275c0-2.828-1.125-5.546-3.125-7.546l-30.171-30.172
	c-4.164-4.171-10.922-4.171-15.086,0l-95.959,95.968c-4.164,4.156-4.164,10.906,0,15.078l30.171,30.171
	c4.164,4.155,10.921,4.155,15.085,0l95.959-95.968C180.427,376.807,181.552,374.103,181.552,371.275z"/>
<path style="fill:#CCD1D9;" d="M490.804,96.617c1.406-1.414,2.391-3.203,2.844-5.148l18.078-78.405
	c0.812-3.586-0.266-7.336-2.859-9.938s-6.359-3.68-9.938-2.852l-78.404,18.062c-1.953,0.453-3.734,1.438-5.141,2.852L140.717,295.84
	c-4.164,4.172-4.164,10.922,0,15.094l60.335,60.342c2,2,4.719,3.125,7.546,3.125c2.828,0,5.539-1.125,7.539-3.125L490.804,96.617z"
	/>
<path style="opacity:0.2;fill:#FFFFFF;enable-background:new    ;" d="M508.866,3.126c-2.594-2.602-6.359-3.68-9.938-2.852
	l-78.404,18.062c-1.953,0.453-3.734,1.438-5.141,2.852L140.717,295.84c-4.164,4.172-4.164,10.922,0,15.094l60.335,60.342
	c2,2,4.719,3.125,7.546,3.125c2.828,0,5.539-1.125,7.539-3.125L490.804,96.617c1.406-1.414,2.391-3.203,2.844-5.148l18.078-78.405
	C512.538,9.477,511.46,5.727,508.866,3.126z M501.319,10.665L483.257,89.07L208.598,363.729l-60.342-60.343L422.915,28.735
	L501.319,10.665L501.319,10.665L501.319,10.665z"/>
<path style="fill:#AAB2BC;" d="M170.88,341.104c-4.164-4.172-4.164-10.921,0-15.093l193.238-193.224
	c4.172-4.164,10.922-4.164,15.078,0c4.172,4.164,4.172,10.922,0,15.086l-193.23,193.23
	C181.802,345.261,175.052,345.261,170.88,341.104z"/>
<g>
	<path style="fill:#DA4453;" d="M77.249,389.478h90.506l10.672-10.672c2-2,3.125-4.703,3.125-7.531c0-1.078-0.164-2.125-0.469-3.125
		H98.584L77.249,389.478z"/>
	<path style="fill:#DA4453;" d="M143.842,413.4H53.328l-16.117,16.125c-1.484,1.484-2.43,3.297-2.859,5.203h88.155L143.842,413.4z"
		/>
</g>
<g>
	<path style="fill:#FFCE54;" d="M253.848,393.9L118.084,258.138c-4.164-4.164-10.914-4.164-15.078,0l-22.632,22.624
		c-4.164,4.172-4.164,10.922,0,15.078l135.763,135.764c2,2,4.711,3.125,7.539,3.125c2.836,0,5.547-1.125,7.547-3.125l22.625-22.625
		C258.011,404.822,258.011,398.057,253.848,393.9z"/>
	<path style="fill:#FFCE54;" d="M85.327,469.321c0-11.391-4.438-22.108-12.492-30.171c-16.64-16.641-43.702-16.641-60.342,0
		c-8.055,8.062-12.492,18.78-12.492,30.171c0,11.39,4.438,22.108,12.492,30.171l0,0l0,0c8.062,8.062,18.773,12.5,30.171,12.5
		s22.109-4.438,30.171-12.5C80.89,491.43,85.327,480.711,85.327,469.321z"/>
</g>
<ellipse style="fill:#F6BB42;" cx="42.664" cy="469.316" rx="10.664" ry="10.671"/>
</svg>