<?xml version="1.0" encoding="utf-8"?>
<!-- Uploaded to: SVG Repo, www.svgrepo.com, Generator: SVG Repo Mixer Tools -->
<svg width="800px" height="800px" viewBox="0 0 1024 1024" class="icon"  version="1.1" xmlns="http://www.w3.org/2000/svg"><path d="M39.76192 512a472.23808 459.43808 0 1 0 944.47616 0 472.23808 459.43808 0 1 0-944.47616 0Z" fill="#C8C6C4" /><path d="M94.09536 512a417.90464 406.57408 0 1 0 835.80928 0 417.90464 406.57408 0 1 0-835.80928 0Z" fill="#FFFFFF" /><path d="M470.24128 512a41.75872 40.6272 0 1 0 83.51744 0 41.75872 40.6272 0 1 0-83.51744 0Z" fill="#5B5144" /><path d="M528.7168 472.93952c0 8.9856-7.48544 16.26624-16.7168 16.26624-9.23136 0-16.7168-7.28064-16.7168-16.26624V253.35808c0-8.9856 7.48544-16.26624 16.7168-16.26624 9.23136 0 16.7168 7.28064 16.7168 16.26624v219.58144zM476.83584 532.25984c7.03488-5.82144 17.5872-4.992 23.56736 1.85344a15.96416 15.96416 0 0 1-1.90464 22.92736l-101.88288 84.3008c-7.03488 5.82144-17.5872 4.992-23.56736-1.85344a15.96416 15.96416 0 0 1 1.90464-22.92736l101.88288-84.3008z" fill="#5B5144" /></svg>