<?xml version="1.0" encoding="utf-8"?>
<!-- Uploaded to: SVG Repo, www.svgrepo.com, Generator: SVG Repo Mixer Tools -->
<svg width="800px" height="800px" viewBox="0 0 1024 1024" class="icon"  version="1.1" xmlns="http://www.w3.org/2000/svg"><path d="M512 512m-512 0a512 512 0 1 0 1024 0 512 512 0 1 0-1024 0Z" fill="#95C4F8" /><path d="M461.334 440c-28 0-69.334-9.064-96-32.532C338.666 384 296 357.334 286.666 357.334c-9.334 0-36.334 21.334-56.834 26.666s-35.166 9.334-56.5 14.666C152 404 110.666 421.334 110.666 421.334s0.98 20.06 0 27.334c-0.98 7.272 118.666 20.666 175.334 14C342.666 456 461.334 440 461.334 440zM952.666 392.666c-34-11-50-18-83-6s-78 31.306-107 32.154c-29 0.846-136.334 29.846-136.334 29.846l347.334-5-21-51z" fill="#926E79" /><path d="M120.116 440H932v184H120.116z" fill="#DDF9FF" /><path d="M932 440H130.4c-4.238 2.516-7.912 4.914-10.284 6.86v4.654c6.552 1.534 23.574-0.22 23.574-0.22 13.81 0 14.91 22.206 27.31 22.206 9.5 0 11.51-10.5 23.5-10.5 9.596 0 4 37 17.5 37 6.818 0 17.166-22.92 22.666-8.252S237.028 528 246 528c11.5 0 16.666-57.334 24-44 7.334 13.334 15.784 15.772 19 0.5 4-19 11-34.5 17.668-15.834 6.666 18.666 7.52 43.334 16.334 43.334 6.624 0 14.334-46.666 21-36 6.666 10.666 12.666 60.666 17.334 45.334 4.666-15.334 17.334-70.666 24-57.334 6.666 13.334 12 9.334 20 2s12.666 39.334 18.666 33.334 16-44 22-34 18 62 23.334 54.666c5.334-7.334 10-61.334 18-52.666S494 490 506.666 490c5.334 0 20.666-42 25.334-28.666s10.318 54.02 19.334 54.02c7.208 0 4-56.02 19.334-56.02 10 0 10.49 30.666 20.666 30.666 7.334 0 19.334-47.334 23.334-32 4 15.334 2.666 94 12.666 94 9.276 0 11.334-96 18-88.666 6.666 7.334 15.334 8.666 22.666-2s6 42.124 14 36.062c8-6.062 9.334-46.062 19.334-35.396 10 10.666 15.972 37.09 23.108 37.09 13.092 0 8.39-31.256 19.42-31.256 14.806 0 11.472 77.072 21.834 77.072 11.638 0 15.636-92.906 27.636-80.24 12 12.666 12.002 31.334 20.668 31.334s15.332-46.666 20-23.334c4.668 23.334 8 60 21.332 31.334 13.336-28.666 11.75-26.398 16.876-17.532 3.398 5.876 37.286-21.614 59.792-40.85V440z" fill="#FFFFFF" /><path d="M0.232 521.142c0.62 35.276 4.794 69.666 12.206 102.858H240c0-40-67.112-73.334-87.064-128-14.276-39.114-4.64-67.41-21.766-80-32.45-23.854-62.846-42.966-110.75-47.11C8.188 410.974 1.238 455.274 0.274 501.072l-0.042 20.07z" fill="#86646A" /><path d="M12.436 624C63.536 852.876 267.72 1024 512 1024s448.464-171.126 499.562-400H12.436z" fill="#B3F4EF" /><path d="M564.386 266.078c-3.818 0-7.428 0.752-10.886 1.842-10.956-15.75-29.132-26.106-49.774-26.106s-38.816 10.356-49.774 26.106c-3.458-1.09-7.068-1.842-10.886-1.842-20.102 0-36.396 16.296-36.396 36.396h194.112c0-20.1-16.294-36.396-36.396-36.396z" fill="#FFFFFF" /><path d="M696.552 288.308c-4.668 0-9.082 0.918-13.31 2.252-13.396-19.256-35.618-31.918-60.854-31.918s-47.458 12.66-60.854 31.918c-4.228-1.334-8.642-2.252-13.31-2.252-24.576 0-44.498 19.922-44.498 44.498h237.322c0.002-24.576-19.922-44.498-44.496-44.498zM817.648 234.948c-2.622 0-5.1 0.516-7.474 1.264-7.522-10.814-20.002-17.924-34.174-17.924s-26.65 7.11-34.174 17.924c-2.374-0.748-4.852-1.264-7.474-1.264-13.8 0-24.988 11.188-24.988 24.988h133.274c-0.002-13.802-11.19-24.988-24.99-24.988zM177.022 241.814c0-18.19 14.746-32.938 32.938-32.938 2.746 0 5.37 0.434 7.92 1.068 8.594-9.282 20.78-15.184 34.428-15.184 25.986 0 47.054 21.066 47.054 47.054h-122.34z" fill="#FFFFFF" /><path d="M256.318 220.476c0-20.616 16.714-37.33 37.33-37.33 3.112 0 6.086 0.492 8.976 1.21 9.74-10.52 23.552-17.208 39.02-17.208 29.452 0 53.328 23.876 53.328 53.328h-138.654z" fill="#FFFFFF" /><path d="M416.142 151.296h157.716c0-16.332-13.24-29.572-29.572-29.572-3.102 0-6.034 0.612-8.844 1.498-8.902-12.798-23.67-21.212-40.442-21.212-8.182 0-15.856 2.062-22.636 5.598-6.916-13.272-20.642-22.434-36.644-22.434-12.03 0-22.772 5.202-30.348 13.384-2.248-0.558-4.562-0.942-6.982-0.942-16.036 0-29.036 13-29.036 29.036h60.05c-7.982 5.296-13.262 14.346-13.262 24.644z" fill="#FFFFFF" /><path d="M722.608 171.208c0-26.17-21.214-47.384-47.384-47.384-3.95 0-7.726 0.624-11.394 1.536-12.364-13.352-29.896-21.844-49.528-21.844-37.386 0-67.692 30.308-67.692 67.692h175.998z" fill="#FFFFFF" /><path d="M71.734 773.334H352c0-20.62-16.714-37.334-37.334-37.334-4.446 0-8.652 0.91-12.606 2.334-10.266-12.71-25.784-21.002-43.394-21.002-12.704 0-24.282 4.39-33.676 11.516-13.614-18.222-35.16-30.184-59.658-30.184-21.072 0-40.024 8.802-53.6 22.842-6.51-2.65-13.604-4.174-21.066-4.174-7.464 0-14.556 1.524-21.068 4.174-8.948-9.254-20.374-15.906-33.06-19.588a510 510 0 0 0 35.196 71.416z" fill="#52C883" /><path d="M1024 512c0-49.034-7.038-96.398-19.906-141.296-38.148 6.07-65.548 22.454-90.708 45.296-36.348 33-75.29 192-145.386 192l-20.97 16 138.486 36 126.048-36c8.052-36.064 12.436-73.51 12.436-112z" fill="#86646A" /><path d="M1024 512c0-27.12-2.148-53.732-6.21-79.71-36.772 1.898-54.514-14.676-63.79 7.71-19.334 46.666-40.362 17.334-50 72-5.29 30-76 98.59-94 109.294S812 670 848 660c22.746-6.318 103.744-15.826 160.326-21.974A512.86 512.86 0 0 0 1024 512zM137.334 544.906c-18.666-16.426-16-59.574-17.216-70.432-1.218-10.86-15.392-21.94-21.45-34.474C89 420 68 407.468 11.012 407.468 4.72 437.794 0.95 469.038 0.276 501.074l-0.044 20.07c0.62 35.276 4.794 69.666 12.206 102.858h222.23c-0.002-17.336-78.668-62.668-97.334-79.096z" fill="#745154" /><path d="M747.03 605.334c-4.28 0-8.034 1.686-11.182 4.108-3.148-2.42-6.902-4.108-11.18-4.108-5.262 0-9.97 2.208-13.364 5.71-3.392-3.5-8.102-5.71-13.362-5.71a18.666 18.666 0 1 0 0 37.332c5.26 0 9.97-2.208 13.362-5.71 3.392 3.5 8.102 5.71 13.364 5.71 4.278 0 8.032-1.688 11.18-4.108 3.148 2.42 6.902 4.108 11.182 4.108a18.666 18.666 0 0 0 18.666-18.666 18.664 18.664 0 0 0-18.666-18.666zM634.338 625.334c0.034-0.464 0.27-0.86 0.27-1.334a18.666 18.666 0 0 0-18.666-18.666c-5.53 0-10.362 2.51-13.78 6.33-3.636-4.468-8.952-7.496-15.162-7.496-6.872 0-12.632 3.712-16.19 9.024-3.396-4.642-8.618-7.856-14.81-7.856-4.462 0-8.394 1.782-11.606 4.394-4.27-5.476-10.854-9.06-18.336-9.06-6.73 0-12.748 2.892-17.006 7.45-2.76-1.61-5.792-2.784-9.218-2.784-3.284 0-6.21 1.074-8.892 2.564-3.178-2.166-6.804-3.73-10.942-3.73-5.746 0-10.82 2.524-14.442 6.428-3.356-3.226-7.872-5.26-12.892-5.26-6.384 0-11.742 3.41-15.108 8.298-3.196-4.222-8.024-7.13-13.726-7.13-5.58 0-10.332 2.78-13.536 6.848-3.542-5.402-9.356-9.182-16.298-9.182-3.884 0-7.298 1.408-10.358 3.336-2.53-1.282-5.28-2.17-8.31-2.17-4.934 0-9.352 1.998-12.69 5.126-2.976-2.34-6.562-3.958-10.642-3.958-5.006 0-9.454 2.156-12.642 5.524-3.424-4.01-8.338-6.692-14.024-6.692-5.486 0-10.3 2.464-13.714 6.234a17.432 17.432 0 0 0-12.286-5.066c-3.824 0-7.174 1.48-10.054 3.562-4.256-5.672-10.974-9.396-18.612-9.396-6.594 0-12.524 2.76-16.768 7.16a17.386 17.386 0 0 0-6.566-1.326 17.5 17.5 0 0 0-17.5 17.5c0 0.472 0.232 0.87 0.27 1.334h404.236z" fill="#FFFFFF" /><path d="M1014.058 612.602c-15.204-14.266-35.562-23.102-58.058-23.102-31.504 0-58.692 17.338-73.374 42.802A50.748 50.748 0 0 0 854 623.5c-6.796 0-13.256 1.388-19.186 3.802-12.366-12.786-29.624-20.802-48.814-20.802s-36.45 8.016-48.812 20.802c-5.93-2.414-12.39-3.802-19.188-3.802s-13.256 1.388-19.186 3.802c-12.364-12.786-29.624-20.802-48.814-20.802-22.308 0-41.93 10.892-54.33 27.488-8.556-6.49-19.102-10.488-30.67-10.488-16.038 0-30.17 7.552-39.52 19.126-3.602-1.298-7.432-2.126-11.48-2.126-18.778 0-34 15.222-34 34h517.514c6.732-20.12 12.33-40.752 16.544-61.898z" fill="#52C883" /><path d="M131.85 604.834c-21.004 0-38.03 12.164-38.03 27.166h76.06c0-15.004-17.026-27.166-38.03-27.166z" fill="#86646A" /><path d="M859.412 647.928c-22.058 0-65.334 46.702-98.264 46.702h162.978c-30.936-23.934-19.708-46.702-64.714-46.702z" fill="#745154" /><path d="M82.086 615.25c-21.004 0-38.03 12.164-38.03 27.166h76.062c-0.002-15.004-17.028-27.166-38.032-27.166zM776.696 660c-24.544 0-72.696 51.962-109.336 51.962h181.338C814.278 685.334 826.772 660 776.696 660z" fill="#86646A" /><path d="M268.238 778.292c-5.036 0-9.8 1.03-14.28 2.646-11.63-14.398-29.208-23.792-49.158-23.792-14.39 0-27.506 4.972-38.15 13.046C151.228 749.548 126.82 736 99.07 736c-15.24 0-29.48 4.096-41.802 11.174a512.48 512.48 0 0 0 46.34 73.41h206.922c0-23.358-18.934-42.292-42.292-42.292z" fill="#43AB5F" /></svg>