<?xml version="1.0" encoding="utf-8"?>
<!-- Uploaded to: SVG Repo, www.svgrepo.com, Generator: SVG Repo Mixer Tools -->
<svg width="800px" height="800px" viewBox="0 0 1024 1024" class="icon"  version="1.1" xmlns="http://www.w3.org/2000/svg"><path d="M512 512m-512 0a512 512 0 1 0 1024 0 512 512 0 1 0-1024 0Z" fill="#9AF4EF" /><path d="M983.064 311.158c-17.026 1.798-31.974 10.328-41.882 23.232-3.7-0.88-7.508-1.468-11.478-1.468-7.73 0-14.956 1.922-21.478 5.078-8.126-16.292-24.784-27.586-44.226-27.586-13.342 0-25.398 5.332-34.31 13.902-4.84-1.578-9.912-2.648-15.278-2.648-7.384 0-14.328 1.72-20.626 4.616-9.052-9.708-21.854-15.87-36.174-15.87-9.628 0-18.538 2.862-26.144 7.61-9.082-10.168-22.15-16.696-36.856-16.696-27.388 0-49.588 22.202-49.588 49.588s22.202 49.588 49.588 49.588c9.626 0 18.538-2.862 26.144-7.61 9.082 10.168 22.15 16.696 36.856 16.696 7.384 0 14.328-1.72 20.626-4.616 9.052 9.708 35.442 53.772 49.764 53.772 13.342 0 11.81-43.234 20.722-51.804 4.84 1.578 9.912 2.648 15.278 2.648 7.73 0 14.956-1.922 21.478-5.078 8.126 16.292 24.784 27.588 44.226 27.588 10.526 0 20.246-3.328 28.274-8.92 9.172 5.544 19.808 8.92 31.308 8.92 9.858 0 19.034-2.566 27.268-6.728-6.792-39.818-18.072-78.098-33.492-114.214zM340.304 301.326c-13.27 0-25.256 5.286-34.156 13.774-8.9-8.488-20.886-13.774-34.156-13.774-11.408 0-21.786 4.006-30.164 10.48-8.378-6.474-18.756-10.48-30.164-10.48-15.65 0-29.436 7.394-38.524 18.716-4.376-1.262-8.906-2.154-13.686-2.154-7.666 0-14.838 1.886-21.318 4.992-9.27-8.48-21.5-13.782-35.054-13.782-14.416 0-27.458 5.856-36.894 15.316-7.98-4.038-16.87-6.526-26.424-6.526-0.562 0-1.082 0.15-1.638 0.166a508.228 508.228 0 0 0-30.778 107.856c9.304 6.152 20.426 9.78 32.416 9.78 19.84 0 54.25 15.034 64.92 0 4.88 1.512 8.498-8.69 13.876-8.69 9.436 0 2.684-16.37 10.318-20.754 8.446 6.672 18.976 10.82 30.576 10.82 15.65 0 29.436-7.392 38.524-18.716 4.376 1.262 8.904 2.154 13.686 2.154 11.408 0 21.786-4.006 30.164-10.48 8.378 6.474 18.756 10.48 30.164 10.48 13.27 0 25.254-5.286 34.154-13.774 8.9 8.488 20.886 13.774 34.156 13.774 27.388 0 49.588-22.202 49.588-49.588 0.002-27.39-22.198-49.59-49.586-49.59z" fill="#00C8B4" /><path d="M0.058 514.286C1.296 795.998 229.998 1024 512 1024s510.704-228.002 511.942-509.714H0.058z" fill="#52C883" /><path d="M74.138 777.374C193.334 769.142 353.236 871 496 871c283.602 0 321.334-105.692 460.844-105.692 42.276-74.098 66.698-159.7 67.098-251.024H0.058c0.422 96.3 27.454 186.304 74.08 263.09z" fill="#34BE71" /><path d="M56.852 746.442c121.936-5.094 346.906-16.208 515.424 8.766 142.666 21.142 302.39 0.224 404.092-28.214 30.062-64.752 47.24-136.694 47.574-212.708H0.058c0.366 83.658 20.862 162.538 56.794 232.156z" fill="#00A07D" /><path d="M24.728 668.922c77.938 41.918 206.56 53.846 359.272 37.86 166.666-17.448 334.732-20.354 456.032-10.9 66.948 5.216 117.966 1.722 150.334-2.454 21.254-55.736 33.298-116 33.576-179.142H0.058a510.416 510.416 0 0 0 24.67 154.636z" fill="#00827E" /><path d="M984.73 708.642c6.2-14.888 11.734-30.12 16.528-45.68l-6.816-148.676h-5.434l-4.278 194.356zM48.906 730.312l-9.504-207.29h-5.28l-3.592 163.186a508.776 508.776 0 0 0 18.376 44.104z" fill="#4F6E6E" /><path d="M976.546 377.084c-16.736 0-32.14 20.876-44.626 48.364-4.796 28.15-7.432 57.036-7.432 86.552 0 32.648 3.186 64.536 9.028 95.486 12.2 8.566 26.99 13.682 43.03 13.682 13.88 0 26.718-4.026 37.874-10.592C1020.646 578.668 1024 545.732 1024 512a514.28 514.28 0 0 0-10.006-100.964c-11.032-20.014-23.794-33.952-37.448-33.952zM9.028 607.486c12.2 8.566 26.99 13.682 43.03 13.682 41.478 0 75.104-33.626 75.104-75.102 0-41.478-33.626-168.982-75.104-168.982-16.736 0-32.14 20.876-44.626 48.364C2.636 453.598 0 482.484 0 512c0 32.648 3.186 64.536 9.028 95.486z" fill="#00A07D" /><path d="M493.652 728.566h-20.304l4.872-221.424h5.28zM433.152 733.424h-20.304L417.72 512h5.28zM560.668 728.566h-17.392l4.174-189.662h4.522zM533.822 717.542h-17.392l4.174-189.662h4.522zM647.518 728.566h-17.392l4.174-189.662h4.522zM823.002 721.116h-17.39l4.174-189.662h4.52zM912.882 717.542h-17.392l4.174-189.662h4.522zM952.882 712.684h-17.392l4.174-189.662h4.522zM127.26 723.524h-17.392l4.174-189.662h4.522zM73.946 721.116h-17.392l4.174-189.662h4.522zM391.142 728.566h-20.304l4.872-221.424h5.28zM321.758 728.566h-20.304l4.872-221.424h5.28zM271.994 728.566h-20.304l4.872-221.424h5.28zM200.354 725.378H180.05l4.874-221.424h5.278z" fill="#00827E" /><path d="M572.276 755.208h-20.304l4.874-221.422h5.278zM619.746 751.172h-20.304l4.872-221.422h5.28zM694.61 751.172h-20.304l4.874-221.422h5.278zM757.61 746.99h-20.304l4.874-221.424h5.278zM834.61 739.404h-20.304l4.874-221.424h5.278zM924.49 728.476h-20.304l4.872-221.424h5.28zM964.49 736.998h-20.304l4.872-221.424h5.28zM147.464 746.99H127.16l4.874-221.424h5.278zM85.554 751.172H65.25l4.874-221.422h5.278z" fill="#4F6E6E" /><path d="M380.99 795.83h-27.754l6.66-302.666h7.216zM465.726 795.83h-27.754l6.662-302.666h7.214zM589.878 793.296h-27.754l6.662-302.666h7.216zM666.576 793.296h-27.754l6.66-302.666h7.216zM801.534 795.83H773.78l6.662-302.666h7.216zM877.876 786.878h-27.752l6.66-302.668H864zM261.842 777.62h-27.754l6.66-302.668h7.216z" fill="#6C5F59" /><path d="M214.232 751.172H193.928L198.8 529.75h5.28zM340.304 752.674H320l4.872-221.422h5.28zM423 755.208h-20.304l4.874-221.422h5.278zM506.152 755.208h-20.304l4.872-221.422H496z" fill="#4F6E6E" /><path d="M118.564 780.026H90.81l6.66-302.668h7.216z" fill="#6C5F59" /><path d="M978.032 591.57c0 54.878-44.486 99.364-99.364 99.364s-99.364-44.486-99.364-99.364S823.79 368 878.668 368s99.364 168.692 99.364 223.57z" fill="#34BE71" /><path d="M873.516 614.666l-4.738 200h29.172l-9.87-200z" fill="#805F59" /><path d="M878.668 644.818l45.568-37.064 5.468 10.01-51.036 45.57z" fill="#805F59" /><path d="M878.666 368c-13.704 0-26.758 10.522-38.634 27.16 3.644-1.486 7.342-2.342 11.094-2.342 54.876 0 99.364 168.692 99.364 223.57 0 22.59-7.626 43.35-20.324 60.042 28.66-17.432 47.866-48.862 47.866-84.86 0-54.878-44.488-223.57-99.366-223.57z" fill="#52C883" /><path d="M261.842 583.036c0 56.976-46.188 103.166-103.166 103.166s-103.166-46.188-103.166-103.166S101.7 350.914 158.676 350.914s103.166 175.146 103.166 232.122z" fill="#34BE71" /><path d="M153.328 607.016l-4.92 207.65h30.29l-10.25-207.65z" fill="#805F59" /><path d="M158.676 638.32l47.312-38.48 5.678 10.392-52.99 47.312z" fill="#805F59" /><path d="M158.676 350.914c-14.228 0-27.782 10.924-40.112 28.2 3.782-1.544 7.622-2.432 11.518-2.432 56.976 0 103.166 175.146 103.166 232.122 0 23.454-7.918 45.008-21.102 62.338 29.756-18.1 49.696-50.732 49.696-88.106 0-56.976-46.188-232.122-103.166-232.122z" fill="#52C883" /><path d="M439.072 195.682c-5.978 0-11.626 1.176-17.04 2.884-17.15-24.654-45.6-40.862-77.908-40.862s-60.758 16.208-77.908 40.862c-5.414-1.708-11.062-2.884-17.04-2.884-31.462 0-56.968 25.506-56.968 56.968H496.04c0-31.462-25.506-56.968-56.968-56.968z" fill="#FFFFFF" /><path d="M721.366 218.702c-3.802 0-7.396 0.748-10.842 1.834-10.912-15.686-29.012-25.998-49.568-25.998-20.556 0-38.656 10.312-49.566 25.998-3.444-1.086-7.038-1.834-10.842-1.834-20.018 0-36.244 16.228-36.244 36.244h193.306c0-20.016-16.226-36.244-36.244-36.244z" fill="#FFFFFF" /><path d="M602.436 477.928c-1.532-6.15-2.434-12.552-2.434-19.182 0-43.434 34.922-78.646 78-78.646 4.524 0 8.93 0.472 13.242 1.218C704.882 372.924 720.852 368 738 368c49.706 0 90 40.628 90 90.744 0 2.248-0.174 4.454-0.334 6.66C850.202 491.032 864 524.646 864 561.59c0 80.186-64.47 145.192-144 145.192s-144-65.006-144-145.192c0.002-31.184 9.842-60.002 26.436-83.662z" fill="#00A07D" /><path d="M733.108 814.666h-25.206l6.048-255.346h6.554z" fill="#805F59" /><path d="M716.22 657.844l-56.716-46.13-6.806 3.782 63.522 56.716zM720 601.966l-38.484-31.302-4.62 2.566L720 611.714zM720 633.644l56.716-46.128 6.806 3.782L720 648.012z" fill="#805F59" /><path d="M827.666 465.406c0.16-2.208 0.334-4.412 0.334-6.66C828 408.628 787.706 368 738 368c-17.148 0-33.118 4.922-46.758 13.316-4.312-0.746-8.718-1.218-13.242-1.218-23.292 0-43.964 10.504-58.256 26.826 8.24-2.986 16.996-4.896 26.254-4.896 4.524 0 8.93 0.472 13.242 1.216 13.64-8.392 29.61-13.316 46.758-13.316 49.706 0 90 40.628 90 90.746 0 2.25-0.172 4.454-0.334 6.66C818.202 512.96 832 546.576 832 583.518c0 42.936-18.594 81.398-47.976 107.98C831.382 667.72 864 618.554 864 561.588c0-36.942-13.796-70.556-36.334-96.182z" fill="#36B294" /><path d="M427.688 443.904c1.7-6.772 2.702-13.822 2.702-21.12 0-47.824-38.768-86.592-86.592-86.592-5.022 0-9.914 0.52-14.7 1.34-15.142-9.24-32.872-14.662-51.908-14.662-55.18 0-99.914 44.732-99.914 99.914 0 2.476 0.192 4.902 0.37 7.334-25.018 28.216-40.336 65.226-40.336 105.902 0 88.288 71.572 159.862 159.862 159.862s159.862-71.572 159.862-159.862c0-34.334-10.924-66.064-29.346-92.116z" fill="#00A07D" /><path d="M427.688 443.904c1.7-6.772 2.702-13.822 2.702-21.12 0-47.824-38.768-86.592-86.592-86.592-5.022 0-9.914 0.52-14.7 1.34-15.142-9.24-32.872-14.662-51.908-14.662-41.054 0-76.288 24.78-91.658 60.182 17.798-20.506 44.09-33.538 73.496-33.538 18.492 0 35.712 5.228 50.42 14.138 4.65-0.792 9.402-1.292 14.28-1.292 46.454 0 84.112 37.384 84.112 83.498 0 7.038-0.974 13.836-2.626 20.366 17.894 25.12 28.506 55.716 28.506 88.824 0 48.716-22.822 92.082-58.366 120.332 48.716-27.392 81.68-79.494 81.68-139.362 0-34.332-10.924-66.062-29.346-92.114z" fill="#36B294" /><path d="M311.606 814.666h-27.754L290.512 512h7.216z" fill="#805F59" /><path d="M293.01 628.678l-62.446-50.79-7.492 4.164 69.938 62.444zM297.174 602.034l62.446-50.79 7.492 4.164-69.938 62.446z" fill="#805F59" /><path d="M668.754 369.366c2.042-8.132 3.246-16.6 3.246-25.366 0-57.438-46.562-104-104-104-6.032 0-11.906 0.624-17.656 1.61-18.186-11.1-39.48-17.61-62.344-17.61-66.274 0-120 53.726-120 120 0 2.974 0.232 5.888 0.444 8.808C338.396 386.696 320 431.148 320 480c0 106.038 85.96 192 192 192s192-85.962 192-192c0-41.238-13.12-79.344-35.246-110.634z" fill="#34BE71" /><path d="M668.754 369.366c2.042-8.132 3.246-16.6 3.246-25.366 0-57.438-46.562-104-104-104-6.032 0-11.906 0.624-17.656 1.61-18.186-11.1-39.48-17.61-62.344-17.61-49.308 0-91.626 29.762-110.084 72.282C399.292 271.654 430.872 256 466.188 256c22.208 0 42.892 6.278 60.558 16.98 5.586-0.95 11.292-1.552 17.15-1.552 55.792 0 101.022 44.9 101.022 100.286 0 8.454-1.168 16.618-3.154 24.46C663.256 426.346 676 463.092 676 502.856c0 58.51-27.412 110.594-70.1 144.524C664.41 614.482 704 551.904 704 480c0-41.238-13.12-79.344-35.246-110.634zM350.056 380.208c-0.064-0.878-0.074-1.77-0.134-2.65-2.05 3.226-3.938 6.554-5.798 9.904 1.962-2.43 3.852-4.924 5.932-7.254z" fill="#52C883" /><path d="M529.334 814.666H496l8-337.666h8.666z" fill="#805F59" /><path d="M507 607.286l-75-61-9 5 84 75zM512 533.392L461.108 492l-6.108 3.392 57 50.894zM512 575.286l75-61 9 5-84 75z" fill="#805F59" /><path d="M413.118 132.31c0-22.192 17.99-40.182 40.182-40.182 3.35 0 6.552 0.53 9.662 1.302 10.484-11.322 25.35-18.522 42-18.522 31.702 0 57.402 25.7 57.402 57.402h-149.246z" fill="#FFFFFF" /><path d="M619.742 140.31c0-13.448-10.886-24.35-24.314-24.35-2.026 0-3.964 0.322-5.846 0.788-6.344-6.862-15.34-11.226-25.416-11.226-19.184 0-34.736 15.574-34.736 34.786h90.312z" fill="#FFFFFF" /><path d="M720 194.538c0-15.602 12.63-28.25 28.208-28.25 2.352 0 4.6 0.372 6.782 0.916 7.36-7.96 17.796-13.022 29.484-13.022 22.256 0 40.296 18.068 40.296 40.356H720z" fill="#FFFFFF" /></svg>