<?xml version="1.0" encoding="utf-8"?>
<!-- Uploaded to: SVG Repo, www.svgrepo.com, Generator: SVG Repo Mixer Tools -->
<svg width="800px" height="800px" viewBox="0 0 1024 1024" class="icon"  version="1.1" xmlns="http://www.w3.org/2000/svg"><path d="M512 512m-512 0a512 512 0 1 0 1024 0 512 512 0 1 0-1024 0Z" fill="#95C4F8" /><path d="M43.004 306.582a508.01 508.01 0 0 0-34.082 110.516A1468.928 1468.928 0 0 0 8 468.002c0 46.844 6.842 92.168 19.41 135.276 93.25 4.716 240.856 4.724 240.856 4.724l81.066-124-53.332-1.336c-99.966 0-168.286-139.894-252.996-176.084zM878.934 410.666c-54.934 0-77.6 72.534-150.934 72.534l24 168.8s188 15.76 204 19.88c9.06 2.334 29.652-4.348 45.822-10.584C1016.202 614.054 1024 563.944 1024 512c0-3.652-0.2-7.252-0.276-10.886-2.97-2.37-113.484-90.448-144.79-90.448z" fill="#7E7E92" /><path d="M677.334 920l272.154-141.902c31.346-51.426 53.77-108.848 65.394-170.098 0 0-107.882 3-150.88-16-52.872-23.362-172.708-188.688-247.66-287.936-13.936-17.528-27.46-33.802-40.34-48.064-22.226-24.612-87.134-32-96-32-7.682 0-69.876 73.168-115.272 128.006C296.294 435.574 215.72 536.28 176 576l-66.55 136 567.884 208z" fill="#6E6E84" /><path d="M961.334 638.642c-78.666 0-156.76 11.758-249.334-66.642-36-30.488-71.596-59.804-102-23-19 23-54.196 99-98 67s-62.254-130.9-104-132c-34-0.896-62 48.684-87.044 21.334C304.468 487.328 153 593 153 593s155 137.624 177 136.312 151.804 18.512 151.804 18.512 46.046 54.234 69.694 45.51c23.648-8.724 81.432 9.47 114.558-5.212 33.126-14.68 191.122-80.122 194.532-88.122s100.746-61.358 100.746-61.358z" fill="#5F5F74" /><path d="M351.5 608.002c-25.408-11.602-19.882-41.8-48-51.002-27.5-9-31-15.5-46.5-29s-36.56 4.632-50.5-23C198.428 488.998 164 482 149.5 468s-40.384-9.368-51.5-14c-24-10-14.5-24.5-43-21.5-19.936 2.098-30.53-13.892-45.442-18.964a512.316 512.316 0 0 0-8.684 69.388L126 551s122 39.5 131 43 146.568 62.932 142.504 57.48c-7.254-9.73-27.754-34.23-48.004-43.478z" fill="#36B294" /><path d="M461.382 718.572c-7.464-3.722-24.844-13.104-40.048-33.238S406 652 388 643c-20.238-10.12-20-11-44-23s-24-20-38.5-37c-15.908-18.65-40.598-17.626-64.598-28.292S206.744 525.086 192 518c-14.744-7.086-24 0.666-37.334-6.132-18.07-9.214-19.128-35.37-41.678-32.704-22.55 2.666-28.164 10.628-43.656-3.164-25.834-23-37.834-8.5-66.564-17.34A518.146 518.146 0 0 0 0 512c0 43.218 5.414 85.164 15.496 125.252 22.786 4.446 47.75 9.182 72.618 14.748 77.446 17.334 281.22 81.334 353.22 93.334s27.514-23.04 20.048-26.762z" fill="#00A07D" /><path d="M1.91 554.708C14.226 703.698 90.232 834.578 202.756 920h184.818L640 768C430.066 768 313.044 555.59 1.91 554.708z" fill="#52C883" /><path d="M512 1024c249.94 0 457.926-179.138 502.88-415.998C825.562 608.058 593.984 844.964 384 816c-116-16-146-48.066-295.886-16.792C180.206 934.862 335.684 1024 512 1024z" fill="#34BE71" /><path d="M442.044 891.558a4.834 4.834 0 0 1-4.838-4.834v-52.07a4.834 4.834 0 0 1 4.838-4.834 4.834 4.834 0 0 1 4.838 4.834v52.07a4.834 4.834 0 0 1-4.838 4.834z" fill="#674447" /><path d="M472.514 830.218c0 16.828-13.642 30.47-30.47 30.47s-30.47-13.642-30.47-30.47 13.642-68.558 30.47-68.558 30.47 51.73 30.47 68.558z" fill="#00A07D" /><path d="M442.042 761.66c-4.224 0-8.246 3.266-11.904 8.414 15.402 0 27.888 47.346 27.888 62.748 0 13.398-9.456 24.568-22.052 27.254a30.62 30.62 0 0 0 6.066 0.612c16.828 0 30.47-13.642 30.47-30.47 0.004-16.828-13.638-68.558-30.468-68.558z" fill="#36B294" /><path d="M835.34 747.824a6.676 6.676 0 0 1-6.68-6.674V669.26a6.676 6.676 0 0 1 6.68-6.674 6.676 6.676 0 0 1 6.68 6.674v71.89a6.676 6.676 0 0 1-6.68 6.674z" fill="#674447" /><path d="M877.408 663.136c0 23.234-18.834 42.068-42.07 42.068s-42.068-18.834-42.068-42.068 18.834-94.656 42.068-94.656 42.07 71.422 42.07 94.656z" fill="#00A07D" /><path d="M835.338 568.48c-5.832 0-11.386 4.508-16.436 11.618h0.002c21.266 0 38.504 65.368 38.504 86.634 0 18.498-13.054 33.92-30.446 37.628 2.708 0.548 5.506 0.844 8.376 0.844 23.234 0 42.07-18.834 42.07-42.068 0-23.234-18.836-94.656-42.07-94.656z" fill="#36B294" /><path d="M943.674 757.192a6.676 6.676 0 0 1-6.68-6.674v-71.89c0-3.686 2.988-6.674 6.68-6.674s6.68 2.988 6.68 6.674v71.89a6.678 6.678 0 0 1-6.68 6.674z" fill="#674447" /><path d="M985.74 672.502c0 23.234-18.834 42.068-42.07 42.068s-42.068-18.834-42.068-42.068c0-23.234 18.834-94.656 42.068-94.656s42.07 71.422 42.07 94.656z" fill="#00A07D" /><path d="M943.672 577.848c-5.832 0-11.386 4.508-16.436 11.618h0.002c21.266 0 38.504 65.368 38.504 86.634 0 18.498-13.054 33.92-30.446 37.628 2.708 0.548 5.506 0.844 8.376 0.844 23.234 0 42.07-18.834 42.07-42.068 0-23.236-18.836-94.656-42.07-94.656z" fill="#36B294" /><path d="M584.426 848.528a6.676 6.676 0 0 1-6.68-6.674v-71.89c0-3.686 2.988-6.674 6.68-6.674s6.68 2.988 6.68 6.674v71.89a6.676 6.676 0 0 1-6.68 6.674z" fill="#674447" /><path d="M626.494 763.84c0 23.234-18.834 42.07-42.068 42.07s-42.07-18.834-42.07-42.07 18.834-94.656 42.07-94.656 42.068 71.422 42.068 94.656z" fill="#00A07D" /><path d="M584.424 669.184c-5.832 0-11.386 4.508-16.436 11.618h0.002c21.266 0 38.504 65.368 38.504 86.634 0 18.498-13.054 33.92-30.446 37.628 2.708 0.546 5.506 0.844 8.376 0.844 23.234 0 42.07-18.834 42.07-42.068 0-23.234-18.836-94.656-42.07-94.656z" fill="#36B294" /><path d="M496.43 880.226a6.216 6.216 0 0 1-6.22-6.214v-66.938c0-3.432 2.782-6.214 6.22-6.214s6.22 2.782 6.22 6.214v66.938a6.216 6.216 0 0 1-6.22 6.214z" fill="#674447" /><path d="M535.6 801.37c0 21.634-17.538 39.172-39.172 39.172s-39.172-17.538-39.172-39.172c0-21.634 17.538-88.136 39.172-88.136s39.172 66.502 39.172 88.136z" fill="#00A07D" /><path d="M496.428 713.234c-5.43 0-10.602 4.198-15.304 10.818h0.002c19.8 0 35.852 60.866 35.852 80.666 0 17.224-12.156 31.584-28.348 35.036 2.522 0.51 5.128 0.786 7.8 0.786 21.634 0 39.172-17.538 39.172-39.172-0.002-21.632-17.54-88.134-39.174-88.134z" fill="#36B294" /><path d="M971.46 737.756C688 684 627.98 904.49 183.622 904.544 272.528 979.008 386.956 1024 512 1024c201.714 0 376.042-116.712 459.46-286.244z" fill="#44A67D" /><path d="M710.084 329.848c0-25.022 20.284-45.306 45.306-45.306 3.776 0 7.388 0.598 10.894 1.468 11.822-12.766 28.584-20.884 47.356-20.884 35.746 0 64.722 28.978 64.722 64.722h-168.278z" fill="#FFFFFF" /><path d="M616.34 304.064c-13.936-17.528-27.46-33.802-40.34-48.064-22.226-24.612-87.134-32-96-32-7.682 0-69.876 73.168-115.272 128.006-17.402 21.25-35.588 43.606-53.688 65.79 7.826 10.92 22.968 26.3 45.388 24.114 44.122-4.304 52.73-55.958 86.09-51.656C487.962 396.118 481.064 528 528.61 528c46.274 0 14.184-100.02 68.872-120.528 40.284-15.106 55.136 28.204 123.02 33.83-37.13-47.468-74.226-97.598-104.162-137.238z" fill="#C3E1F5" /><path d="M635.5 329.53c-6.622-8.82-13.07-17.404-19.158-25.466-13.936-17.528-27.46-33.802-40.34-48.064-22.226-24.612-87.134-32-96-32-5.354 0-37.19 35.55-71.36 75.654 37.36-29.654 57.744-17.452 64.692 17.236 16.046 80.11 33.334 144.442 53.334 93.776s11.21-79.682 69.876-73.666c23.156 2.374 27.926-4.406 38.956-7.47z" fill="#EDF5FB" /><path d="M240.902 352c0-27.148 22.008-49.154 49.154-49.154 4.098 0 8.014 0.648 11.82 1.592 12.826-13.852 31.012-22.658 51.378-22.658 38.782 0 70.22 31.438 70.22 70.22h-182.572zM734.958 319.292c-3.432 0-6.676 0.676-9.784 1.656-9.846-14.154-26.182-23.462-44.73-23.462s-34.884 9.306-44.73 23.462c-3.108-0.98-6.352-1.656-9.784-1.656-18.064 0-32.708 14.644-32.708 32.708h174.446c-0.002-18.064-14.646-32.708-32.71-32.708z" fill="#FFFFFF" /><path d="M252.934 292.07c-2.604 0-5.066 0.512-7.424 1.256-7.472-10.74-19.866-17.802-33.942-17.802s-26.47 7.062-33.942 17.802c-2.358-0.744-4.82-1.256-7.424-1.256-13.708 0-24.82 11.112-24.82 24.82h132.368c0.002-13.708-11.11-24.82-24.816-24.82z" fill="#FFFFFF" /><path d="M621.88 126.002c-2.43 0-4.726 0.478-6.926 1.172-6.97-10.02-18.536-16.61-31.668-16.61s-24.698 6.588-31.668 16.61c-2.202-0.694-4.498-1.172-6.926-1.172-4.44 0-8.548 1.312-12.074 3.48-7.472-16.198-23.75-27.502-42.76-27.502-13.684 0-25.904 5.918-34.52 15.224-2.556-0.634-5.188-1.07-7.942-1.07-18.24 0-33.026 14.788-33.026 33.026h230.666c0.002-12.79-10.366-23.158-23.156-23.158z" fill="#FFFFFF" /><path d="M627.776 126.002c-2.43 0-4.726 0.478-6.926 1.172-6.97-10.02-18.536-16.61-31.668-16.61s-24.698 6.588-31.668 16.61c-2.202-0.694-4.498-1.172-6.926-1.172-4.44 0-8.548 1.312-12.074 3.48-7.472-16.198-23.75-27.502-42.76-27.502-13.684 0-25.904 5.918-34.52 15.224-2.556-0.634-5.188-1.07-7.942-1.07-18.24 0-33.026 14.788-33.026 33.026h230.666c0.002-12.79-10.366-23.158-23.156-23.158z" fill="#FFFFFF" /><path d="M364.6 190.272c-1.98 0-3.852 0.39-5.646 0.956-5.682-8.168-15.108-13.54-25.812-13.54-7.894 0-15.064 2.952-20.58 7.76-7.528-10.864-20.05-18.006-34.268-18.006-12.096 0-22.898 5.23-30.514 13.458-2.26-0.562-4.586-0.946-7.02-0.946-16.124 0-29.194 13.07-29.194 29.194h171.91a18.876 18.876 0 0 0-18.876-18.876z" fill="#FFFFFF" /><path d="M898.144 176c-7.492-8.602-15.178-17.028-23.22-25.11-0.638 0.478-1.33 0.888-1.93 1.412-7.528-10.864-20.05-18.006-34.268-18.006-12.096 0-22.898 5.23-30.514 13.458-2.26-0.562-4.586-0.946-7.02-0.946C785.07 146.806 772 159.876 772 176H898.144z" fill="#FFFFFF" /><path d="M961.33 454.572c-31.752-22.166-66.844-43.906-82.396-43.906-34.78 0-56.654 29.046-86.614 50.38l0.022 0.014c49.658-8.394 53.284 55.61 76.284 55.61 26.914 0 27.648-34.326 54.04-22.67 51.334 22.67 12.668-30.332 38.664-39.428z" fill="#C3E1F5" /><path d="M930.126 433.898c-21.262-13.25-40.698-23.232-51.194-23.232-23.774 0-41.534 13.616-59.952 29.018 26.202 11.424 46.988 44.714 79.164 23.314 21.324-14.182 25.194-22.828 31.982-29.1z" fill="#EDF5FB" /><path d="M778.278 777.858a8.308 8.308 0 0 1-8.312-8.304v-89.45c0-4.586 3.718-8.304 8.312-8.304s8.312 3.718 8.312 8.304v89.45a8.308 8.308 0 0 1-8.312 8.304z" fill="#674447" /><path d="M830.62 672.484c0 28.91-23.436 52.344-52.344 52.344s-52.344-23.436-52.344-52.344 23.436-117.776 52.344-117.776 52.344 88.866 52.344 117.776z" fill="#00A07D" /><path d="M778.276 554.708c-7.258 0-14.168 5.61-20.45 14.456h0.002c26.46 0 47.908 81.336 47.908 107.796 0 23.016-16.244 42.206-37.882 46.82 3.37 0.68 6.852 1.05 10.422 1.05 28.91 0 52.346-23.436 52.346-52.344-0.002-28.912-23.438-117.778-52.346-117.778z" fill="#36B294" /><path d="M892.546 764.948a7.848 7.848 0 0 1-7.852-7.846v-84.514c0-4.334 3.514-7.846 7.852-7.846s7.852 3.514 7.852 7.846v84.514a7.846 7.846 0 0 1-7.852 7.846z" fill="#674447" /><path d="M942.002 665.386c0 27.314-22.142 49.456-49.456 49.456-27.314 0-49.456-22.142-49.456-49.456s22.142-111.278 49.456-111.278c27.312 0 49.456 83.964 49.456 111.278z" fill="#00A07D" /><path d="M892.544 554.108c-6.856 0-13.386 5.3-19.322 13.658h0.002c25 0 45.266 76.848 45.266 101.848 0 21.746-15.346 39.876-35.792 44.236 3.184 0.644 6.474 0.992 9.848 0.992 27.314 0 49.458-22.142 49.458-49.456-0.002-27.314-22.146-111.278-49.46-111.278z" fill="#36B294" /><path d="M714.124 787.346a6.854 6.854 0 0 1-6.856-6.852v-73.798c0-3.784 3.068-6.852 6.856-6.852s6.856 3.068 6.856 6.852v73.798a6.854 6.854 0 0 1-6.856 6.852z" fill="#674447" /><path d="M757.308 700.41c0 23.85-19.334 43.186-43.186 43.186-23.85 0-43.186-19.334-43.186-43.186s19.334-97.168 43.186-97.168c23.85 0 43.186 73.318 43.186 97.168z" fill="#00A07D" /><path d="M714.122 603.242c-5.988 0-11.688 4.628-16.872 11.926h0.002c21.83 0 39.526 67.104 39.526 88.934 0 18.988-13.402 34.82-31.254 38.628 2.78 0.562 5.652 0.866 8.598 0.866 23.85 0 43.186-19.334 43.186-43.186 0-23.85-19.336-97.168-43.186-97.168z" fill="#36B294" /><path d="M655.95 864.916a9.74 9.74 0 0 1-9.746-9.738v-104.892c0-5.378 4.36-9.738 9.746-9.738s9.746 4.36 9.746 9.738v104.892a9.74 9.74 0 0 1-9.746 9.738z" fill="#674447" /><path d="M717.328 741.35c0 33.9-27.482 61.382-61.382 61.382s-61.382-27.482-61.382-61.382 27.482-138.108 61.382-138.108c33.902 0 61.382 104.208 61.382 138.108z" fill="#00A07D" /><path d="M655.948 603.242c-8.51 0-16.612 6.578-23.98 16.95h0.002c31.028 0 56.18 95.376 56.18 126.404 0 26.99-19.048 49.492-44.422 54.902 3.952 0.798 8.034 1.232 12.222 1.232 33.9 0 61.382-27.482 61.382-61.38-0.004-33.9-27.486-138.108-61.384-138.108z" fill="#36B294" /><path d="M512 1024c134.728 0 257.206-52.112 348.588-137.198C805 896 720.502 802 632.586 836.292c-39.172 15.28-163.79 120.992-272.384 164.66C408.182 1015.838 459.124 1024 512 1024z" fill="#5F5F74" /><path d="M632.586 836.292c-39.172 15.28-163.79 120.992-272.384 164.66 3.658 1.134 7.444 1.958 11.136 3.012C481.126 978 610.396 862 653.334 860.688c12.256-0.374 91.334 59.31 135.856 81.654 25.424-16.428 49.336-34.998 71.4-55.542-55.59 9.2-140.088-84.8-228.004-50.508z" fill="#6E6E84" /></svg>