<?xml version="1.0" encoding="utf-8"?>
<!-- Uploaded to: SVG Repo, www.svgrepo.com, Generator: SVG Repo Mixer Tools -->
<svg width="800px" height="800px" viewBox="0 0 1024 1024" class="icon"  version="1.1" xmlns="http://www.w3.org/2000/svg"><path d="M512.00002 512m-512 0a512 512 0 1 0 1024 0 512 512 0 1 0-1024 0Z" fill="#B26483" /><path d="M826.54802 591.27c-3.434 0-6.68 0.676-9.79 1.656-9.852-14.164-26.198-23.476-44.758-23.476s-34.906 9.312-44.758 23.476c-3.11-0.98-6.356-1.656-9.79-1.656-18.076 0-32.73 14.654-32.73 32.73h174.554c0.002-18.076-14.652-32.73-32.728-32.73z" fill="#9B5A6F" /><path d="M422.06802 544m-304 0a304 304 0 1 0 608 0 304 304 0 1 0-608 0Z" fill="#FF7998" /><path d="M299.45002 701.69m-142.616 0a142.616 142.616 0 1 0 285.232 0 142.616 142.616 0 1 0-285.232 0Z" fill="#FF7998" /><path d="M588.15802 624c0-30.606 24.812-55.42 55.42-55.42 4.62 0 9.036 0.73 13.326 1.796 14.46-15.616 34.964-25.546 57.926-25.546C758.55402 544.83 794.00002 580.276 794.00002 624H588.15802z" fill="#9B5A6F" /><path d="M992.94602 688H272.00002l159.97 224s125.22 54.33 220.78 92.248C810.40002 959.25 937.04002 840.728 992.94602 688z" fill="#FF4F70" /><path d="M319.00002 793h220.666C512.00002 760.666 458.17202 772.348 418.33402 742c-36.926-28.128-70.14-92.332-140.334-104-70.192-11.67-106-14-106-14l133 186 14-2.774V793z" fill="#835354" /><path d="M592.00002 576c-5.036 0-9.796 0.992-14.358 2.43C563.19202 557.658 539.22202 544 512.00002 544s-51.192 13.658-65.642 34.43c-4.562-1.438-9.322-2.43-14.358-2.43-26.51 0-48 21.49-48 48h256c0-26.51-21.49-48-48-48z" fill="#B26483" /><path d="M673.00002 295.6h-99.948c1.792-5.03 2.948-10.362 2.948-16 0-21.626-14.376-39.954-34.062-45.938C535.95402 213.968 517.62602 199.6 496.00002 199.6h-96c-21.626 0-39.954 14.368-45.938 34.062C334.37602 239.648 320.00002 257.976 320.00002 279.6c0 5.638 1.156 10.97 2.95 16h-34.384c-26.468 0-48 21.532-48 48s21.532 48 48 48H384.00002c26.468 0 48-21.532 48-48 0-5.638-1.156-10.97-2.948-16h21.896c-1.792 5.03-2.948 10.362-2.948 16 0 26.468 21.532 48 48 48h2.734a48.012 48.012 0 0 0-2.734 16c0 26.468 21.532 48 48 48h64c26.468 0 48-21.532 48-48 0-5.61-0.968-10.992-2.734-16h19.734c26.468 0 48-21.532 48-48s-21.532-48-48-48zM512.00002 1024c136.366 0 260.18-53.416 351.938-140.332-70.032-1.708-86.56-16.984-210.064-16.984-52.354 0-189.37 46.536-240.186-51.468-40.03-77.202-112.41-139.194-171.562-154.404-50.038-12.868-64.334-61.476-68.624-120.094-4.504-61.56-54.328-62.906-85.78-102.936-29.666-37.758-28.846-80.56-62.244-85.304A511.286 511.286 0 0 0 0.00002 512c0 282.77 229.23 512 512 512z" fill="#674447" /><path d="M272.91602 682.226a16.416 16.416 0 0 1-11.644-4.824c-6.432-6.432-26.476-11.932-19.102-17.26 41.04-29.654 107.618-117.934 131.226-166.294 5.644-11.554 4.648-12.728-4.808-23.906-11.868-14.04-29.8-35.244-29.8-84.142a16.464 16.464 0 0 1 16.468-16.468 16.464 16.464 0 0 1 16.468 16.468c0 36.836 11.692 50.666 22.016 62.872 10.84 12.81 24.332 28.754 9.248 59.632-25.298 51.816-84.638 137.236-121.32 173.92-3.216 3.218-4.538 0.002-8.752 0.002z" fill="#674447" /><path d="M371.74202 550.482a16.466 16.466 0 0 1-10.47-29.196c18.8-15.414 45.64-22.218 74.058-29.414 36.474-9.24 74.186-18.784 85.894-46.59 3.538-8.394 13.252-12.294 21.566-8.788 8.394 3.53 12.318 13.188 8.796 21.574-18.076 42.916-65.936 55.04-108.168 65.736-24.75 6.264-48.15 12.19-61.24 22.942a16.43 16.43 0 0 1-10.436 3.736z" fill="#674447" /><path d="M1008.00002 544c-27.222 0-51.192 13.658-65.642 34.43-4.562-1.438-9.322-2.43-14.358-2.43-26.51 0-48 21.49-48 48h131.564a511.276 511.276 0 0 0 11.224-78.474c-4.806-0.906-9.714-1.526-14.788-1.526z" fill="#9B5A6F" /></svg>