<?xml version="1.0" encoding="utf-8"?>
<!-- Uploaded to: SVG Repo, www.svgrepo.com, Generator: SVG Repo Mixer Tools -->
<svg width="800px" height="800px" viewBox="0 0 1024 1024" class="icon"  version="1.1" xmlns="http://www.w3.org/2000/svg"><path d="M512 512m-512 0a512 512 0 1 0 1024 0 512 512 0 1 0-1024 0Z" fill="#9AF4EF" /><path d="M0.334 498.79C0.222 503.192 0 507.57 0 512c0 39.73 4.674 78.344 13.238 115.474 95.518 59.654 311.474 101.3 562.762 101.3 161.688 0 308.72-17.258 418.524-45.438C1013.552 629.756 1024 572.108 1024 512c0-24.138-1.794-47.846-5.026-71.094-125.04-61.034-268.944-85.808-442.974-85.808-263.306-0.002-487.87 79.434-575.666 143.692z" fill="#C5F8F1" /><path d="M3.112 551.09c-0.112 4.128-0.31 8.236-0.336 12.386 2.216 21.744 5.65 43.128 10.462 63.998 95.518 59.654 311.474 101.3 562.762 101.3 161.688 0 308.72-17.258 418.524-45.438C1013.552 629.756 1024 572.108 1024 512c0-12.148-0.46-24.184-1.324-36.11-119.76-42.342-209.256-57.712-362.03-45.47-282.22 22.612-563.13 56.414-657.534 120.67z" fill="#DEFBF2" /><path d="M88.766 478.968c-22.874 5.968-58.164 17.676-88.644 28.22C0.106 508.798 0 510.386 0 512c0 73.412 15.564 143.154 43.392 206.276 51.192 4.58 119.344 10.498 129.684 10.498 16.86 0 144.028-158.496 144.028-158.496-93.808-8.754-180.862-103.698-228.338-91.31zM1023.52 530.998c-70.546-33.542-128.308-73.45-169.006-68.548-51.418 6.194-218.644 79.504-218.644 79.504l222.968 144.636h134.586c17.712-48.828 28.106-101.134 30.096-155.592z" fill="#B0EB81" /><path d="M994.166 586.052c0-27.806-22.194-136.238-36.23-136.238s-36.23 108.432-36.23 136.238c0 24.84 12.974 38.546 30.002 41.204v34.086a6.228 6.228 0 0 0 6.23 6.226 6.228 6.228 0 0 0 6.23-6.226v-34.086c17.026-2.66 29.998-16.366 29.998-41.204z" fill="#94D75B" /><path d="M933.006 598.92c0-19.426-15.504-95.178-25.312-95.178s-25.312 75.752-25.312 95.178c0 17.354 9.064 26.928 20.96 28.786v23.812a4.35 4.35 0 0 0 8.704 0v-23.814c11.898-1.858 20.96-11.432 20.96-28.784zM198.388 618.188c0-19.426-15.504-95.178-25.312-95.178-9.806 0-25.312 75.752-25.312 95.178 0 17.354 9.064 26.928 20.96 28.786v23.812a4.35 4.35 0 0 0 8.704 0v-23.814c11.896-1.856 20.96-11.43 20.96-28.784zM136.466 613.428c0-14.588-11.644-71.472-19.008-71.472-7.364 0-19.008 56.886-19.008 71.472 0 13.032 6.806 20.222 15.74 21.616v17.882a3.266 3.266 0 0 0 6.536 0v-17.882c8.934-1.396 15.74-8.586 15.74-21.616zM88.766 613.858c0-18.542-14.8-90.848-24.16-90.848s-24.16 72.306-24.16 90.848c0 16.564 8.652 25.704 20.006 27.476v22.73a4.152 4.152 0 0 0 8.308 0v-22.73c11.356-1.774 20.006-10.912 20.006-27.476z" fill="#94D75B" /><path d="M281.806 704.686a16.512 16.512 0 0 1-16.516-16.516V429.42c0-9.12 7.388-16.516 16.516-16.516s16.516 7.396 16.516 16.516v258.75a16.512 16.512 0 0 1-16.516 16.516z" fill="#674447" /><path d="M437.226 488.14c7.562-10.888 12.056-24.064 12.056-38.324 0-30.102-19.882-55.29-47.13-63.916-0.242-0.198-0.438-0.448-0.682-0.646 2.432-6.886 4.008-14.18 4.008-21.898 0-36.486-29.578-66.064-66.064-66.064-5.284 0-10.354 0.78-15.28 1.952-14.96-21.108-39.462-34.984-67.302-34.984-45.608 0-82.58 36.972-82.58 82.58 0 9.584 1.952 18.644 4.956 27.204-32.304 16.328-54.504 49.738-54.504 88.41 0 54.558 44.096 98.796 98.59 99.072 13.944 12.718 32.318 20.67 52.678 20.67 15.138 0 29.144-4.488 41.13-11.916 6.15 1.15 12.464 1.828 18.95 1.828 12.524 0 24.47-2.346 35.572-6.44 32.29 4.484 64.838 8.244 66.886 5.516 1.642-2.188-2.034-30.296-7.054-63.342a103.128 103.128 0 0 0 5.77-19.702z" fill="#43AB5F" /><path d="M437.226 488.14c7.562-10.888 12.056-24.064 12.056-38.324 0-30.102-19.882-55.29-47.13-63.916-0.242-0.198-0.438-0.448-0.682-0.646 2.432-6.886 4.008-14.18 4.008-21.898 0-36.486-29.578-66.064-66.064-66.064-5.284 0-10.354 0.78-15.28 1.952-14.96-21.108-39.462-34.984-67.302-34.984-21.406 0-40.722 8.354-55.394 21.712 6.844-1.838 13.906-3.132 21.33-3.132 27.84 0 52.342 13.876 67.302 34.984 4.926-1.172 9.996-1.952 15.28-1.952 36.486 0 66.064 29.578 66.064 66.064 0 7.718-1.574 15.014-4.008 21.898 0.244 0.196 0.44 0.446 0.682 0.646 27.248 8.626 47.13 33.814 47.13 63.916 0 14.262-4.492 27.436-12.056 38.324a103.27 103.27 0 0 1-5.77 19.7c2.516 16.568 4.692 31.886 6.034 43.328 19.044 2.19 33.734 3.234 35.084 1.434 1.642-2.188-2.034-30.296-7.054-63.342a103.066 103.066 0 0 0 5.77-19.7z" fill="#71BE63" /><path d="M21.994 660.646C85.698 870.908 280.938 1024 512 1024s426.302-153.092 490.006-363.354H21.994z" fill="#94D75B" /><path d="M396.388 445.936l148.644-148.646L842.322 594.58v115.614H396.388z" fill="#DE7E68" /><path d="M504.602 704.688h353.548v16.682H504.602z" fill="#99645F" /><path d="M495.484 710.194h-198.194v-132.13l99.098-49.548 99.096 49.548z" fill="#B66E6E" /><path d="M636.754 189.174c-4.224 0-8.216 0.832-12.042 2.038-12.12-17.422-32.224-28.876-55.056-28.876S526.72 173.79 514.6 191.212c-3.826-1.206-7.818-2.038-12.042-2.038-22.234 0-40.258 18.024-40.258 40.258h214.71c0.002-22.234-18.022-40.258-40.256-40.258zM743.398 261.076c-2.004 0-3.898 0.394-5.712 0.966-5.748-8.264-15.286-13.698-26.116-13.698s-20.366 5.434-26.116 13.698c-1.814-0.572-3.708-0.966-5.712-0.966a19.096 19.096 0 0 0-19.096 19.096h101.85c-0.002-10.546-8.552-19.096-19.098-19.096zM539.002 82.752c-2.004 0-3.898 0.394-5.712 0.966-5.75-8.264-15.286-13.698-26.116-13.698s-20.366 5.434-26.116 13.698c-1.814-0.572-3.708-0.966-5.712-0.966a19.096 19.096 0 0 0-19.096 19.096h101.85c0-10.546-8.55-19.096-19.098-19.096z" fill="#FFFFFF" /><path d="M880.086 292.344c-3.114 0-6.056 0.612-8.876 1.502-8.934-12.844-23.754-21.288-40.586-21.288s-31.652 8.444-40.586 21.288c-2.82-0.89-5.764-1.502-8.876-1.502-16.39 0-29.678 13.286-29.678 29.678h158.28c0-16.39-13.288-29.678-29.678-29.678zM376.58 177.158c-3.754 0-7.302 0.738-10.702 1.81-10.77-15.482-28.636-25.662-48.926-25.662s-38.156 10.18-48.926 25.662c-3.4-1.072-6.948-1.81-10.702-1.81-19.758 0-35.776 16.018-35.776 35.776h190.806c0.002-19.758-16.014-35.776-35.774-35.776z" fill="#FFFFFF" /><path d="M850.08 619.854L545.032 314.806l-156.402 156.404-17.518-17.516 173.92-173.92 322.564 322.564zM503.37 595.854l-106.982-53.492-106.984 53.492-11.066-22.16 118.05-59.024 118.048 59.024z" fill="#99645F" /><path d="M445.936 462.452h49.548v66.064h-49.548z" fill="#63A0B5" /><path d="M499.612 532.646h-57.806v-74.322h57.806v74.322z m-49.548-8.258h41.29V466.58h-41.29v57.808z" fill="#556483" /><path d="M445.936 474.838h49.548v8.258h-49.548z" fill="#556483" /><path d="M528.516 462.452h49.548v66.064h-49.548z" fill="#63A0B5" /><path d="M582.194 532.646h-57.806v-74.322h57.806v74.322z m-49.548-8.258h41.29V466.58h-41.29v57.808z" fill="#556483" /><path d="M528.516 474.838h49.548v8.258h-49.548z" fill="#556483" /><path d="M611.096 462.452h49.548v66.064h-49.548z" fill="#63A0B5" /><path d="M664.774 532.646h-57.806v-74.322h57.806v74.322z m-49.548-8.258h41.29V466.58h-41.29v57.808z" fill="#556483" /><path d="M611.096 474.838h49.548v8.258h-49.548z" fill="#556483" /><path d="M561.548 594.58h49.548v66.064h-49.548z" fill="#63A0B5" /><path d="M615.226 664.774H557.42v-74.322h57.806v74.322z m-49.548-8.258h41.29v-57.806h-41.29v57.806z" fill="#556483" /><path d="M561.548 606.968h49.548v8.258h-49.548z" fill="#556483" /><path d="M644.13 594.58h49.548v66.064h-49.548z" fill="#63A0B5" /><path d="M697.806 664.774H640v-74.322h57.806v74.322z m-49.548-8.258h41.29v-57.806h-41.29v57.806z" fill="#556483" /><path d="M644.13 606.968h49.548v8.258h-49.548z" fill="#556483" /><path d="M726.71 594.58h49.548v66.064h-49.548z" fill="#63A0B5" /><path d="M780.388 664.774H722.58v-74.322h57.806v74.322z m-49.55-8.258h41.29v-57.806h-41.29v57.806z" fill="#556483" /><path d="M726.71 606.968h49.548v8.258h-49.548z" fill="#556483" /><path d="M330.322 594.58h49.548v66.064h-49.548z" fill="#63A0B5" /><path d="M384 664.774h-57.806v-74.322H384v74.322z m-49.548-8.258h41.29v-57.806h-41.29v57.806z" fill="#556483" /><path d="M330.322 606.968h49.548v8.258h-49.548z" fill="#556483" /><path d="M412.904 594.58h49.548v66.064h-49.548z" fill="#63A0B5" /><path d="M466.58 664.774h-57.806v-74.322h57.806v74.322z m-49.548-8.258h41.29v-57.806h-41.29v57.806z" fill="#556483" /><path d="M412.904 606.968h49.548v8.258h-49.548z" fill="#556483" /><path d="M396.944 676.592c-6.386 0-12.424 1.258-18.208 3.082-18.326-26.344-48.724-43.664-83.246-43.664s-64.922 17.32-83.246 43.664c-5.784-1.824-11.822-3.082-18.208-3.082-33.62 0-60.872 27.254-60.872 60.872h324.654c-0.002-33.618-27.256-60.872-60.874-60.872z" fill="#71BE63" /><path d="M357.91 676.59c-6.386 0-12.424 1.258-18.208 3.082-14.748-21.2-37.486-36.04-63.73-41.228-26.244 5.188-48.982 20.028-63.73 41.228-5.786-1.824-11.822-3.082-18.208-3.082-33.62 0-60.874 27.254-60.874 60.874h285.622c0.002-33.62-27.252-60.874-60.872-60.874z" fill="#43AB5F" /><path d="M393.95 737.166c0-19.552 15.85-35.404 35.404-35.404 2.952 0 5.772 0.466 8.514 1.148 9.238-9.976 22.336-16.32 37.006-16.32 27.932 0 50.576 22.644 50.576 50.576h-131.5z" fill="#71BE63" /><path d="M466.024 687.54c-11.034 1.992-20.834 7.46-28.158 15.37-2.742-0.68-5.562-1.146-8.514-1.146-19.554 0-35.404 15.85-35.404 35.404h113.224c0.002-24.706-17.732-45.204-41.148-49.628z" fill="#43AB5F" /><path d="M512 1024c184.272 0 345.522-97.534 435.68-243.612H76.32C166.478 926.466 327.728 1024 512 1024z" fill="#71BE63" /><path d="M854.514 891.87H169.486C260.166 973.848 380.102 1024 512 1024s251.834-50.152 342.514-132.13z" fill="#43AB5F" /><path d="M134.958 650.08c-1.978 0-3.846 0.39-5.638 0.954-5.674-8.156-15.088-13.52-25.776-13.52s-20.102 5.362-25.776 13.52c-1.792-0.564-3.66-0.954-5.638-0.954a18.848 18.848 0 0 0-18.848 18.848h100.526c0-10.408-8.44-18.848-18.85-18.848z" fill="#94D75B" /><path d="M858.15 669.418c0-13.312 10.792-24.104 24.104-24.104 2.01 0 3.93 0.318 5.796 0.782 6.29-6.792 15.208-11.112 25.194-11.112 19.018 0 34.434 15.416 34.434 34.434h-89.528z" fill="#94D75B" /><path d="M359.584 235.854c0-23.18 18.79-41.97 41.97-41.97 3.498 0 6.844 0.554 10.092 1.36 10.952-11.826 26.48-19.348 43.87-19.348 33.114 0 59.958 26.844 59.958 59.958h-155.89z" fill="#FFFFFF" /><path d="M698.314 183.286c0-14.25 11.552-25.802 25.802-25.802 2.15 0 4.208 0.34 6.204 0.836 6.732-7.27 16.278-11.894 26.97-11.894 20.358 0 36.86 16.504 36.86 36.86h-95.836z" fill="#FFFFFF" /><path d="M490.838 984.086m-13.764 0a13.764 13.764 0 1 0 27.528 0 13.764 13.764 0 1 0-27.528 0Z" fill="#94D75B" /><path d="M646.882 944.172m-13.764 0a13.764 13.764 0 1 0 27.528 0 13.764 13.764 0 1 0-27.528 0Z" fill="#94D75B" /><path d="M281.806 851.842m-9.52 0a9.52 9.52 0 1 0 19.04 0 9.52 9.52 0 1 0-19.04 0Z" fill="#B0EB81" /><path d="M385.122 817.892m-9.52 0a9.52 9.52 0 1 0 19.04 0 9.52 9.52 0 1 0-19.04 0Z" fill="#94D75B" /><path d="M217.322 827.412m-9.52 0a9.52 9.52 0 1 0 19.04 0 9.52 9.52 0 1 0-19.04 0Z" fill="#94D75B" /><path d="M437.678 842.322m-9.52 0a9.52 9.52 0 1 0 19.04 0 9.52 9.52 0 1 0-19.04 0Z" fill="#B0EB81" /><path d="M637.362 817.892m-9.52 0a9.52 9.52 0 1 0 19.04 0 9.52 9.52 0 1 0-19.04 0Z" fill="#B0EB81" /><path d="M829.696 827.412m-9.52 0a9.52 9.52 0 1 0 19.04 0 9.52 9.52 0 1 0-19.04 0Z" fill="#B0EB81" /><path d="M558.796 849.548m-9.52 0a9.52 9.52 0 1 0 19.04 0 9.52 9.52 0 1 0-19.04 0Z" fill="#94D75B" /><path d="M761.004 849.548m-9.52 0a9.52 9.52 0 1 0 19.04 0 9.52 9.52 0 1 0-19.04 0Z" fill="#94D75B" /><path d="M385.122 956.56m-13.764 0a13.764 13.764 0 1 0 27.528 0 13.764 13.764 0 1 0-27.528 0Z" fill="#71BE63" /><path d="M539.212 938.322m-13.764 0a13.764 13.764 0 1 0 27.528 0 13.764 13.764 0 1 0-27.528 0Z" fill="#71BE63" /></svg>